<?xml version="1.0" standalone="no"?>
<!DOCTYPE svg PUBLIC "-//W3C//DTD SVG 1.1//EN" "http://www.w3.org/Graphics/SVG/1.1/DTD/svg11.dtd" >
<svg xmlns="http://www.w3.org/2000/svg" xmlns:xlink="http://www.w3.org/1999/xlink" version="1.1">
<metadata></metadata>
<defs>
<font id="angelinyregular" horiz-adv-x="200" >
<font-face units-per-em="1000" ascent="800" descent="-200" />
<missing-glyph horiz-adv-x="500" />
<glyph horiz-adv-x="0" />
<glyph horiz-adv-x="333" />
<glyph unicode=" " />
<glyph unicode="!" horiz-adv-x="344" d="M293 492q12 5 11 -1q-1 -7 -12 -13q-7 -3 -14.5 -11.5t-12.5 -16.5t-10.5 -22.5t-8 -22t-7 -22.5t-5.5 -17l-51 -144q-16 -39 -27 -62t-33 -52t-49 -45q-13 -9 -14 -2q1 6 9 11q29 18 53 56.5t35.5 71.5t27.5 86t23 71q1 2 8.5 23.5t10 28t11 24t15 26t17.5 18.5t23 15z M62 17q7 19 -4 23q-4 1 -9 -4t-7 -12q-7 -18 4 -22q10 -4 16 15z" />
<glyph unicode="&#x22;" horiz-adv-x="168" d="M53 362q12 0 15 -3q3 -2 -1 -4q-1 0 -1 -1h-1q0 1 -1 0v-1q-1 -1 -1 -2v-6l3 -15q0 -15 -20 -17q-12 0 -15 4q-2 3 1.5 3.5t7.5 0.5l1 1l1 2q1 3 0 7q0 2 -0.5 7t-0.5 7q-3 17 12 17zM121 362q12 0 16 -3q3 -2 -2 -4q-1 0 -1 -1h-1h-1v-3v-6q0 -3 1 -8t1 -7 q0 -15 -20 -17q-11 0 -14 4q-2 3 1 3.5t7 0.5l1 1l1 2q1 2 1 7q0 2 -1 7t-1 7q-2 17 12 17z" />
<glyph unicode="#" horiz-adv-x="262" d="M31 138q-4 3 4 4q10 3 14 0q8 -4 32 -4l19 40l2 6q-30 0 -44 8q-3 2 2 3q12 3 16 0q7 -4 29 -4q23 61 39 67q9 3 18 -2q2 -2 -2 -3t-9 -10t-9.5 -21t-5.5 -13l-9 -18q7 0 20.5 -0.5t19.5 -0.5q22 62 39 68q9 3 18 -2q2 -2 -2 -3t-9 -10t-9.5 -21t-5.5 -13l-9 -19 q20 2 38 -3q12 -3 -2 -6q-6 -2 -9 -1q-8 2 -30 4l-19 -43l-2 -4q24 0 35 -3q12 -3 -2 -6q-6 -2 -9 -1q-9 2 -27 4q-26 -65 -47 -70q-10 -2 -15 3q-2 2 1 3q1 1 3 1q5 1 26 43l10 20q-14 -1 -40 -1q-24 -58 -41 -67l-6 -2q-10 -2 -15 3q-2 2 1 3q1 1 3 1q5 1 26 43l9 19 q-33 2 -46 8zM140 137h3l19 41q0 1 1 3t1 3q-14 -1 -40 -1l-19 -42q0 -1 -2 -3z" />
<glyph unicode="$" horiz-adv-x="237" d="M62 70q5 11 9 21q-14 0 -22 4.5t-9 12.5t0 14.5t4.5 16.5t3.5 12q2 9 13 6q7 -1 3 -6q-7 -8 -10 -19.5t2 -21t19 -9.5q4 8 19 55t12 46q-32 36 -30 71q2 21 22.5 35.5t51.5 14.5q2 4 3 7l2 6t5 7h4.5t9 -1t7 -3t-1.5 -6l-5 -21q11 0 18 -13.5t5 -26.5q-4 -20 -7 -20 q-2 0 -3.5 2t-2 6.5t-0.5 11.5q0 22 -19 32q-5 -21 -30 -102q67 -111 -42 -111q-6 -15 -14 -31l-16 3q-5 2 -1 7zM97 101q28 7 35.5 28t-7.5 50zM119 227q1 10 28 85q-41 0 -47 -28t19 -57z" />
<glyph unicode="%" horiz-adv-x="324" d="M41 78v1q1 21 13.5 45t24.5 38.5t35 38.5t29 31q9 11 26 29.5t23 26.5q-11 -4 -46 -4q-29 0 -37 24t5.5 51t38.5 33q23 6 39.5 -12.5t11.5 -40.5q-2 -13 -14 -30q21 12 29 17l34 27q2 4 15.5 2.5t14.5 -6.5q1 -1 0 -2q-12 -19 -29 -37.5t-40 -40.5t-34 -34 q-4 -4 -27 -27.5t-37.5 -41t-25.5 -35.5l3 3q41 35 79 27q14 -2 20.5 -16t5.5 -28q-2 -35 -21 -48q-10 -7 -27.5 -4t-28.5 17q-10 14 -15 31l-4 -5q-15 -14 -30 -32q0 -3 -7 -4t-15 0.5t-9 5.5zM117 122q2 -17 13 -30q12 -13 26 -17t22 7q9 8 8 38.5t-23 30.5q-6 0 -12 -3 t-12 -8t-8 -6zM148 296q-2 3 2 7.5t8 1.5q15 -12 28 14q16 30 -1 50l-2 2q-25 23 -47 1q-11 -11 -16 -24.5t1 -28.5t27 -23z" />
<glyph unicode="&#x26;" horiz-adv-x="338" d="M40 71q0 19 12 38.5t20 27t31 27.5q44 38 66 55q-1 50 20.5 87.5t60.5 38.5q53 1 3 -63q-20 -24 -39 -41l-37 -31q0 -12 4 -30l4 -17q47 18 64 -8q20 -31 -25 -79q6 -9 15 -17t24.5 -13.5t27.5 7.5q4 0 6.5 -3.5t-1.5 -6.5q-16 -13 -34.5 -6t-28 15t-15.5 17 q-49 -49 -113 -49q-29 0 -47 14.5t-18 36.5zM60 91q-5 -27 7 -46t40 -19q52 0 108 48q-26 36 -37 81q-24 -9 -42 -38q-11 -18 -2 -18q4 0 -2 -5q-3 -1 -4 -1q-16 2 9 33q20 23 40 33q-7 25 -8 44q-62 -53 -65 -56q-2 -2 -10 -9t-11.5 -11t-9.5 -10.5t-9 -12.5t-4 -13z M204 249q26 22 47 55q24 37 -7 35q-36 -3 -52 -35.5t-16 -77.5zM187 158q8 -36 26 -65l8 -13q31 31 21 60q-12 32 -55 18z" />
<glyph unicode="'" horiz-adv-x="119" d="M62 382q12 0 16 -3q3 -2 -2 -4q-1 0 -2 -1h-1v-3v-6q1 -3 1 -18t1 -17q0 -15 -20 -17q-11 0 -14 4q-2 3 1 3.5t7 0.5l1 1l1 2q1 2 1 7q0 2 -1 17t-1 17q-2 17 12 17z" />
<glyph unicode="(" horiz-adv-x="370" d="M313 559q14 1 17 -5q1 -2 -3 -4q-2 -1 -6 -1q-35 -2 -73 -32.5t-62 -62.5t-45 -68q-91 -153 -69 -318q0 -3 -6.5 -4.5t-14 -0.5t-7.5 5q-26 201 99 364q94 122 170 127z" />
<glyph unicode=")" horiz-adv-x="371" d="M286 551q-2 3 4 5q17 4 23 -3q44 -72 -18 -227q-73 -182 -230 -263q-8 -4 -22 1q-5 2 -2 4q82 43 142.5 114t89.5 160q51 147 13 209z" />
<glyph unicode="*" horiz-adv-x="152" d="M41 533q-4 0 4 6q15 0 22 -1l-11 21q2 4 7 5q6 -14 10 -20q1 5 2 14.5t1 14.5q0 2 5 5q3 1 3 -1q-4 -17 -6 -39q9 8 15 18l7 3l-1 -1q-9 -14 -18 -22l31 -6l-4 -6h-2l-24 5q7 -10 14 -16q1 -1 -2 -4t-4 -2q-10 9 -18 21l-21 -15l-3 -1q-2 2 3 4q12 8 19 15q-20 2 -29 2z " />
<glyph unicode="+" horiz-adv-x="298" d="M195 266q8 0 0.5 -16.5t-23 -42.5t-19.5 -35q-46 -99 -64 -99q-11 0 -11.5 1.5t9.5 12.5q0 1 31.5 56t32.5 58q3 6 10 28t14 29.5t20 7.5zM64 163q-13 0 15 20h159l-15 -20q-25 8 -74.5 9t-84.5 -9z" />
<glyph unicode="," horiz-adv-x="123" d="M62 104q14 2 19 -10t-5 -28t-23 -16t-13 6q0 3 10 3q7 0 9 8.5t-1 10.5q-10 13 -6.5 19t10.5 7z" />
<glyph unicode="-" horiz-adv-x="243" d="M44 163q-12 -1 3 16q9 10 15 11q30 3 69 1t67 1q5 1 5 -3q0 -10 -15 -20q-4 -3 -7 -3q-30 -2 -68.5 -1t-68.5 -2z" />
<glyph unicode="." horiz-adv-x="115" d="M70 79q5 8 5 16.5t-5 11.5q-12 5 -26 -14q-11 -22 1 -29q14 -7 25 15z" />
<glyph unicode="/" horiz-adv-x="365" d="M307 486q9 4 16 -1q5 -3 -1 -6q-13 -7 -39 -57.5t-60.5 -128t-39.5 -88.5q-4 -8 -20.5 -48.5t-29.5 -67.5t-35 -54.5t-44 -32.5q-11 -2 -14 4q-1 3 6 5q2 1 6 2q9 2 20.5 16t19 29t16.5 34t11 23q3 7 46 105.5t82.5 176.5t59.5 89z" />
<glyph unicode="0" horiz-adv-x="543" d="M52 260q150 278 365 287q35 1 54 -12.5t20.5 -37.5t-4 -51t-20 -58.5t-26.5 -54t-25 -42.5q-177 -274 -334 -285q-49 -3 -69 25.5t-12 74t21.5 85t29.5 69.5zM94 255q-41 -83 -49 -153q-8 -79 49 -72q16 2 38 11q120 51 242 254q134 221 53 235q-7 1 -16 1 q-51 -2 -100.5 -28t-90 -68t-71.5 -87t-55 -93z" />
<glyph unicode="1" horiz-adv-x="359" d="M2 5q-9 5 16.5 59.5t75.5 140t85 144t72 118.5q-13 -7 -66 -49.5t-87 -49.5q-16 -3 -29 6q-6 4 4 7q1 1 3 1q37 7 99 58t102 58q32 0 32 -6q0 -1 -1 -3q-63 -103 -170.5 -288t-99.5 -189q7 -4 -6 -7q-20 -4 -30 0z" />
<glyph unicode="2" horiz-adv-x="400" d="M45 58q33 5 68 -4q82 65 147 175q77 130 47 190q-18 37 -77 37q-35 0 -63.5 -19.5t-39.5 -52.5q-2 -7 -4 -16t-3 -20t3.5 -18.5t13.5 -7.5q6 0 -3 -8q-5 -5 -8 -4q-13 1 -18 10.5t-2.5 24t6 26t7.5 21.5q15 32 45 54.5t69 22.5q94 0 110 -76q18 -80 -53 -191 q-56 -87 -148 -155q80 -24 109 -23q45 2 71 36q5 7 12 5q3 0 -1 -5q-47 -58 -127 -44q-22 4 -80 19q-53 -35 -83 -35t-38.5 13t4 27.5t36.5 17.5zM38 14q37 12 60 29q-32 6 -49 4q-32 -5 -32 -21q0 -12 13 -13q4 0 8 1z" />
<glyph unicode="3" horiz-adv-x="438" d="M2 87q6 33 28 54.5t55 22.5q8 0 -4 -11l-8 -4q-22 -1 -38.5 -20t-18.5 -42q-2 -29 20 -50t56 -21h1q87 0 135 67q41 56 23 113q-18 55 -85 70q-9 2 -9 6.5t9 6.5q129 27 169 104q9 16 12.5 32t1.5 31.5t-15 26t-37 11.5q-66 0 -80 -53q-12 -41 3 -43q5 0 -4 -9 q-6 -6 -10 -5q-10 1 -10.5 16.5t3.5 29.5t8 21q31 58 94 58q85 0 85 -54q1 -49 -57 -104q-64 -60 -134 -64q46 -12 74 -49t21 -87q-8 -64 -61.5 -102t-124.5 -38q-46 0 -77.5 23t-24.5 63z" />
<glyph unicode="4" horiz-adv-x="492" d="M2 187q10 24 42 34t68 7q30 41 63.5 104t51.5 108t14 47q-15 5 7 9q15 3 22 1q9 -3 9.5 -16t-6 -31.5t-14.5 -38.5t-18 -40t-16.5 -31.5t-10.5 -18.5q-34 -66 -60 -99q10 -2 37.5 -9t42.5 -10l44 84q4 8 18.5 37.5t27 53.5t28 52t30.5 45.5t26 21.5q12 4 30 -4q7 -3 2 -5 q-1 -1 -3 -1q-7 -2 -23 -26t-37 -62t-39.5 -74t-38 -75t-26.5 -51q39 -2 74 18q7 4 8 0q0 -5 -8 -9q-39 -22 -81 -24q-3 -6 -17.5 -37t-23.5 -48t-23.5 -41t-29.5 -37.5t-31 -17.5q-12 -3 -26 3q-10 5 6 9q7 2 15 11.5t18.5 28t20 36t24.5 47t26 49.5q-12 1 -84 19 q-34 -39 -81 -46q-19 -3 -34 0.5t-21.5 11t-2.5 15.5zM34 176q27 1 35 5.5t31 30.5q-35 2 -54 -4q-23 -7 -23 -22q0 -8 11 -10z" />
<glyph unicode="5" horiz-adv-x="472" d="M0 86q2 28 19.5 49t45.5 22q8 0 -4 -11l-8 -4q-24 -1 -32.5 -23.5t-0.5 -46.5q10 -29 33.5 -44.5t54.5 -11.5q73 9 114 79q39 66 19 126q-21 66 -103 66q-15 -1 -19 6q-2 4 6 6q2 1 3 1q19 5 39 31t31 49.5t27.5 64.5t18.5 45q3 8 21 6q6 0 48.5 1.5t48.5 -0.5 q8 -1 15 -2.5t16 -4t15.5 -6t10.5 -8.5t2.5 -12.5t-8.5 -15.5q-8 -8 -33 -2q-8 3 -7 6q29 31 -46 31q-6 -1 -14 -1h-8l-23 -1q-1 -3 -8 -19t-9 -20t-9 -18.5t-10 -20t-9.5 -18.5t-10.5 -20t-11 -17.5t-13 -18t-13.5 -16t-14.5 -15.5q22 -4 33 -9q48 -21 68.5 -56t13 -72 t-30 -71.5t-61.5 -58.5t-82 -30q-50 -7 -83.5 18.5t-31.5 66.5z" />
<glyph unicode="6" horiz-adv-x="412" d="M20 237q21 44 47.5 84t61.5 80t79 65.5t90 29.5q33 3 49.5 -9t14.5 -35q-4 -37 -41 -69q-6 -5 -8.5 -2t3.5 8q34 28 30 61q-2 17 -14 26t-28 7q-52 -5 -106 -54.5t-93 -110.5q35 20 67 20q71 0 84 -64q12 -61 -33 -130q-52 -79 -132 -89l-19 -1q-39 0 -58 30t-16 71.5 t22 81.5zM43 92q31 -27 69.5 -9t72.5 67q23 33 35 64t6 58.5t-36 37.5q-27 10 -68 -13t-68 -65q-24 -37 -28.5 -75t17.5 -65z" />
<glyph unicode="7" horiz-adv-x="404" d="M0 10q8 189 271 411h-7q-15 -1 -56.5 8t-69.5 3.5t-41 -36.5q-3 -10 -26 -5q-11 3 -11 8q14 34 49 45t71.5 5.5t77 -5t60.5 15.5q9 7 30 1q10 -3 4 -8q-304 -243 -313 -443q0 -3 -4.5 -5t-10 -2t-11.5 0.5t-9.5 2t-3.5 4.5z" />
<glyph unicode="8" horiz-adv-x="413" d="M14 122q41 94 123 154q-28 84 26 153.5t146 69.5q99 0 14 -126q-53 -78 -128 -147q11 -35 11 -69q-1 -73 -38.5 -114t-101.5 -41q-35 0 -51.5 19t-15 45t14.5 56zM23 110q-13 -36 -2 -65t47 -29q55 0 80 59.5t13 121.5q-3 13 -22 71q-90 -69 -116 -158zM172 302 q3 -13 20 -67q59 55 112 133q77 115 11 116q-68 0 -113.5 -57t-29.5 -125z" />
<glyph unicode="9" horiz-adv-x="459" d="M4 60q6 24 30.5 39t53.5 16q8 0 -4 -10l-8 -4q-22 -1 -40 -13t-19 -33q-1 -20 15 -31t36 -9q110 9 226 210q-51 -36 -97 -29q-75 13 -62 97q14 83 74.5 144t132.5 62q43 0 58.5 -28t6 -71t-23.5 -78.5t-30 -65.5q-26 -48 -50 -84t-60.5 -79t-79.5 -67t-89 -25 q-39 -1 -58 15t-12 44zM153 310q-9 -56 12 -79q18 -19 44 -21t49.5 7.5t45.5 26.5q6 11 15.5 30t21.5 47.5t19 56t9.5 52t-7 40t-32.5 15.5q-60 1 -113 -53.5t-64 -121.5z" />
<glyph unicode=":" horiz-adv-x="115" d="M70 79q5 8 5 16.5t-5 11.5q-12 5 -26 -14q-11 -22 1 -29q14 -7 25 15zM70 260q5 8 5 16.5t-5 11.5q-12 5 -26 -14q-11 -22 1 -29q14 -7 25 15z" />
<glyph unicode=";" horiz-adv-x="123" d="M74 260q5 8 5 16.5t-5 11.5q-12 5 -26 -14q-11 -22 1 -29q14 -7 25 15zM62 104q14 2 19 -10t-5 -28t-23 -16t-13 6q0 3 10 3q7 0 9 8.5t-1 10.5q-10 13 -6.5 19t10.5 7z" />
<glyph unicode="&#x3c;" horiz-adv-x="225" d="M168 240q14 1 17 -6q1 -2 -3 -3q-2 -1 -6 -1q-8 -1 -15.5 -3.5t-15.5 -7.5t-13 -9t-14 -11.5t-12 -9.5q-29 -21 -32 -23q-2 -1 -5 0l6 -3q1 -1 8.5 -5t11 -6t10.5 -6.5t11 -8t8.5 -8.5t6.5 -10t3 -10q0 -3 -7 -4.5t-15 -0.5t-8 5q-1 7 -5.5 13.5t-13 13t-14.5 10.5 t-16.5 10t-12.5 7t-2 2.5t2 2.5q13 8 37 27.5t45 31.5t44 13z" />
<glyph unicode="=" horiz-adv-x="326" d="M97 185q-10 0 -14 3.5t0 6.5t14 3h153q10 0 14 -3t0 -6.5t-14 -3.5h-153zM76 113q-10 0 -14 3.5t0 6.5t14 3h153q10 0 14 -3t0 -6.5t-14 -3.5h-153z" />
<glyph unicode="&#x3e;" horiz-adv-x="225" d="M57 103q-14 -1 -17 6q-1 2 3 3l6 1q8 1 15.5 3.5t15.5 7.5t13 9t14 11.5t12 9.5q29 21 32 23q2 1 5 0l-6 3q-1 1 -8.5 5t-11 6t-10.5 6.5t-11 8t-8.5 8.5t-6.5 10t-3 10q0 3 7 4.5t15 0.5t8 -5q1 -7 5.5 -13.5t13 -13t14.5 -10.5t16.5 -10t12.5 -7t2 -2.5t-2 -2.5 q-13 -8 -37 -27.5t-45 -31.5t-44 -13z" />
<glyph unicode="?" horiz-adv-x="350" d="M86 64q-17 12 -37 -17q-8 -11 -9 -23t6 -17t18.5 -0.5t19.5 16.5t8.5 24t-6.5 17zM203 484q-14 1 -13 5q1 8 19 9h5q61 -4 84 -45.5t3 -101.5q-9 -28 -32 -54t-49 -47t-51.5 -42.5t-44 -49.5t-22.5 -59q0 -5 -10.5 -7t-20.5 0.5t-10 6.5q4 29 26 60.5t40.5 49t49.5 43.5 q88 73 93 134q3 40 -12.5 67.5t-54.5 30.5zM126 393q2 -2 -1.5 -6t-8 -6.5t-6.5 -0.5q-14 18 -12.5 37.5t15.5 36.5q35 44 102 44q2 0 2 -1q0 -6 -11 -12q-2 -1 -3 -1q-63 0 -83 -37q-15 -31 6 -54z" />
<glyph unicode="@" horiz-adv-x="424" d="M137 130q0 28 10 55q24 64 82 64q25 0 43 -16q12 -9 20 -23v6v3q0 20 -6 24q-4 3 5 5l4 1q13 3 20 -3q9 -7 9 -28l-3 -90q-2 -26 -1 -40q0 -1 1 -5.5t2 -7.5v-1q2 2 3 4q2 2 9 14q14 31 27 82v1q24 87 -8.5 133t-92.5 37q-73 -10 -134 -93q-60 -81 -58 -156q3 -79 83 -90 q12 -2 25 -2q69 0 95 34q10 14 18 5t-6 -19q-41 -30 -118 -30q-108 0 -124 81q-13 72 46 159q58 88 139 114q15 5 29 7q67 10 103 -33t21 -120q-14 -58 -24 -86q-6 -18 -15 -37q-8 -13 -14 -15h-1q-2 -1 -3 -1h-12q-14 2 -18 8q-1 1 -4 13q-3 28 1 65q-5 -17 -10 -28 q-22 -53 -61 -60q-4 -1 -11 -1q-40 0 -57 24q-12 15 -14 46zM169 127q2 -27 12 -41q5 -8 13 -13q25 -14 56 19q27 31 38 95q0 1 1 4t1 5q-9 19 -22 31q-19 16 -36 13q-18 -3 -33 -22q-32 -36 -30 -91z" />
<glyph unicode="A" horiz-adv-x="1023" d="M909 616q3 -3 0 -3l1 -1q-3 -11 -7.5 -33.5l-6.5 -32.5q-24 -117 -34 -212q16 4 40 4q69 0 83 -34q1 -2 -3 -3q-14 -6 -27 1q-2 1 -3 2q-14 37 -93 20q-6 -70 -6 -74q-6 -87 2 -133q8 -47 41 -90t80 -48q46 -2 69 34q2 2 4.5 1t4 -3.5t0.5 -4.5q-24 -39 -79 -36h-3 q-58 4 -96 43q-42 40 -52 99q-10 52 -2 138q1 33 6 65q-4 -1 -10 -3t-8 -2q-23 -8 -69 -25t-70 -24q-21 -54 -55 -100q-53 -74 -126.5 -122t-164.5 -49h-7q-5 1 -13 1q-37 4 -65 22q-24 14 -42 44q0 1 -2 4.5t-3 6.5h-18h-9q-60 4 -102 40q-73 65 -63 167q4 42 24.5 72.5 t61.5 30.5q6 0 6 -7q-2 -1 -3 -2q-38 0 -59 -36q-20 -30 -22 -71.5t16 -83.5q17 -44 51 -70q41 -29 96 -31h17q-19 46 -12 110q5 75 44 152q36 75 94 126q57 48 121 52h8q89 0 126 -51q33 -47 19 -112q-8 -53 -48 -113q45 4 98 21q9 23 33 100.5t44 115.5q43 85 110 121 q29 17 56 19q2 1 11 1q14 0 16 -3zM186 171q-5 -51 12 -94q101 4 193 57q66 38 111 97q-117 0 -144 73q-2 4 5 5q19 3 27 -5q7 -20 22 -36q23 -22 64 -26q22 -2 33 -2q38 53 50 119q8 63 -18 103q-31 46 -94 46q-11 0 -16 -1q-62 -6 -120 -62q-53 -50 -87 -126 q-35 -76 -38 -148zM624 228q4 7 10 21q-59 -15 -100 -17q-6 -9 -8 -11q-55 -69 -139.5 -110t-184.5 -43q5 -12 11 -18q34 -50 108 -50q78 0 163 62q86 62 140 166zM841 413q18 114 35 190q-29 -10 -49 -27q-71 -54 -111 -176q-2 -7 -15.5 -53.5t-22.5 -69.5q37 14 78 29 q36 14 73 23q5 42 12 84z" />
<glyph unicode="B" horiz-adv-x="957" d="M723 597q61 -29 83 -75q19 -42 3 -87q-27 -83 -104 -98q27 -12 55 -31q71 -51 107 -137t4 -139q-46 -74 -199 -76q-3 0 -6 1q-67 2 -121 38q-26 16 -45 41q-64 -73 -158 -74h-6q-2 0 -7 1t-8 1q-48 9 -90 52q-20 -2 -30 -2h-6q-52 2 -98 37q-74 58 -93 160q-9 43 1 72 q9 30 36 30q6 0 7 -6q0 -3 -4 -4q-25 0 -31 -34q-7 -30 3 -70q10 -43 33 -81q25 -42 61 -67q41 -28 88 -28q8 0 24 2q-21 23 -40 55q-25 39 -37 80q-5 17 -9 49q-6 61 9 123q17 70 57 110q14 14 30 24q4 19 7 31q18 64 77 98q67 39 184 41h4q75 0 131 -10q9 6 20 9 q13 2 24 -4q3 -2 -1 -3q-2 -1 -4 -1q-7 -2 -12 -7q32 -8 61 -21zM198 67q15 -23 33 -42q59 11 102 56q92 92 90 240q0 20 -4.5 43.5t-14.5 51t-30 45.5t-47 18q-13 0 -19 -1q-34 -3 -66 -21q-4 -41 7 -92q13 -49 39 -93q12 -19 22 -29l4 -4q1 -1 2.5 -2t2.5 -1l3 -1v0 q1 -1 2 -1v0q6 0 7 -5q1 -4 -3 -4h-5q-9 3 -23 17q-8 9 -24 34q-28 49 -39 102q-7 38 -6 72q-14 -10 -30 -28q-36 -45 -49 -110q-12 -62 -5 -116q7 -63 51 -129zM452 19q17 16 32 37q-12 20 -16 37q-16 52 12 75q22 17 54 5q9 40 16.5 117.5t10.5 95.5q14 110 39 179 q13 35 25 50q-45 9 -118 9q-19 0 -29 -1q-107 -3 -168 -47q-51 -36 -65 -98q0 -5 -1 -8q31 16 72 18q3 1 7 1q70 -2 103 -55q30 -48 28 -123q0 -71 -29 -140q-56 -135 -184 -156q9 -9 20 -17q37 -28 78 -28q58 0 113 49zM489 64q26 39 41 93q2 6 2 8q-33 11 -50 -12 q-20 -26 2 -78q1 -1 2.5 -5t2.5 -6zM742 378q18 18 29 40.5t14 52t-14 58.5q-22 41 -82 67q-5 2 -11 4l-13.5 4.5t-11.5 3.5q-6 -12 -9 -17q-14 -28 -27 -78q-20 -76 -35 -212q-7 -90 -20 -143q32 -24 46 -66q1 -4 -2 -4q-5 -1 -7 4q-16 40 -39 58q-8 -30 -21 -56 q-14 -30 -34 -54q25 -31 60 -50q49 -26 103 -26q60 0 107 19q59 22 75 72q18 61 -35 152q-24 43 -63.5 80t-81.5 48q-7 0 -8 4q-1 1 0.5 2t4.5 2t11 1h3q2 0 4.5 0.5t3.5 0.5q9 3 18 8q17 7 35 25z" />
<glyph unicode="C" horiz-adv-x="766" d="M654 613q27 -17 35 -46q23 -86 -83 -137q-86 -40 -210 -42h-4q-62 2 -101 10q-23 -92 11 -192q20 -59 60.5 -112t93.5 -75q-17 63 2 111q15 46 53 73t93 28h7q35 -2 55 -30q17 -23 15 -60q-1 -29 -20 -67q-20 -34 -54 -55t-76 -23h-10q-16 0 -25 1q3 -4 7.5 -12.5 t6.5 -12.5q34 -48 93 -48q16 0 18 -6q1 -2 -0.5 -3t-5 -1.5t-5 -0.5h-3.5q-62 0 -99 30q-33 23 -46 60q-27 6 -63 27q-46 29 -80 79q-50 71 -64 152.5t6 143.5q-5 2 -21 7q-24 8 -49 22q-16 -11 -35 -14q-14 -4 -43.5 -5.5t-40.5 -3.5q-38 -11 -50 -29q-17 -27 -9 -47 q2 -6 -3 -6.5t-7 6.5q-10 34 11 58q34 32 102 32q24 0 35 4q22 7 29 12q-22 13 -42 31q-40 36 -58 100q-17 61 11 84q19 19 67 19h9q4 0 5 -1q25 -3 47 -22q20 -20 28 -45q20 -54 -4 -111q-13 -32 -36 -52q28 -17 58 -27q4 14 13 35q39 78 120 127.5t180 50.5h3q43 0 73 -17 zM178 466q3 -3 10 -8t9 -7q27 22 37 53q25 56 1 108q-7 22 -26 38q-20 16 -48 16q-38 0 -51 -27q-15 -32 11 -96q17 -43 57 -77zM481 78q0 -42 11 -71q14 -3 27 -3q50 0 87 27q64 45 65 117q0 32 -15 52q-18 22 -49 22q-56 -1 -90.5 -44t-35.5 -100zM668 494q24 35 11 75 q-6 25 -32 38q-29 13 -66 13q-82 0 -168 -56q-89 -57 -119 -155q45 -11 95 -11q61 0 116 12q54 9 98 31q48 23 65 53z" />
<glyph unicode="D" horiz-adv-x="745" d="M475 584q43 -15 81 -43q77 -57 110.5 -143.5t26.5 -167.5q-11 -114 -84.5 -187t-194.5 -76h-3q-56 0 -126 13q-1 0 -3.5 1t-3.5 1q-53 -38 -116 -38h-4q-32 0 -52 15t-16 37q4 25 37.5 25.5t59.5 -9.5q48 -12 73 -17q14 12 20 18q33 33 54.5 74t34 100.5t17 92 t12.5 107.5q13 125 33 172q5 13 12 23q-54 19 -119 19q-22 0 -38 -4q65 -48 82 -126q6 -42 4 -86t-26.5 -79t-66.5 -37h-14q-19 4 -32 13q-21 14 -37 43q-26 46 -30 110q-3 50 15 91q22 49 71 71q-48 32 -97 34q-90 -2 -128 -73q-23 -47 -15 -105t41 -118q35 -59 73 -91 q42 -37 81 -37q6 0 7 -6q-1 -3 -3 -4q-47 0 -98 49q-44 40 -75 100q-32 62 -37 121q-6 65 24 110q42 60 119 63h7q67 0 123 -35q20 5 38 5q3 1 8 1q70 0 132 -18q26 29 71 29q16 0 17 -5q1 -1 -0.5 -2t-4.5 -1.5t-5 -0.5h-4q-31 -1 -51 -29zM271 582q-1 1 -4 3.5t-5 4.5 q-15 -6 -27 -15q-67 -49 -59 -148q1 -15 9 -51q9 -31 22 -53q25 -44 63 -45q35 4 55 54q26 58 12 134q-12 69 -66 116zM159 -47q48 1 92 35q-11 2 -30.5 6.5t-27.5 6.5q-44 12 -65 11q-24 0 -28 -18q-4 -17 10 -28q18 -13 49 -13zM612 86q44 65 50.5 147t-31.5 175 q-39 84 -107 132q-22 16 -56 32q-14 -27 -23 -76q-9 -47 -17 -130.5t-20.5 -151t-38.5 -120.5q-32 -66 -81 -105q63 -12 123 -12q130 3 201 109z" />
<glyph unicode="E" horiz-adv-x="538" d="M305 621q34 -5 65.5 -27.5t40.5 -53.5q11 -40 -20 -59t-77 -24q-66 -6 -136 7q29 -63 117 -128l1 -2q0 -4 -14 -4q-5 0 -8 1h-5h-1h-1q-24 0 -35 -1q-120 -8 -150 -77q-23 -52 9 -128q19 -47 64 -87t90 -43q12 0 32 2q-36 33 -54.5 73t-14.5 78q4 43 32 74t72 35h8 q23 0 41 -11q21 -11 38 -39q28 -49 23 -100q-4 -37 -33 -69q-30 -30 -76 -44q63 -51 128 -50q26 2 44 10q38 14 53 48q16 37 -1 87q-1 4 2 4q5 1 7 -4q11 -32 10 -57q-2 -40 -29.5 -65.5t-70.5 -30.5q-4 -1 -12 -1q-64 -2 -117 27q-22 11 -40 26q-11 -2 -34 -2q-7 -2 -11 0 q-55 2 -107.5 43t-75.5 96q-34 81 -6 135q20 42 79 63q56 20 124 18q-67 51 -96 97q-10 15 -17 34q-35 8 -65 25q-69 39 -82 97q-5 20 0.5 37.5t23.5 17.5q5 0 7 -5q1 -4 -3 -4q-3 0 -5 -1q-10 -4 -14 -20q-3 -15 4 -37q19 -54 91 -87q22 -8 40 -14q-18 62 30 101.5 t116 39.5h9q4 -1 10 -1zM244 95q15 -52 60 -92q9 1 18 6q83 32 90 105q4 41 -20.5 88t-69.5 46q-40 -5 -66 -51t-12 -102zM332 469q36 7 59 27t7 55q-14 28 -46.5 45t-62.5 17q-42 -1 -75.5 -22.5t-43.5 -56.5q-7 -29 4 -61q10 -2 28 -4q74 -10 130 0z" />
<glyph unicode="F" horiz-adv-x="837" d="M808 575q26 -10 45 -26q23 -23 32 -51q14 -42 -24 -65q-34 -21 -112.5 -23.5t-134.5 9.5q-15 -51 -28 -138q14 -4 65 -23q0 1 1 2.5l2 3t1 2.5q28 46 87 46q21 0 33 -6q26 -12 24 -37q-3 -23 -28 -36q-23 -11 -52 -5q-17 3 -38 11l-2 1h-3q-1 -5 -1 -15q0 -17 12 -29 q10 -10 25 -10q3 0 10.5 -1t11.5 -1.5t9 -2.5t8 -6q6 -7 4 -21q-2 -5 -6 -13.5t-4 -9.5q-5 -14 -3 -18q1 -2 11 -2q5 0 6 -5q1 -4 -3 -4q-22 0 -25 12q-2 6 3 20q4 8 5 11q11 20 5 26q-5 5 -25 5q-42 0 -62 18q-22 21 -10 57q-6 2 -28 10t-34 12q-17 -109 -40 -163 q-65 -155 -193 -156h-7q-5 0 -8 1q-64 6 -120 59q-16 -2 -27 -2h-3q-11 0 -33 2q-68 10 -107 44q-36 32 -45 81q-7 45 16 92q22 46 71 76q20 13 46 22q17 62 51 99q43 46 112 49q3 1 7 1q65 -2 97 -54q24 -40 30 -100q63 -14 125 -33q15 98 27 135q-11 2 -43 13 q-56 20 -82 56q-21 29 -18 65q0 1 3 16q-9 3 -25 9t-25 9q-55 17 -77 17q-6 0 -7 6q0 4 3 4q26 0 78 -18q11 -3 30.5 -10t25.5 -9q22 50 79 50q17 0 32.5 -8t20.5 -22q4 -13 -6 -25q-11 -15 -26 -19q-24 -8 -68 5q-1 0 -2.5 0.5t-2.5 0.5q-9 -42 21 -76q28 -32 80 -49 q2 0 6 -1.5t7 -2.5q0 3 2 7q29 79 76 116q28 21 70 24t72 -9zM490 600q-9 -11 -14 -25q35 -11 57 -8q14 3 26 13q14 11 10 23q-5 14 -29 19q-28 4 -50 -22zM709 288q-23 -16 -30 -40h1q22 -7 38 -11q28 -6 50 7q25 16 21 37t-44 21q-5 0 -17 -3q-7 -3 -19 -11zM218 25 q59 10 104 56q85 90 79 233q-1 2 -1 6q-46 8 -85 11q-61 5 -101 3q-33 -1 -70 -13q-4 -20 -6 -31q-9 -68 6 -128q19 -81 74 -137zM184 408q-23 -30 -36 -75q25 7 64 11q42 1 102 -4q30 -2 85 -10q-3 51 -26 89q-27 49 -65 49q-12 0 -18 -1q-66 -6 -106 -59zM67 53 q45 -31 120 -31q14 0 21 1q-58 63 -76 152q-14 66 -1 135q0 1 0.5 3.5t0.5 3.5q-28 -12 -40 -21q-47 -30 -68 -78q-21 -45 -10 -90q11 -47 53 -75zM454 18q56 59 84 168q10 41 17 97q-57 18 -123 31q0 -4 1 -7q1 -72 -24 -139q-24 -62 -70 -102.5t-112 -50.5q57 -50 122 -52 q55 1 105 55zM877 468q4 18 -7 42q-12 27 -34 42q-15 11 -41 18q-54 13 -83 -4q-24 -14 -41 -35q-34 -40 -54 -101q43 -9 112 -11q94 0 128 25q16 11 20 24z" />
<glyph unicode="G" horiz-adv-x="638" d="M550 639q102 0 133 -52q27 -44 4 -91q-20 -37 -76 -62q-50 -23 -117 -34q-57 -10 -114 -11h-4q-40 0 -81 9q-5 -18 -6 -37q-5 -76 37 -148q20 -36 52.5 -63t66.5 -28q68 0 98 64q0 4 -0.5 12t-0.5 12t7.5 4.5t15.5 -1t8 -3.5q2 -26 2 -39v-38q7 5 17 13q22 19 36 40 q12 20 16 35q1 5 7 0q4 -2 3 -5q-2 -12 -18 -39q-16 -21 -41 -43q-11 -9 -21 -15q-10 -208 -151 -209h-5h-17q-78 7 -99 52q-22 42 19 79q22 19 53 27q14 4 43 8t40 6q46 9 85 30v4q2 32 2 48q-33 -50 -91 -51h-5q-91 3 -146 87q-64 99 -37 205q-124 32 -167 117 q-16 34 -16 60q-18 -2 -26 -4q-13 -3 -22.5 -6t-17.5 -12.5t-4 -21.5q2 -4 -4 -4q-4 1 -6 4q-11 33 40 47q16 5 40 7q2 27 18 45q31 35 99 37h2q27 0 51 -9.5t26 -32.5q4 -26 -35 -37q-26 -8 -85 -10q-30 0 -45 -1q0 -38 28 -82q31 -45 85 -69q23 -12 42 -17q16 49 46 90 q42 58 101.5 95t132.5 38h2zM118 614q-3 -6 -5 -20q88 2 111 7q44 10 44 30q2 34 -65 34q-30 -1 -53 -14.5t-32 -36.5zM495 -41q37 49 46 140q-36 -18 -78 -27q-10 -2 -38 -5t-42 -7q-32 -8 -53 -26q-41 -36 -18 -74q11 -18 36 -29q29 -12 71 -12q44 0 76 40zM687 546 q-2 26 -15 44q-14 18 -43 29q-32 11 -78 11q-58 -1 -124 -46q-102 -71 -129 -176q3 0 9.5 -2t9.5 -2q11 -2 35 -4q1 0 3.5 -0.5t3.5 -0.5h1h5h7q67 0 127 12q67 14 110 34q53 27 70 60q9 19 8 41z" />
<glyph unicode="H" horiz-adv-x="893" d="M785 627q19 0 21 -4q1 -2 0 -3.5t-5 -1.5l-4 -1h4q-1 2 -6 -3l-11 -11q-13 -17 -24 -38q-45 -86 -59 -191q132 -32 157 -103q2 -5 -3 -5t-7 5q-3 10 -8 16q-18 30 -65 53q-33 16 -75 26q-6 -44 -6 -89q-2 -117 30 -205q32 -86 79 -92q23 0 39 14q16 16 10 32q-1 5 4 4.5 t6 -4.5q6 -22 -11 -39t-47 -17q0 1 -1 1h-3q-69 5 -106 96q-34 88 -32 224q2 46 7 81h-2q-2 1 -3 1q-66 12 -152 10q-1 -7 -2.5 -19t-2.5 -19q-2 -17 -7 -63t-8 -69.5t-12 -58.5t-21 -62q-29 -60 -78.5 -97t-118.5 -38h-6q-9 0 -13 1q-70 7 -121 62q-5 -1 -15 -1h-4 q-7 0 -23 2q-49 6 -69 36q-18 30 -6 69q10 39 43 80q-4 49 5 96q15 79 58 125q47 48 114 51q3 1 7 1q64 -2 97 -53q15 -22 23 -53q16 3 57 10q25 4 73 8q1 7 3.5 21.5t3.5 21.5q21 102 49 151q23 41 52 42q16 0 18 -5q1 -2 -12 -5h3q-1 0 -7 -4q-4 -3 -12 -13 q-12 -16 -28 -54q-24 -60 -38 -154h48q49 -1 108 -11q8 49 19 87q19 65 51 118q0 1 3.5 6.5t4.5 6.5t4.5 6t5.5 7l5.5 5.5t6.5 5t7 3t8 1.5zM109 407q-38 -49 -49 -126q-5 -30 -3 -65q34 40 80 72q75 53 185 78q-9 33 -21 55q-29 48 -66 48q-11 0 -17 -1q-66 -6 -109 -61z M69 137q18 -64 54 -108q71 7 123 57q43 42 64.5 103t17.5 129q-2 26 -4 38q-45 -10 -88 -27q-57 -23 -108 -61q-41 -31 -70 -68q4 -37 11 -63zM26 52q23 -24 78 -24q1 0 4.5 0.5t5.5 0.5q-42 52 -58 123q-4 17 -6 37h-1q-30 -43 -37 -79q-7 -37 14 -58zM364 9 q24 20 42.5 48.5t29 54.5t18.5 65t11 65t8 71.5t8 67.5q-46 -3 -101 -13q-11 -1 -26 -5q6 -27 6 -53q1 -71 -24 -136q-26 -65 -78 -106t-126 -48l4 -4q50 -48 123 -50q56 1 105 43z" />
<glyph unicode="I" horiz-adv-x="772" d="M770 621q15 -4 24 -13q15 -13 15 -29q0 -12 -10 -19q-10 -8 -29 -11q-18 -3 -38 -3h-5q-13 0 -39 2l-1 -1q-6 -19 -10 -76q-16 -220 -47 -320q-61 -190 -213 -191h-7h-11q-65 8 -116 60q-20 -2 -31 -2h-6h-12q-63 5 -105 49q-37 38 -48 100q-2 10 -2 16q-14 -4 -27 -10 q-33 -18 -42 -55q-1 -6 -7 -1q-4 2 -3 5q5 22 18 37q18 24 60 34q-3 47 9 88q16 58 54 95q40 36 92 39h7h6q6 8 9 11q42 48 111 51h7q89 0 126 -53q32 -44 26 -115q-5 -67 -43 -137q-72 -129 -189 -150l3 -4q52 -49 117 -49q87 1 141 87q40 62 58 141.5t27 186.5 q1 12 2.5 49.5t4.5 66t11 51.5q-40 6 -62 11q-41 9 -70 19q-61 22 -76 22q-18 0 -33 -6q31 -5 50.5 -20t16.5 -33q-7 -34 -58 -29q-21 2 -34 14.5t-12 30.5q0 15 10 30q-37 4 -87.5 -1t-75.5 -14q-42 -15 -33 -42q2 -5 -3 -5t-7 5q-6 18 6 30q22 24 77 32q61 9 133 4 q20 14 47 14q20 0 43.5 -6.5t52.5 -17t45 -14.5q34 -9 73 -15q26 65 94 64q11 0 16 -3zM404 588q-6 -3 -11.5 -14t-3.5 -24q4 -23 33 -26q37 -3 40 22q2 13 -10 23q-17 17 -48 19zM359 467q-62 -6 -99 -53q41 -3 77 -25q33 -21 51 -53.5t14 -62.5q-10 -73 -128 -73 q-10 0 -30 -0.5t-30 -0.5q5 -35 13 -61q19 -63 57 -106q49 10 96 52q105 95 114 231q4 63 -23 105q-32 48 -95 48q-12 0 -17 -1zM253 405q-34 -47 -41 -123q-3 -38 1 -73h57q53 0 79 25q20 18 21.5 46.5t-16.5 59.5q-16 27 -44 44.5t-57 20.5zM94 265q-8 -37 -7 -69q2 0 6 1 t6 1q46 8 104 10q-6 52 1 95q8 61 36 103q-7 0 -11 -1q-51 -4 -88 -46q-34 -37 -47 -94zM143 65q41 -38 105 -38q14 0 27 3q-44 52 -61 123q-4 15 -10 45q-6 0 -18 -0.5t-19 -0.5q-49 -4 -79 -11q2 -21 5 -31q13 -58 50 -90zM799 581q2 11 -12 23q-12 9 -30 11 q-45 0 -66 -58q22 -2 32 -2q24 0 43 4q33 5 33 22z" />
<glyph unicode="J" horiz-adv-x="685" d="M677 619q26 -17 26 -42q0 -14 -14 -19q-22 -8 -81 4q-6 -26 -4 -98q0 -22 -2 -66q24 14 36 31q13 19 13 38q0 4 -2 12q-1 2 -5 6q-4 5 -2 5h3q5 0 7 -2q9 -7 9 -28q-3 -23 -18 -43q-15 -18 -41 -31q-8 -127 -41 -229q-65 -200 -224 -201h-5h-17q-81 7 -134 59h-16h-6h-10 q-60 7 -98 49q-35 40 -46 101q-11 57 2 115q14 61 46 96q31 36 77 40h8q17 0 26 -1q19 24 44 40q21 15 50 21l-3 7q-9 27 -4 57q15 72 144 70q47 -1 145 -23l41 -9q19 50 69 50q14 0 27 -9zM195 431q-9 -7 -18 -18q33 -5 56 -24q49 -39 26 -115q-24 -73 -83 -74q-16 0 -17 5 q-1 2 0.5 3t4.5 1.5t5 0.5h4h1h1q1 1 3 1l9 6q11 7 19 18q38 47 25 105q-5 28 -27 47q-15 12 -35 17q-17 -21 -28 -44q-19 -42 -24 -106q-4 -74 13 -131q18 -59 52 -97q54 6 104 49q88 77 104 211q6 50 -5 93q-59 17 -97 55q-17 17 -25 33q-37 -8 -68 -36zM292 469 q-9 1 -18 0h-2q10 -22 32 -39q31 -28 79 -42q-24 75 -91 81zM64 62q39 -38 97 -38q2 0 6 0.5t6 0.5q-40 45 -56 112q-16 68 -8 136q5 61 29 105q9 16 19 28q-3 0 -8.5 0.5t-7.5 0.5q-8 0 -12 -1q-45 -5 -75 -46q-29 -37 -39 -96q-10 -58 2 -111q14 -59 47 -91zM483 59 q72 109 86 315q-45 -11 -102 -8q-13 1 -48 5q9 -41 2 -91q-9 -68 -42 -128q-65 -121 -187 -135q1 -2 4 -5q55 -47 137 -47q91 1 150 94zM571 504q-2 34 7 64l-29 6q-118 26 -151 26q-80 0 -112 -24q-25 -18 -27 -57q0 -22 8 -41q8 1 24 1h1h3q40 -4 72.5 -26t45.5 -59 q2 -6 4 -14q31 -5 71 -5q45 0 82 10v5q3 50 1 114zM690 572q5 5 1 18q-6 13 -15 20q-8 7 -23 9q-27 0 -42 -47q25 -7 61 -7q14 2 18 7z" />
<glyph unicode="K" horiz-adv-x="926" d="M927 630q0 -22 -16 -22q-5 0 -7 5q-1 4 3 4q1 0 3 1t4.5 6t1.5 13q-5 25 -45 25q-20 -1 -42 -25q-14 -16 -36 -54q-15 -27 -40 -83t-39 -82q-25 -48 -53 -83q36 -24 56 -53q7 -11 13 -21.5t9 -22.5l5 -20t3 -22t1 -19.5v-21.5v-20q0 -93 45 -156q15 -21 37.5 -39 t42.5 -18q37 0 49 29q10 25 -4 65q-1 5 4 5t6 -5q15 -43 3 -72q-12 -28 -47 -31q-3 -1 -8 -1q-54 2 -95 44q-49 49 -60 128q-2 14 -3 74t-16 94q-16 37 -55 69q-11 -12 -23 -23q-28 -23 -58 -31q-11 -52 -27 -97q-64 -193 -207 -194q-3 0 -7 1h-9q-63 8 -110 61 q-15 -3 -29 -3h-4q-65 2 -109 28q-39 24 -55 58q-16 33 -4 66q14 35 56 55q26 12 61 18q-2 35 1 62q8 76 47 125q40 48 108 51q3 1 7 1q88 -2 123 -53q29 -45 21 -117q-7 -68 -44 -137q-67 -131 -170 -152q1 -3 4 -4q48 -50 110 -50q76 0 132 86q48 74 73 191 q-34 0 -61.5 28t-6.5 60q11 16 37 22t50 2q0 5 2 17q2 15 4 48.5t5.5 62.5t10.5 52q-3 -1 -10 -1q-54 -4 -138 0q-25 0 -51 3q-40 2 -66 25q-24 22 -12 44q12 23 56 23q6 0 7 -6q0 -4 -3 -4q-48 0 -53 -25q-2 -11 7.5 -22t23.5 -17q17 -8 55 -10q36 -2 53 -3q75 -2 128 2 q4 0 6 1q24 70 90 75q24 0 36 -14.5t5 -31.5q-6 -11 -27 -21q-26 -11 -73 -16q-6 -20 -8 -29q0 -2 -6 -53q-5 -53 -12 -105q36 -8 54 -21q36 47 74 130q4 8 16.5 36t18.5 41t17.5 33.5t22.5 35.5q33 46 87 46q22 0 37 -12t17 -29zM679 631q-44 -4 -67 -63q35 3 65 15 q28 10 23 28q-4 20 -21 20zM132 302q-1 -20 0 -41q26 3 52 3q5 0 6 -5q1 -4 -3 -4q-31 0 -55 -4q5 -55 19 -95q20 -64 55 -106q37 10 82 53q100 100 110 234q6 63 -19 104q-29 48 -91 48q-11 0 -17 -1q-64 -6 -101 -61q-33 -48 -38 -125zM21 116q22 -38 65 -54.5t87 -16.5 q13 0 24 3q-40 49 -60 123q-11 36 -14 79q-36 -6 -64 -21q-19 -11 -32 -27t-17.5 -38.5t11.5 -47.5zM536 273q8 42 15 93q-15 5 -43 -2t-34 -20q-13 -27 12.5 -49t49.5 -22zM569 283q13 8 32.5 25.5t25.5 27.5q-26 16 -45 22q-8 -50 -13 -75z" />
<glyph unicode="L" horiz-adv-x="583" d="M549 565q34 -20 51 -43q17 -27 11 -50q-7 -26 -39 -40q-34 -15 -101 -17h-2q-70 0 -134 14q-11 -43 -20 -127t-14 -114q-15 -98 -49 -164q-4 -8 -6 -11l26 -12q94 -44 140 -45q28 0 55 11q50 19 80.5 63t37.5 101q1 6 7 1q3 -3 3 -6q-5 -36 -17 -63q-20 -49 -61 -81.5 t-96 -34.5h-6q-57 0 -142 37q-6 2 -17.5 7.5t-17.5 8.5q-25 -38 -63 -39h-8q-13 1 -27 9q-26 18 -20 42q3 20 26 25q4 1 12 1q24 0 61 -14q14 26 28 69q18 56 30.5 166t21.5 151l6 26q-76 22 -125 63q-22 -6 -47 -6q-44 -2 -80 17q-39 20 -52 59q-2 4 2 4q5 0 7 -4 q14 -37 54 -55q31 -14 72 -12q14 1 35 5q-11 11 -20 23q-21 28 -24 54q-4 49 59 53q40 0 61 -24q22 -23 13 -52q-9 -30 -49 -50q-1 0 -2 -1l-6 -3q23 -20 45 -33q25 -14 60 -26q41 136 153 137h7q43 -2 81 -20zM162 569q7 -26 33 -54l12 6q35 19 43 45q7 24 -9 43 q-18 18 -45 18q-23 -1 -32 -17.5t-2 -40.5zM172 -30q17 1 40 41l-5 3q-39 14 -46 14q-16 0 -24 -7q-7 -7 -8 -15q0 -5 1 -8q0 -3 1 -5l2 -3q4 -8 13 -14q14 -6 26 -6zM602 482q3 22 -14 42q-41 52 -123 52q-72 -1 -111 -91q-10 -21 -16 -46q56 -14 128 -14q71 0 105 19 q27 14 31 38z" />
<glyph unicode="M" horiz-adv-x="1169" d="M1102 612q3 0 6 -0.5t5.5 -1.5t3.5 -1.5t1 -1.5q-10 -22 -26 -66q-62 -168 -57 -294q5 -105 43 -190q15 -35 37 -61q9 -10 19 -19q2 -1 5.5 -3t4.5 -3l3 -1l2 -1q16 2 22 8q7 6 7 18q1 18 -14 61q-2 5 3.5 5t6.5 -5q16 -44 14 -67q-3 -23 -26 -28q-4 -1 -11 -1 q-54 1 -95 77q-43 80 -52 201q-4 78 16 165q22 105 62 196q-9 -3 -20 -10q-18 -12 -40 -36q-34 -42 -62 -105q-28 -60 -44 -125q-8 -32 -12 -60q-2 -11 -3.5 -35.5t-3.5 -35.5q-6 -49 -15 -76q-7 -18 -12 -23l2 -2q1 -5 -15 -5t-27.5 12t-15.5 22t-10 30q-47 154 -15 321 q15 79 40 140q-37 -11 -66 -61q-27 -49 -53 -135q-6 -21 -23 -77.5t-27 -86.5q-30 -94 -64 -154q-26 -42 -44 -61q-33 -35 -94 -35h-11q-75 3 -130 49h-4h-7q-69 0 -116 43q-59 55 -68 142q-46 -4 -67 -9q-28 -8 -37 -18q-12 -10 -5 -30q2 -4 -3 -4t-7 4q-2 6 -2 10 q-6 35 51 47q33 7 69 9q-1 31 4 65q11 56 50.5 93t99.5 38q50 76 137 77q5 0 8 -1q27 -2 49 -14q28 -17 46 -43q38 -54 34 -133q-4 -68 -39 -134q-32 -62 -86 -102q-38 -26 -79 -36q48 -41 105 -44q11 0 29 2q29 5 52 20q13 10 28 30q21 27 41 66q28 55 60 160q9 27 24.5 81 t24.5 80q30 88 56 125q32 45 74 49q1 0 2 1h6q1 0 2 -1q4 0 7.5 -1t5.5 -2t2 -2q-9 -21 -17 -45q-40 -118 -40 -238q0 -76 21 -157q11 -42 19 -61q4 -8 10 -17l2 -2q5 4 7 10q8 14 11 31q8 30 14 96q4 58 22 118q20 67 48 124q32 61 65 96q34 36 66 39h3h3l2 1zM415 508 q-56 -1 -103 -62q-6 -9 -7 -10q50 -13 78 -60q22 -40 17 -68q-7 -40 -74 -56q-28 -7 -67 -10q2 -27 7 -48q18 -81 70 -131q48 8 91 44q47 38 79 101q32 65 33 131q2 75 -37 123q-35 44 -87 46zM300 428q-48 -76 -42 -176q42 4 62 9q66 17 70 54q4 31 -22 70q-26 35 -68 43z M183 371q-35 -51 -30 -125q5 0 15 0.5t15 0.5q7 1 22 1.5t22 0.5q-4 57 12 114q12 40 29 66q-52 -7 -85 -58zM154 236q4 -39 21 -77t51 -68.5t77 -31.5q1 0 2 0.5t2 0.5q-58 54 -75 148q-4 23 -5 32q-26 -2 -41 -2q-5 -1 -16 -1.5t-16 -0.5z" />
<glyph unicode="N" horiz-adv-x="988" d="M1214 582q14 -8 18 -19q1 -2 -3 -4q-4 -1 -11 -1q-8 0 -12 1q-4 6 -9 11q-11 11 -23 11q-52 0 -114 -53q-66 -59 -120 -177q-47 -102 -59 -197q-9 -67 2 -124q4 -25 11 -42q1 -3 -1 -5q-6 -5 -16.5 -4t-14.5 6q-15 22 -29 62q-27 70 -41 164q-17 122 -7 226 q10 108 41 153q-35 -12 -63 -60q-26 -44 -53 -135q-7 -23 -24 -78.5t-26 -85.5q-33 -99 -64 -154q-23 -38 -44 -61q-31 -34 -95 -36q-9 0 -10 1q-74 2 -130 49h-4q-3 -1 -7 -1q-71 2 -116 44q-59 52 -68 141q-36 -2 -67 -9q-25 -5 -38 -17q-11 -13 -4 -31q2 -4 -3 -4t-7 4 q-2 8 -2 11q-3 20 12 30.5t39 16.5q21 5 69 9q-2 38 4 65q11 56 50 92.5t99 37.5q52 77 138 78q4 0 8 -1q25 -2 49 -15q26 -14 46 -43q39 -54 33 -132q-3 -68 -38 -135q-33 -61 -86 -101q-41 -28 -79 -36q48 -41 105 -44q19 0 29 2q32 5 51 20q14 9 29 30q23 29 40 66 q29 56 61 159q6 20 22.5 76t26.5 86q26 83 56 124q32 45 73 50q6 2 13 0q11 -2 13 -6q-13 -15 -24 -47q-52 -142 -11 -372q16 -84 41 -146q1 -2 2.5 -6t2.5 -6q-2 8 -4 24q-9 64 4 136q16 103 71 209q53 108 123 160q46 37 95 41q32 2 50 -8zM415 487q-56 -1 -103 -62l-7 -9 q51 -13 78 -61q22 -37 17 -67q-7 -42 -74 -56q-28 -8 -68 -11q4 -30 8 -47q18 -83 70 -132q48 10 91 44q48 41 78 101q33 64 34 132q2 74 -37 123q-36 45 -87 45zM300 408q-48 -76 -42 -177q36 3 62 10q65 15 70 54q5 33 -23 69q-25 36 -67 44zM182 351q-34 -50 -29 -126 q5 0 14.5 0.5t14.5 1.5q16 0 44 2q-3 58 13 114q11 38 29 66q-50 -6 -86 -58zM154 216q7 -63 46.5 -119.5t102.5 -57.5h4q-57 55 -76 149q-2 9 -4 31q-7 -1 -20.5 -1.5t-20.5 -0.5q-5 0 -15.5 -0.5t-16.5 -0.5z" />
<glyph unicode="O" horiz-adv-x="689" d="M482 562q48 -25 81.5 -69.5t46 -91t18 -95.5t-2.5 -84q-14 -100 -76.5 -164t-165.5 -65h-6q-68 0 -122 49q-9 7 -23 24q-30 -9 -67 -9h-4q-21 0 -38 4q-2 -12 -11 -26q-19 -25 -62 -25q-16 0 -17 5q-1 1 0.5 2t4.5 1.5t5 0.5h4q36 1 46 49q-27 10 -49 27q-22 20 -35 48 q-13 27 -8 55t29 34q41 10 69 -31q9 -14 20 -48q7 -27 8 -47q1 -17 -2 -37q13 -2 37 -2q30 0 62 10q-20 27 -34 63q-22 52 -27 113q-5 54 5 90q11 39 46 59q-20 26 -25 56q-45 -6 -70 -2q-21 3 -35 15q-17 14 -24 37q-1 4 2 4q5 1 7 -4q10 -26 26 -35q11 -7 35 -9q8 -1 43 2 l15 3q-1 20 5 41q14 41 56.5 60.5t98.5 20.5h4q75 0 130 -29zM58 95q18 -12 37 -18q1 9 1 26q-3 41 -17 76q-6 14 -10.5 21.5t-12 14.5t-15.5 7q-25 0 -31 -31q-4 -23 9.5 -50.5t38.5 -45.5zM205 434q6 -15 16 -28q24 10 48 10q55 0 88 -33q10 21 -9 48q-13 16 -31 26 q-11 5 -20 8q-3 0 -4 1h-1q-1 0 -3 0.5t-3 0.5h-3h-2h-2q-29 0 -64 -5q-3 0 -8 -0.5t-8 -1.5q2 -13 6 -26zM339 365q-25 41 -67 41q-24 0 -44 -9q5 -6 17 -16q31 -22 66 -22q20 0 28 6zM204 130q12 -28 28 -50q28 12 50 30q38 32 59.5 79.5t19.5 100.5q-2 33 -16 63 q-14 -3 -36 -3q-42 2 -75 29l-14 14q-35 -22 -45 -65q-7 -42 -1 -91q8 -58 30 -107zM543 92q47 65 54.5 154t-31.5 185q-41 93 -116 130q-44 20 -95 20q-73 0 -113 -27q-45 -30 -44 -84q46 6 71 6q3 1 6 1q39 0 70 -16q21 -12 34.5 -30.5t12.5 -37.5t-19 -30q18 -31 20 -80 q0 -52 -25 -104q-41 -83 -127 -110q15 -18 28 -28q46 -38 110 -38q103 0 164 89z" />
<glyph unicode="P" horiz-adv-x="1012" d="M846 567q62 -39 99 -103t38 -124q0 -47 -22.5 -86.5t-60.5 -60.5q-80 -44 -200 -4q-6 -33 -15 -66q-49 -164 -196 -165h-7q-6 0 -9 1q-75 7 -132 58q-18 -2 -28 -2q-3 0 -6 1q-62 2 -103 43q-35 35 -48 96q-12 1 -50 7t-59 7q-21 0 -31 -6q-5 -3 -5 -10q-1 -6 2 -16 q1 -4 -2 -4q-5 -1 -7 4q-4 8 -4 19q2 22 43 22h8q21 -1 103 -13v2q-12 62 2 116q13 48 45 80.5t81 35.5h6q7 0 21 -2q5 8 17 22q46 48 122 51h7q68 -2 100 -51q31 -47 27 -120q-6 -79 -45 -143q-71 -118 -186 -137q59 -50 135 -52q76 1 122 63q44 59 64 179q2 16 12.5 109 t21.5 140q20 94 55 132q-66 26 -146 26q-64 0 -112 -17q-19 -6 -39 -15.5t-33 -17t-35.5 -21l-32.5 -19.5q-38 -22 -72 -32q-42 -13 -93 -13q-19 0 -32 9q-24 16 -22 39q2 25 28 25q7 0 7 -6q0 -4 -3 -4q-12 0 -18 -6q-4 -5 -4 -14q0 -8 4 -16q10 -10 14 -12q10 -6 23 -6 q56 0 103 18q22 8 44.5 20t50.5 28.5t42 24.5q37 21 76 32q43 11 95 13h5q90 0 162 -25q30 25 71 25q16 0 18 -5q1 -5 -14 -5q-29 0 -52 -23q34 -16 50 -26zM324 399l-1 -1q-1 -2 -2 -3q41 -10 63 -39q37 -50 6 -129q-22 -55 -89 -71q-9 -2 -23 -4q12 -76 63 -124 q53 10 104 56q67 61 93 147q24 82 3 150q-10 31 -31.5 55t-51.5 25q-3 0 -9.5 -0.5t-10.5 -0.5q-70 -7 -114 -61zM276 163h2q60 14 81 69q27 70 -1 116q-15 25 -43 36q-28 -42 -38 -104q-10 -59 -1 -117zM205 352q-64 -69 -41 -189h1q66 -8 102 -2q-1 2 -1 6q-10 67 4 133 q9 49 33 88q-4 1 -11 1q-52 0 -87 -37zM310 25q14 0 21 1l-3 3q-46 47 -60 121q-42 -4 -102 3q14 -62 51 -95q39 -33 93 -33zM922 245q30 43 28 103t-39 121q-46 74 -126 111q-11 -15 -17 -31q-22 -46 -33.5 -101.5t-19.5 -134t-13 -111.5q83 -32 139 -16q51 15 81 59z" />
<glyph unicode="Q" horiz-adv-x="726" d="M789 86q30 0 49 -20q19 -19 20.5 -44.5t-8.5 -39.5q-23 -49 -104 -53h-6q-88 1 -213 106q-6 4 -9 7q-47 -32 -111 -33h-2q-63 2 -105 20q-31 14 -52.5 38t-20.5 50t20 39.5t47 15.5h8q92 -1 216 -103q13 13 26 31q43 64 54.5 151.5t-11.5 178.5q-24 92 -78 149 q-63 66 -146 66q-15 0 -22 -1q-78 -5 -130 -53q-42 -41 -57 -111q-13 -63 3 -128q6 -22 11 -33l7 7q36 38 59 52q35 21 82 23h8q61 0 96 -26q31 -22 38 -55.5t-6 -55.5q-32 -70 -147 -70h-7h-7q-53 6 -94 57q-16 19 -31 50q-35 -33 -72 -42q-62 -13 -88 21q-13 17 -6 32 q7 16 33 16q5 0 6 -5q1 -4 -3 -4q-28 0 -28 -20q0 -18 22 -29q18 -8 47 -4q23 5 40 13q21 10 44 33q-12 31 -16 54q-14 68 2 133q19 70 68 110q53 43 139 46h5q113 -2 182 -77q58 -62 80 -161q22 -97 4 -191q-21 -114 -89 -171q86 -73 125 -94q42 -22 76 -22q45 0 73 17 q47 26 37 75q-3 18 -18 33q-16 13 -37 13q-5 0 -6 5q-1 4 3 4zM224 357q-8 -6 -52 -50q14 -33 38 -60q39 -44 92 -44q49 0 84 24q25 17 37 43.5t1 57.5q-9 30 -37 47t-60 17q-58 0 -103 -35zM403 19q54 0 100 36q-40 34 -64.5 52t-63 37t-70.5 19q-35 0 -55 -18 q-14 -13 -12.5 -35t19.5 -42q22 -23 55 -35q39 -14 91 -14z" />
<glyph unicode="R" horiz-adv-x="957" d="M762 614q86 -48 125.5 -130.5t22.5 -158.5q-20 -87 -125 -111q21 -37 21 -86q0 -13 -3 -38t-1.5 -45t10.5 -41q12 -27 37 -51t50 -24q44 1 63 59q1 2 4 2t5 -2t1 -4q-17 -54 -58 -63q-3 -1 -12 -1q-56 0 -96.5 47t-36.5 98q0 4 2.5 28.5t2.5 33.5t-2 27.5t-7 34.5 q-1 5 -9 20q-24 -2 -36 -2h-4q-30 2 -43 9q-15 7 -22 18q-6 10 -2 21q8 24 44 21q51 -5 82 -46q1 -2 4 -5q30 9 51 25q48 36 53 109t-35 142q-44 75 -131 117q-12 -24 -21 -56q-15 -57 -35.5 -181.5t-38.5 -185.5q-12 -44 -26 -76t-37 -66.5t-58.5 -53t-81.5 -18.5 q-15 1 -20 1q-36 3 -69 21q-28 15 -54 44q-1 3 -5 7q-13 -3 -30 -3h-7h-7q-55 7 -86 49q-28 38 -34 98q-3 31 0 61q-15 4 -33 4q-36 0 -53 -25q-21 -30 -2 -81q1 -4 -3.5 -4t-6.5 4q-9 29 -9 46q0 31 19.5 50t51.5 19q21 0 38 -4q4 30 8 44q17 59 47 93q30 35 70 39q3 1 9 1 q8 0 22 -2q8 13 16 21q18 22 39 34q-6 38 12 72q25 45 85 68q61 26 142 26h4q69 0 136 -22q20 22 50 22q15 0 17 -4q1 -2 -0.5 -3t-4.5 -1.5t-5 -0.5h-4l-1 -1l-4 -1q-3 -1 -9 -5q-10 -10 -14 -16q16 -6 38 -18zM280 445l-2 -4q32 -7 53 -29q52 -55 29 -147 q-24 -90 -105 -91q-4 0 -7 1q-9 0 -18 3q0 -3 2 -13q13 -58 41 -99q35 11 79 53q87 88 114 213q-29 9 -56 27q-59 39 -84 112q-2 6 -4 16q-23 -16 -42 -42zM376 508q-23 -3 -45 -16q1 -13 10 -34q27 -65 85 -100q24 -12 41 -18q1 5 3 13q5 17 3 43t-7.5 51t-25 43t-49.5 18 h-15zM252 184q27 0 53 32q41 56 26 133q-14 63 -60 81q-30 -48 -41 -115q-11 -62 -2 -127q11 -4 24 -4zM124 295q-4 -20 -5 -31q2 0 8 -2q26 -12 62 -48q15 -15 27 -21q0 -1 2 -1q-10 71 5 145q14 59 36 97q-4 1 -13 1h-11q-39 -5 -69 -46q-29 -37 -42 -94zM237 60q9 0 27 4 q-32 45 -45 118q-1 0 -2.5 1t-2.5 2q-10 5 -19 13t-20 18.5t-17 15.5q-15 14 -33 21q-3 1 -7 3q-5 -33 0 -70q8 -58 35 -89q33 -37 84 -37zM678 605q1 3 12 25q-60 23 -124 25q-90 0 -154 -30q-54 -26 -74 -68q-11 -24 -9 -53q25 12 50 13q3 1 8 1q77 0 104 -54 q21 -42 10 -116q0 -2 -1.5 -7.5t-2.5 -8.5q24 -4 51 -4q7 0 7 -6q0 -4 -3 -4q-27 0 -57 6q-13 -57 -44 -115q-72 -131 -171 -154q2 -2 6 -6.5t6 -6.5q48 -51 124 -51q79 0 130 93q17 30 30 62.5t24 79.5t15.5 68t14 84.5t11.5 72.5q19 108 37 154zM717 217q11 0 33 2 q-26 42 -62 48q-23 0 -29 -15q-4 -8 2 -16.5t18 -13.5t38 -5z" />
<glyph unicode="S" horiz-adv-x="627" d="M668 673q21 -7 17 -25q-3 -16 -29 -33q-28 -20 -73 -34q-16 -6 -23 -8q-3 -9 -7 -25q-12 -54 -15 -164.5t-12 -159.5q-18 -94 -73 -158t-148 -67q-4 0 -7 1h-11q-31 3 -68 21q34 -65 93 -90q33 -14 77 -14q6 0 7 -6q-1 -3 -3 -4q-10 0 -14 1q-51 2 -90 26q-51 29 -83 95 q-29 16 -54 44q-55 61 -71 146q-19 -5 -20 -6q-32 -11 -45 -37q-13 -27 0 -66q1 -4 -2 -4q-5 -1 -7 4q-16 45 2 76q20 35 70 43q-10 71 12 143q22 70 67 117q42 44 93 48h8q47 0 84 -22q22 -13 36 -32q46 34 84 55q21 12 63 32q29 104 120 107q4 0 7 -1q7 0 15 -3zM378 404 q-3 26 -15 53q-45 -36 -80 -75q-44 -49 -69 -100q-16 -34 -24 -75q4 -2 14 -6q45 -21 82 -21q38 -1 63 62q37 86 29 162zM97 354q-16 -61 -9 -124q25 2 44 -2q21 -4 47 -16q8 40 30 84q24 48 70 99q33 36 79 72q-10 18 -26 32q-34 29 -70 29q-58 0 -106 -58 q-40 -47 -59 -116zM169 66q14 -13 31 -25q-2 4 -4 10q-26 64 -21 131l3 21q-21 10 -44 15q-20 5 -44 2q1 -3 1 -8q17 -85 78 -146zM467 138q15 33 24 77t11 76.5t4 87t4 81.5q4 61 13 97q-13 -6 -57 -29q-42 -26 -81 -54q37 -55 21 -146q-15 -88 -49 -129q-24 -29 -67 -29 q-6 0 -10 1q-37 3 -76 21q-3 1 -8.5 3.5t-7.5 3.5q-2 -11 -4 -33q-2 -68 29 -132q41 -25 88 -25q57 1 99.5 38.5t66.5 90.5zM675 657q0 4 -6 7t-20 3q-59 -1 -85 -82q2 1 8.5 3.5t10.5 3.5q46 16 71 35q12 10 17 17q5 9 4 13z" />
<glyph unicode="T" horiz-adv-x="664" d="M972 639q21 -9 29 -23q7 -15 -1 -28q-8 -12 -31 -22q-19 -7 -54 -9h-6q-34 0 -71 3.5t-90 11t-72 9.5q-3 0 -7 -2q-6 -3 -16 -11q-16 -15 -30 -43q-32 -67 -48 -213t-34 -202q-59 -175 -213 -176l-25 1q-41 5 -78 27q-12 7 -23 17q-8 -1 -25 -1h-6h-10q-59 7 -99 48 q-39 39 -53 99q-15 59 -4 114q11 58 46 93q37 39 97 39q11 0 16 -1q3 4 6 8.5t6.5 10t5.5 8.5q43 52 101 57h9q72 0 104 -55q27 -47 25 -121q-3 -74 -31 -139q-59 -138 -178 -158q16 -13 29 -19q34 -17 83 -19q81 1 136 72q38 50 55.5 119t27 163t19.5 139q19 86 50 124 q13 16 32 25q-168 17 -264 17q-60 0 -104 -8q-42 -7 -66 -21q7 -1 23 -5q26 -8 38 -22q14 -14 12 -34q-4 -35 -61 -35q-6 0 -10 1q-20 2 -36 15q-13 13 -15 29q-3 26 20 45h-1h-2h-2h-1h-3q-45 2 -76 -16q-32 -21 -21 -54q1 -5 -3.5 -5t-6.5 5q-14 41 19.5 60t80.5 20h4 q8 0 24 -2q10 6 14 9q57 28 167 28h2q113 0 291 -20q1 0 4 -0.5t5 -0.5q5 0 8 -1q19 -2 56 -6.5t55 -6.5q81 -11 111 -11q39 2 60 10q19 9 26 20q2 6 2 10t-3 10q-2 3 -10 9q-10 6 -16 8q-21 7 -53 7q-6 0 -6 6q0 4 3 4q37 0 63 -11zM209 562q-3 1 -7 2t-5 1q-5 -3 -17 -15 q-10 -14 -9 -29q0 -10 8 -20q13 -13 40 -15h1v1h2h4q2 1 3 1q8 4 12 7q10 8 10 23t-13 29q-8 8 -29 15zM181 375q-2 -2 -4 -6q30 -5 51 -21q48 -35 42 -103q-4 -25 -17 -44t-37 -19q-5 0 -6 5q-1 4 3 4q21 0 34 21q26 42 5 93q-12 26 -34 40q-23 14 -46 15q-29 -51 -40 -117 q-12 -76 3 -139q16 -57 51 -98q5 -6 15 -16q54 11 98 58q90 96 90 239q0 20 -3.5 43.5t-13 51t-29.5 45.5t-48 18q-3 0 -8 -0.5t-7 -0.5q-58 -8 -99 -69zM174 -13q3 0 9 0.5t9 0.5q-11 11 -20 23q-37 47 -49 106q-14 66 2 147q11 56 34 98h-8q-9 0 -14 -1q-53 -4 -86 -46 q-30 -35 -38 -93q-8 -54 8 -108q19 -59 55 -90q40 -37 98 -37z" />
<glyph unicode="U" horiz-adv-x="892" d="M789 573q3 -3 5 -13q1 -9 -1 -40q-6 -56 -32 -160q-26 -96 -42 -142h1q6 -117 38 -184q13 -26 33 -51.5t42 -30.5q9 -1 11 4.5t-4 16.5q-2 5 3 5q4 0 6 -5q3 -6 3 -12q0 -21 -29 -17q-30 3 -55.5 30t-40.5 60q-24 48 -33 117q-1 -1 -6 -14q-45 -93 -96 -148 q-25 -27 -44 -38q-13 -9 -22 -11q-1 -2 -18 -2q-77 4 -44 179q3 15 13 66t14 75t8.5 64.5t5.5 74.5q1 27 -0.5 53t-9 61.5t-21 61.5t-40.5 45t-63 19q-11 0 -17 -1q-65 -6 -106 -53q-37 -43 -50 -110q-7 -38 -4 -85q5 1 16 1q36 4 66 1q2 30 8 50q11 41 36 67t57 29h5l2 1 q38 -1 56 -41q15 -34 19 -87q3 -52 -8 -102q-25 -117 -118 -118q-61 0 -102 57q-33 43 -44 114q-2 12 -2 18l-36 -3q-34 -2 -52 -2q-24 0 -42 5q-21 7 -33 18q-12 12 -22 36q-2 4 3.5 4t6.5 -4q2 -8 9 -20q20 -29 73 -29q30 -1 92 5q-4 52 7 104q18 70 59 109q44 42 111 45 h7q98 0 139 -74q30 -57 30 -159q0 -72 -16 -172q-8 -44 -25 -119q-7 -42 -9 -86q0 -85 25 -89q2 0 4 1q13 3 35 18q20 15 44 43q53 65 92 153q1 2 2 5.5t2 5.5q-2 22 -4 66q-3 87 13 176q14 73 35 124q0 1 3 7l4 8t3.5 7.5t5 8t6 5.5t7 4.5t8.5 1.5q11 0 17 -8zM285 379 q0 -19 4 -35q6 -34 29 -47q26 -14 38 5t-6 44q-18 27 -65 33zM210 380q-2 0 -7.5 -0.5t-8.5 -0.5q1 -9 5 -32q11 -63 45 -105q17 -20 38 -32q22 -11 48 -11q36 0 64 43q41 67 33 173q-4 45 -17 76q-5 16 -14 26q-1 1 -4 3.5t-5 4.5l-2 2q-6 0 -14 -2q-31 -6 -54 -40 q-20 -28 -28 -69q-3 -14 -3 -27q25 -5 42 -14q36 -19 41 -52q6 -30 -16 -39q-11 -5 -26.5 0t-25.5 16q-21 22 -25 62q0 3 -0.5 9t-0.5 9q-22 2 -65 0zM783 528q4 31 0 39q-5 -6 -8 -13q-11 -22 -18 -43q-42 -120 -39 -263q19 61 37 133q23 100 28 147z" />
<glyph unicode="V" horiz-adv-x="806" d="M907 549q11 -5 16 -14q7 -13 -2 -24t-24 -11q-6 0 -6 6q0 4 3 4t8 1.5t9.5 6.5t4.5 12t-13 13t-33 3q-14 -2 -33 -12q-30 -16 -48 -29q-66 -47 -109 -113q-26 -39 -45 -88q-13 -35 -33 -111q-23 -97 -29 -174q-3 -30 -3 -62q4 -2 4 -4q0 -3 -18 -3q-51 2 -60 95 q-3 24 -3 52.5t0.5 45t3 52.5t3.5 46q7 108 4 176q-12 206 -132 208q-12 0 -18 -1q-64 -6 -105 -53q-37 -43 -50 -110q-8 -42 -5 -85q3 0 8.5 1t7.5 1q43 2 66 0q1 24 8 50q14 44 37 67q25 26 56 29q3 1 7 1q39 -1 56 -41q15 -34 19 -87q3 -56 -7 -102q-25 -117 -119 -118 q-4 0 -8 1h-5q-51 6 -89 56q-33 46 -44 114q-1 3 -1 9t-1 9q-24 -2 -35 -2q-26 -3 -52 -3q-24 0 -43 5q-22 8 -32 18q-15 15 -22 36q-2 4 2 4q5 1 7 -4q3 -10 10 -20q19 -29 72 -29q32 -1 92 5q-4 54 8 104q16 68 59 109q42 42 111 45h6q80 0 120 -51q33 -43 44 -130 q8 -66 2 -174q-1 -21 -4 -61t-4.5 -73t-0.5 -63q2 -50 11 -82q2 -10 9.5 -25t14.5 -16q0 16 1 24q0 20 4 58q11 97 36 189q21 74 36 106q19 43 49 83q47 63 110 104q26 17 46 25q35 13 65 1zM286 367q0 -17 3 -35q9 -36 29 -47q27 -15 38 5q13 20 -5 44q-18 27 -65 33z M211 368q-3 0 -8.5 -0.5t-8.5 -0.5q1 -9 5 -32q14 -67 46 -105q18 -21 38 -32q21 -11 47 -11q37 0 64 44q42 64 33 172q-4 45 -16 76q-8 18 -14 26q-1 1 -5 3.5t-5 4.5l-2 2q-6 0 -14 -2q-31 -7 -53 -39q-22 -33 -28 -70q-2 -9 -4 -27q25 -5 42 -14q35 -18 42 -51 q5 -30 -17 -40q-11 -5 -26.5 0t-25.5 16q-20 21 -24 62q-1 6 -1 18q-22 2 -65 0z" />
<glyph unicode="W" horiz-adv-x="932" d="M1078 557q14 -2 21 -10q8 -10 -1 -21q-2 -4 -7 0q-3 4 -2 7q5 5 3 10q-2 2 -8 4q-13 3 -37 1q-10 -2 -28 -8q-28 -13 -52 -35q-47 -41 -91 -125q-40 -79 -65 -162q-24 -81 -34 -156q-4 -40 -3 -62q0 -26 6 -44l1 -2q1 -4 -18 -4q-42 2 -55 64q-4 19 -7 38t-3 42v36 t2.5 40.5t3.5 35t5.5 39t4.5 34.5q12 76 14 115q2 26 1 40q-1 4 -3 14q-28 -26 -55 -76q-53 -95 -84 -223q-15 -58 -19 -111q-4 -51 7 -82q0 -2 1 -2q0 -4 -19 -4q-17 1 -29 10.5t-18 28t-8.5 29t-4.5 28.5q-2 20 -3 39.5t0 42.5t1.5 36t3 41.5t3.5 37.5q7 109 3 177 q-12 207 -133 209q-2 0 -8 -0.5t-9 -0.5q-64 -6 -106 -54q-37 -43 -50 -110q-8 -42 -5 -85q2 0 8 0.5t8 0.5q49 2 67 0q0 25 8 51q11 41 36 67t57 29q3 1 7 1q39 -1 56 -41q15 -31 19 -88q3 -56 -7 -102q-25 -117 -119 -118q-5 0 -8 1h-5q-52 6 -90 56q-33 45 -44 115 q-1 3 -1 9t-1 9q-24 -2 -35 -3q-44 -2 -53 -2q-24 0 -42 5t-33 18q-15 14 -22 36q-1 4 2 4q5 1 7 -4q6 -14 10 -20q19 -28 73 -30q17 0 92 5q-4 54 8 105q16 69 59 110q45 42 111 45h7q81 0 121 -52q33 -43 44 -130q8 -66 2 -175q-1 -18 -4.5 -60.5t-5 -74.5t-0.5 -63 q2 -50 11 -82q14 -41 25 -41l2 -1q-11 36 -5 94q5 48 21 114q17 63 39 119q23 58 49 104q27 47 52 68h1q5 3 15 3q6 0 10.5 -2t7 -5.5t4.5 -6t2.5 -8.5t0.5 -8.5v-9v-7.5q-1 -43 -12 -119t-13 -95q-9 -91 -2 -154q6 -40 13 -59q12 -27 21 -27q0 -1 2 -1q0 1 -1 3.5t-1 3.5 q-4 17 -4 51q0 25 6 69q13 85 41 167q29 90 73 164q47 80 99 115q29 20 57 25q18 3 38 0zM286 370q0 -20 4 -36q7 -35 29 -47q26 -14 38 5q11 19 -5 45q-21 27 -66 33zM211 370q-11 0 -17 -1q1 -5 2.5 -16t2.5 -16q14 -67 46 -105q15 -20 38 -32q22 -11 48 -11q37 0 64 43 q42 65 33 173q-4 45 -16 77q-8 18 -14 26q-1 2 -4.5 5t-5.5 4l-1 1h-1q-6 0 -14 -2q-30 -6 -54 -39q-20 -30 -28 -71q-3 -12 -3 -27q22 -3 42 -13q36 -20 42 -52q4 -31 -17 -40q-10 -4 -25.5 1t-26.5 16q-21 21 -25 61q-1 6 -1 19q-28 3 -65 -1z" />
<glyph unicode="X" horiz-adv-x="724" d="M747 581q16 -5 22 -19q6 -13 -4 -29q-2 -2 -4.5 -1t-4 3.5t-0.5 4.5q5 7 5 15q0 2 -1 3v1v2l-1 1q0 1 -1 1v1l-1 1l-2 2l-1 1l-1 1h-1l-1 1l-3 2h-1h-2q-1 0 -1 0.5t-1 0.5h-1h-6l-6 -3q-6 -2 -16 -10q-22 -17 -40 -44q-15 -20 -28.5 -45.5t-22 -43t-21 -52t-16.5 -47 t-17 -55t-15 -49.5q3 -27 9 -58q26 -120 77 -177q20 -21 43 -33q16 -8 24 -8q13 0 18.5 4t4.5 14q-1 12 -11 17.5t-18 5.5q-5 0 -7 5q-1 4 3 4q15 0 26 -7q21 -13 17 -33q-2 -20 -28 -20q-53 2 -92 39q-53 51 -80 155q-3 10 -7 28q-11 -32 -23 -60q-15 -35 -27.5 -57.5 t-33.5 -49.5t-50 -41t-65 -14h-3q-24 0 -39 7q-27 13 -19 34q9 19 31 19q5 0 6 -5q1 -4 -3 -4q-24 0 -24 -16q0 -6 0.5 -9t12 -9.5t35.5 -6.5q50 0 96 59q50 67 96 215q-6 42 -10 124q-7 127 -27 184q-36 104 -115 106q-12 0 -18 -1q-64 -6 -105 -53q-37 -43 -50 -109 q-8 -43 -5 -85q3 0 8.5 0.5t8.5 0.5q47 2 65 0q2 28 9 50q11 40 36 68q25 25 56 28q3 1 8 1q38 -1 56 -40q16 -37 18 -88q4 -50 -7 -102q-25 -116 -118 -117h-8h-6q-52 8 -89 57q-33 44 -44 114l-2 17q-11 0 -35 -2q-26 -3 -52 -3q-28 2 -42 6q-18 4 -33 18q-15 13 -22 35 q-1 4 2 4q5 1 7 -4q8 -16 10 -19q20 -30 73 -30q11 0 91 5q-3 59 8 104q17 69 59 109q45 44 111 45q3 1 7 1q56 -2 89 -26t51 -68q27 -60 35 -183q2 -44 4 -66q26 84 44 124q36 81 78 124q31 31 62 31q9 2 16 -1zM285 378q0 -17 3 -35q9 -36 29 -47q27 -14 39 5q10 21 -6 45 q-18 26 -65 32zM210 379q-2 0 -8 -0.5t-8 -0.5q2 -22 4 -32q14 -67 46 -105q18 -22 38 -31q21 -12 47 -12q39 1 65 44q41 65 32 172q-4 45 -16 76q-4 13 -14 26l-9 9q-1 0 -3 1q-9 0 -14 -2q-31 -7 -53 -39q-20 -29 -28 -70q-2 -9 -4 -27q21 -3 42 -14q36 -18 42 -51 q5 -29 -17 -40q-10 -4 -25.5 1t-26.5 16q-20 21 -24 61q-1 6 -1 19q-15 1 -65 -1z" />
<glyph unicode="Y" horiz-adv-x="847" d="M851 568v-1q19 -13 15 -59q-8 -58 -49 -132q-24 -46 -63 -99q0 -3 -1 -9t-1 -9q-8 -137 -28 -199q38 4 58 8q15 3 26 6.5t25 11t16 18.5t-1 28q-1 4 4 4t6 -4q10 -34 -13 -52q-20 -15 -60 -22q-28 -5 -65 -7q-51 -148 -159 -149q-6 0 -10 1q-22 2 -41 15q-43 31 -43 74 q1 25 17.5 39.5t42.5 18.5q32 6 85 6q13 0 39.5 1t39.5 2q13 40 20 79q5 32 9 98q-6 -8 -10 -12q-54 -61 -102 -93q-39 -26 -71 -29q-3 -1 -8 -1q-28 3 -37 12q-10 10 -12 36q-2 24 11 135q1 11 4.5 39t4.5 43t3 38.5t1.5 44.5t-2.5 42q-4 37 -15.5 74.5t-42.5 72.5t-73 35 q-3 0 -9 -0.5t-8 -0.5q-64 -6 -106 -54q-37 -41 -50 -109q-8 -42 -5 -85q6 1 17 1q49 2 66 1q0 24 8 50q11 41 36 67t56 29h8q38 0 56 -40q16 -36 18 -87q4 -51 -7 -102q-25 -117 -118 -118q-5 0 -8 1h-6q-51 6 -88 56q-35 47 -44 114q-2 12 -2 18l-36 -3q-34 -2 -52 -2 q-24 0 -42 5q-21 7 -33 18q-15 14 -22 36q-1 4 2 4q5 1 7 -4q4 -10 10 -20q20 -29 73 -29q30 -1 92 5q-5 56 7 104q16 68 59 109q44 42 111 45h7q64 0 103 -39q42 -40 56 -113q14 -67 2 -190q-17 -151 -17 -165q-2 -30 3 -46q1 -6 6 -14q4 -4 6 -4q16 0 36 9q25 10 47 26 q49 35 101 96q2 2 5.5 6.5t5.5 6.5q4 70 8 105q15 102 41 160q23 51 63 52q16 0 17 -4zM285 415q0 -19 4 -36q7 -34 28 -46q27 -14 39 5q11 21 -6 44q-19 27 -65 33zM210 416q-5 -1 -16 -1q2 -22 4 -32q13 -65 46 -105q18 -21 38 -32q22 -11 47 -11q38 0 65 43q41 66 32 173 q-4 48 -16 76q-5 16 -14 26l-4 4t-5 4l-1 1q-2 0 -2 1q-4 0 -14 -2q-32 -8 -53 -40q-20 -29 -28 -70q-3 -12 -3 -27q22 -3 42 -13q37 -21 41 -52q6 -30 -16 -39q-11 -5 -26.5 0t-25.5 16q-21 21 -25 61q-1 7 -1 19q-22 2 -65 0zM654 -18q19 29 33 67q-13 -1 -38.5 -1.5 t-38.5 -0.5q-52 -2 -77 -6q-32 -5 -46 -23q-22 -27 2 -67q26 -40 69 -40q49 1 96 71zM856 513q2 24 -2 38q-4 11 -15 12q0 -2 -5 -2l-4 -4t-5 -4q-6 -6 -16 -22q-16 -27 -26 -69q-20 -68 -28 -164q31 44 57 90q37 75 44 125z" />
<glyph unicode="Z" horiz-adv-x="581" d="M568 338q-15 -68 -58 -114t-109 -61l3 -3q29 -29 47 -72q74 13 119 58q32 32 46 81q1 2 3.5 2t4.5 -2.5t2 -4.5q-2 -6 -2 -8q-17 -50 -52 -82q-47 -42 -118 -53q17 -49 13 -89q-4 -50 -39.5 -76t-91.5 -26h-6q-12 0 -18 1q-90 8 -102 61q-5 23 8 48q13 26 40 45 q29 21 66 32q28 6 42 7q9 1 26.5 1.5t26.5 0.5h1v1q-1 1 -1 2q-18 42 -44 70l-1 1q-22 -2 -35 -2t-27 4q-11 4 -18.5 10t-6.5 14q2 13 34 13q37 0 69 -24q58 15 95 60q43 50 55.5 123t-7.5 152q-17 66 -61.5 122t-107.5 57q-3 0 -8.5 -0.5t-8.5 -0.5q-62 -6 -106 -53 q-41 -46 -57 -110q-17 -60 -8 -127q0 -2 1 -6t1 -6q28 5 46 21q20 18 41 73q1 3 7 20t8.5 22t9 19t11.5 20t13.5 14.5t19 12.5t22.5 5h8q39 -1 62 -41q51 -87 30 -193q-10 -55 -46.5 -86.5t-97.5 -32.5q-4 0 -7 1h-8q-28 3 -53 18q-20 12 -40 38q-24 33 -34 79 q-34 -2 -71 17q-73 38 -98 111q-2 4 2 4q5 1 7 -4q13 -37 45.5 -69t71.5 -44q17 -6 41 -6q0 1 -1.5 11t-1.5 15q-7 69 13 133q21 68 65 109q45 42 111 45h7q85 0 142 -65q37 -42 55.5 -97.5t18 -103t-8.5 -92.5zM216 385q-15 -8 -36 -10q10 -50 38 -84q36 -43 91 -43 q56 0 88 44q48 63 27 175q-9 46 -27 78q-10 18 -19 27q-2 2 -10 8q-1 1 -3 1q-44 -1 -66 -48q-8 -14 -18.5 -43t-14.5 -39q-21 -50 -50 -66zM417 -65q36 52 7 140l-1 -1h-2q-6 0 -23.5 -0.5t-27.5 -1.5q-24 -2 -41 -7q-38 -11 -65 -31q-26 -21 -38 -43q-12 -26 -6 -45 q15 -49 113 -49q55 0 84 38zM364 167q-21 18 -40 21q-22 5 -26 -5q-2 -6 9 -12q9 -5 18.5 -6.5t15.5 -1t15 2.5z" />
<glyph unicode="[" horiz-adv-x="468" d="M40 8q86 162 258 488q2 4 16 4h99q15 0 15 -6t-15 -6h-82h-3l-20 -37q-14 -26 -29 -55t-33.5 -63.5t-28.5 -54.5l-140 -266h83q15 0 15 -6t-15 -6h-104q-2 0 -4.5 0.5t-6 1t-5 2.5t-0.5 4z" />
<glyph unicode="\" horiz-adv-x="407" d="M60 625q23 -14 68.5 -114.5t94 -226t53.5 -136.5q1 -3 12 -29.5t19.5 -44.5t21.5 -36.5t24 -20.5q12 -2 13.5 -6t-4.5 -6.5t-12 -1.5q-25 6 -50.5 41t-40 70t-33.5 87.5t-23 62.5q-8 19 -46 114.5t-68.5 162t-45.5 75.5q-10 7 4 10q7 2 13 -1z" />
<glyph unicode="]" horiz-adv-x="468" d="M428 492q-86 -162 -258 -488q-2 -4 -16 -4h-99q-15 0 -15 6t15 6h82h3l20 37q14 26 29 55t33.5 63.5t28.5 54.5l140 266h-83q-15 0 -15 6t15 6h104q2 0 4.5 -0.5t6 -1t5 -2.5t0.5 -4z" />
<glyph unicode="_" horiz-adv-x="243" d="M44 2q-12 -1 3 16q9 10 15 11q30 3 69 1t67 1q5 1 5 -3q0 -10 -15 -20q-4 -3 -7 -3q-29 -3 -68 -2t-69 -1z" />
<glyph unicode="`" horiz-adv-x="51" d="M0 694q-1 6 10 6q18 -2 25 -14q16 -29 16 -31q-4 -7 -27 16q-4 4 -8.5 8t-7.5 7t-5.5 5t-2.5 3z" />
<glyph unicode="a" d="M211 227q1 4 6 1q4 -3 3 -6q-2 -12 -4 -20q-14 -58 -24 -86q-6 -18 -15 -37q-8 -13 -14 -15h-1q-2 -1 -3 -1h-12q-14 2 -18 8q-1 1 -4 13q-3 28 1 65q-5 -17 -10 -28q-22 -53 -61 -60q-4 -1 -11 -1q-40 0 -57 24q-12 15 -14 46q0 28 10 55q24 64 82 64q6 0 10 -1h1h1 q18 -3 31 -15q12 -9 20 -23v6v3q0 20 -6 24q-4 3 5 5l4 1q13 3 20 -3q9 -7 9 -28q1 -20 0.5 -30t-2 -30t-1.5 -30q-2 -26 -1 -40q0 -1 1 -5.5t2 -7.5v-1q2 2 3 4t9 14q14 30 27 83q6 20 13 52zM86 92q27 31 38 95q0 1 1 4t1 5q-9 19 -22 31q-16 13 -36 13h-2q-2 -1 -3 -1 q-2 -1 -11 -5q-7 -4 -17 -16q-32 -36 -30 -91q2 -27 12 -41q5 -8 13 -13q6 -3 7 -3l2 -1v0h1h-1h1q27 0 46 23zM39 69z" />
<glyph unicode="b" horiz-adv-x="214" d="M166 556q46 -4 57 -37q5 -15 1 -34q-2 -15 -12 -41q-16 -37 -53 -91q-31 -43 -71 -84q-26 -27 -51 -47q0 -32 3 -64q5 25 7 34q18 53 46 60q3 2 12 2q36 0 49 -24q10 -17 10 -47q0 -3 -0.5 -9t-0.5 -9q3 2 8.5 5.5t7.5 5.5q27 22 45 51q2 2 4.5 1.5t4 -3t0.5 -4.5 q-17 -29 -45 -52l-27 -18q-1 -4 -3 -11.5t-3 -11.5q-17 -62 -60 -63q-5 0 -9 1q-20 2 -25 16q-6 13 8 29q15 17 46 32q2 1 6.5 2.5t6.5 2.5q4 16 4 38q0 26 -8 42q-4 8 -10 13l-6 3q-21 0 -35 -22q-21 -32 -27 -98q0 -2 -1 -7.5t-1 -8.5q4 -30 9 -43q1 -3 -5 -4 q-18 -3 -26 4q-10 25 -14 88q-12 152 14 262q33 140 132 141h6h6zM97 80q8 8 12 16q12 21 16 39q-28 -13 -42 -26q-16 -16 -13 -26q0 -3 5 -5q4 -3 14 -3h1q1 1 3.5 2.5t3.5 2.5zM215 491q2 17 -2 31q-5 12 -17 18q-15 7 -38 7q-45 -1 -78 -60q-44 -81 -44 -242v-9 q18 15 50 47q32 33 68 83q33 48 50 87q8 20 11 38z" />
<glyph unicode="c" horiz-adv-x="142" d="M152 226q1 6 7 1q4 -2 3 -5q-8 -40 -22 -71q-20 -46 -47 -67q-19 -15 -36 -15q-38 0 -56 23q-14 18 -18 48q-3 26 4 55q15 63 71 64q11 0 18 -5q15 -12 21 -31q2 -3 -3 -5q-4 0 -6 5q-13 26 -22 26q-19 0 -33 -21q-26 -39 -18 -92q4 -25 15 -41q14 -17 24 -17q3 0 6 1 l9 3q21 11 42 39q27 40 41 105z" />
<glyph unicode="d" horiz-adv-x="190" d="M309 546q6 -12 2 -36q-4 -20 -18 -49q-10 -23 -32 -59q-10 -17 -83 -129q-24 -38 -55 -93q0 -18 3 -36q2 -21 11 -37q0 -1 8 -11q3 -3 5 -3h2q15 6 25 27q19 38 25 106q0 6 6 1l4 -5q-6 -52 -13 -76q-12 -41 -31 -56q-2 -2 -4 -3q0 -4 -14 -4q-43 1 -53 48 q-22 -39 -24 -41q-7 -7 -12 -9q-1 -3 -14 -3q-34 0 -49 23q-12 19 -12 45q-2 28 6 54q19 62 70 63q19 0 35 -14q0 6 1 9q10 74 35 145q24 73 58 117q34 45 77 45q28 0 41 -19zM70 106q9 14 23 44q-4 36 2 88q-12 17 -28.5 14t-26.5 -20q-27 -36 -22 -88q0 -23 10 -41 q7 -10 11 -12q2 -2 6 -4q3 0 5 1q10 2 20 18zM299 547q-13 12 -29 8t-30 -17q-18 -17 -33 -43q-58 -95 -78 -241q-4 -31 -5 -50q21 37 52 87q64 98 80 124q24 42 30 56q14 35 16 46q3 23 -3 30z" />
<glyph unicode="e" horiz-adv-x="159" d="M170 224q2 5 7 0q3 -2 1 -5q-6 -12 -20 -36q-28 -48 -54 -76q-33 -31 -51 -34q-3 -2 -13 -2q-39 2 -50 31q-16 34 -5 78q10 34 34 56.5t58 22.5q9 0 14 -2q19 -8 23 -24q8 -31 -39 -46q-27 -10 -59 -12q-8 -30 1 -60q4 -16 11 -26q6 -6 9 -7l2 -1q1 0 1 -1q18 1 33 13 q28 20 56 64q18 27 41 67zM63 243q-7 -3 -19 -15q-18 -19 -25 -44l15 3q39 6 61 21q12 10 10 21q-3 20 -27 20q-2 -1 -4 -1t-11 -5z" />
<glyph unicode="f" horiz-adv-x="123" d="M154 565q17 3 33 -3t24 -22q10 -19 6 -47q-7 -35 -34 -85q-19 -36 -59 -91q-16 -23 -47.5 -61.5t-41.5 -52.5q-2 -7 -4 -25q0 -2 -6 -56q38 11 56 23q48 32 58 95q1 6 6 3q4 -2 3 -6q-9 -75 -78 -110q-22 -9 -40 -13l1 -1q26 -38 45 -80q20 -48 20 -73q2 -20 -9 -31v-1 q0 -6 -18 -6q-19 -2 -33.5 6t-22 24.5t-11 30t-5.5 31.5q-7 41 -5 92q-3 -1 -8 -1q-15 -2 -23 7q-10 10 -8 20q2 11 12 17.5t22 2.5q6 -2 8 -3q7 76 40 202q25 89 39 127q13 35 29 56t47 30h3zM-33 119q5 -9 26 -4q0 10 2 24q-8 5 -16 5q-9 0 -14 -9t2 -16zM57 50 q-17 34 -33 56q0 -60 3 -80q11 -94 45 -95q17 5 14 43q-7 33 -29 76zM206 495q4 20 0 36q-5 15 -18.5 21.5t-28.5 3.5q-9 -3 -17.5 -10t-13 -12.5t-10.5 -18.5t-8 -17.5t-7 -21t-5 -17.5q-42 -122 -60 -236q4 4 10.5 12.5t9.5 12.5q75 93 116 165q24 43 32 82z" />
<glyph unicode="g" horiz-adv-x="201" d="M211 226q0 6 6 1l4 -6q-1 -2 -1 -5.5t-1 -4.5q-10 -68 -61 -121l-6 -6q-12 -73 -37 -132q-57 -136 -169 -137q-3 0 -6 1h-4q-43 4 -63 37q-21 35 2 75q25 46 106 86q32 14 49 21q9 4 27.5 10t26.5 9q17 6 33 17q4 19 5 31q1 6 2.5 18.5t2.5 18.5q-5 -17 -12 -30 q-14 -20 -30 -30q-14 -7 -17 -8q-3 -2 -14 -2q-29 0 -46 21q-29 37 -21 93q4 30 23.5 49t52.5 19q13 0 16 -3q1 0 3 -1t3 -1q25 -12 42 -41q1 4 2 11.5t1 11.5q-2 17 -7 22q-2 2 3 3l8 2q1 1 4 0q10 2 15 -3q4 -2 7 -19q3 -20 1 -43q0 -31 -6 -87q0 1 1 1l1 2q26 29 40 66 q11 27 14 54zM83 91q16 12 28 34q6 13 13 58q0 5 1 7q-8 19 -24 35t-35 17q-9 0 -22 -11q-9 -6 -15 -17q-21 -35 -8 -84q5 -21 16 -37q5 -6 11 -11l6 -3q15 1 29 12zM42 -118q49 62 72 174q-20 -10 -31 -14q-77 -27 -100 -39q-76 -38 -100 -84q-21 -37 1 -68q8 -13 24 -19 q17 -7 35 -7q56 0 99 57z" />
<glyph unicode="h" horiz-adv-x="216" d="M171 537q19 0 33 -9q13 -9 18 -24q8 -27 -9 -67q-13 -35 -46 -83q-31 -47 -67 -84q-33 -36 -67 -62q2 -60 8 -104q1 -2 4 -18.5t6 -24.5q0 3 0.5 9t0.5 8q7 59 24 99q24 53 63 60q3 1 11 1q29 0 33 -20q2 -11 0 -39q-1 -8 -3.5 -23.5t-3.5 -23.5q-4 -26 -2 -42 q2 -10 5 -13l1 -2q7 2 13 14q10 16 21 67q0 3 4.5 29.5t7.5 40.5q1 6 7 1q4 -3 3 -6q-3 -13 -7 -39q-8 -50 -17 -78q-10 -28 -19 -35q1 -2 -0.5 -3t-4.5 -1.5t-5 -0.5h-4q-31 2 -35 21q-3 11 -1 38q1 8 3.5 24t3.5 24q4 26 3 41q-3 13 -4 14l-2 2q-22 -3 -40 -22 q-26 -29 -39 -95q-4 -21 -6 -42q-1 -5 -1 -13v-4l-1 -2q0 -1 -3 -2l-3 -2q-14 -2 -22 2q-6 3 -10 9t-6.5 15t-4 16t-2.5 16t-1 10q-20 140 10 267q37 155 148 156h5zM214 479q2 15 -2 26q-3 12 -13 16q-11 7 -29 7q-53 -1 -89 -64q-48 -86 -48 -242q31 24 65 62t63 81 q31 46 43 80q7 15 10 34z" />
<glyph unicode="i" horiz-adv-x="77" d="M87 226q1 6 7 1q4 -3 3 -6q-1 -6 -3 -20q-8 -46 -21 -85q-8 -26 -15 -37q-10 -17 -25 -17q-29 2 -35 20q-4 13 -2 37q1 23 6 46q4 28 5 42l1 7q0 8 -1 8q-2 6 -3 7q-4 3 5 5l4 1q16 0 20 -3q6 -5 6 -26q-1 -15 -5.5 -42.5t-5.5 -39.5q-2 -25 0 -38q3 -13 7 -13t8 4 q5 5 9 15q11 21 26 83q1 6 3 16t3.5 18.5t2.5 16.5zM54 268q-2 -10 -9.5 -14t-16.5 0q-21 11 -16 34q2 10 9.5 13.5t16.5 -0.5t13.5 -13.5t2.5 -19.5z" />
<glyph unicode="j" horiz-adv-x="90" d="M100 226q1 6 7 1q4 -2 3 -5q-1 -7 -5 -19q-18 -66 -71 -119q-9 -77 -33 -146q-48 -137 -155 -138h-7q-2 1 -6.5 1.5t-6.5 0.5q-36 7 -60 35q-23 27 -21 58q0 34 28 54q6 5 41 22q77 33 105 47q43 22 81 51q0 6 2 20q6 51 5 100q0 41 -4 45q-2 2 3 4q18 6 26 -1 q5 -5 5 -19q2 -14 2 -42q0 -41 -4 -74q50 53 65 124zM-67 -133q46 65 64 187q-33 -25 -73 -46q-13 -6 -103 -46q-15 -7 -24.5 -12t-20.5 -13.5t-16 -20t-5 -26.5q0 -32 23 -55q24 -24 64 -26q50 1 91 58zM53 272q-2 -10 -10 -13.5t-16 0.5q-21 10 -17 34q2 10 10 13.5 t17 -0.5q20 -11 16 -34z" />
<glyph unicode="k" horiz-adv-x="189" d="M162 544q23 -2 35 -13q10 -11 12 -28q1 -16 -6 -36q-8 -23 -19 -43q-23 -42 -61 -94q-35 -46 -66 -83q-16 -18 -24 -28q-3 -39 -3 -77q8 28 13 41q21 52 56 59q3 1 11 1q21 0 32 -4q10 -2 17 -9q9 -10 3 -24q-4 -13 -18 -26q-31 -33 -79 -33h-7q2 -24 11 -42 q7 -15 18 -25q13 -12 34 -12q30 -1 48 34q18 33 26 124q1 6 7 1q4 -3 3 -6q-4 -46 -8 -68q-9 -47 -27 -71q-25 -33 -63 -21q-28 7 -43 34.5t-16 55.5v0q-1 2 0.5 3t4.5 1.5t5 0.5h4h1q2 0 2 1q0 -1 -1 -1h1q2 1 5 1h1q1 1 2 1l9 3q1 1 2 1l1 1q1 1 2.5 1t2.5 1q33 19 41 44 q2 6 1 10q0 4 -1 5l-1 2l-1 1v1q-1 0 -2 1l-2 2t-2 1v1h-3h-1q0 1 -1 1h-2h1h-1h-1h-1q-24 0 -42 -22q-23 -28 -36 -93q-2 -10 -4 -32q2 -19 7 -23q1 -1 -2 -3q-4 -1 -10 -2q-1 -1 -3 -1q-10 0 -15 3q-4 4 -7 23q-3 24 -3 46q-3 138 29 263q8 31 15 51t21 46t36 40t51 14h6 h5zM118 234zM199 508q-2 8 -4 11q-3 6 -7 9q-7 4 -13 5q-7 2 -20 2q-36 -1 -67 -63q-41 -82 -54 -234q1 1 19 22q35 42 65 83q40 55 59 91q12 22 17 41q6 16 5 33z" />
<glyph unicode="l" horiz-adv-x="167" d="M164 523q10 -8 15 -29q1 -14 -3 -36q-3 -10 -15 -42q-17 -38 -52 -91q-11 -17 -56 -79q-3 -4 -11 -14.5t-11 -14.5q10 -60 21 -90q15 -48 27 -48q5 0 14 3t23 12.5t27 24.5t24.5 43t17.5 64q0 7 8 1l3 -6q-9 -46 -25.5 -78.5t-34.5 -47.5t-32 -21t-25 -6q-37 1 -57 54 q-12 35 -23 126q-6 69 5 137q3 24 7 42t12 41t19.5 37.5t31 24.5t44.5 9q26 0 46 -16zM123 529q-39 1 -64 -58q-36 -83 -31 -236q16 18 20 24q19 25 55 79q31 48 49 88q5 11 14 40q5 32 -8 47t-35 16z" />
<glyph unicode="m" horiz-adv-x="277" d="M287 225q0 3 3 3.5t5 -1t2 -4.5q0 -15 -1 -22q-4 -57 -12 -93q-9 -31 -14 -40q-5 -11 -14 -15q-3 -3 -14 -3q-30 0 -37 21q-3 10 -3 41q1 9 2.5 26.5t1.5 25.5q2 34 1 44q0 8 -4 16l-1 1v1q-10 -2 -20 -16q-17 -23 -30 -69q-5 -16 -10 -43v0q1 -5 -14 -5q-18 0 -24 6 q-2 3 -5 10q-1 5 2 28q2 12 6 34q2 19 -2 29q-2 7 -5 10q-1 0 -2 1q-16 -1 -27 -20q-17 -28 -21 -84q-3 -27 -2 -51q0 -2 -1 -2q0 -4 -10 -4q-16 0 -20 4q-12 8 -14 31q-4 26 -2 91q1 19 0 40q0 18 -5 21q-3 3 1.5 4.5t7.5 1.5q16 0 21 -4q7 -5 7 -25q1 -16 0 -45.5 t-1 -43.5q0 -29 3 -43q0 -6 3 -13v10q2 56 11 87q11 44 35 52q3 2 13 2q31 0 38 -16q4 -7 4 -27q-1 -10 -5 -35q-4 -18 -3 -29q0 -5 1 -8q2 10 4 15q8 38 23 72q8 18 19 31q8 8 13 10q2 3 12 3v0h2q19 0 26 -7q5 -5 7 -14q2 -11 0 -41q-1 -9 -2.5 -26t-1.5 -25q-2 -29 1 -45 q3 -11 6 -15l1 -1q0 -2 1 -2l1 1q11 0 20 20q13 29 19 89q4 38 4 55z" />
<glyph unicode="n" horiz-adv-x="210" d="M220 226q1 6 7 1q4 -3 3 -6q-2 -14 -4 -21q-10 -55 -23 -93q-7 -24 -16 -41q-8 -11 -12 -14q-3 -3 -9 -3q-16 0 -21 4q-15 11 -15 35q-1 19 5.5 52.5t7.5 37.5q4 25 1 38q-2 8 -7 12q-1 1 -3 2l-1 1q-21 0 -40 -23q-25 -29 -46 -98q-11 -43 -12 -50l2 -4q6 -2 7 -4t-4 -4 q-6 -1 -10 0q-18 0 -24 7q-3 4 -5 14q-3 15 -1 43q1 20 5 53l3 48q0 11 -1 16q0 8 -2 8q-4 3 5 5l4 1q13 3 20 -3q6 -4 6 -27q-1 -18 -4 -50t-4 -45q0 -4 -0.5 -13t-0.5 -13q15 55 30 87q14 28 29 43q13 13 28 17q3 2 12 2q36 -3 44 -20q4 -11 2 -37q0 -3 -9 -49 q-6 -30 -5 -47q0 -17 7 -26q1 0 3 2q3 3 9 16q14 26 28 90q7 34 11 56z" />
<glyph unicode="o" horiz-adv-x="165" d="M175 226q1 5 7 1q4 -3 3 -6t-2.5 -10t-2.5 -11q-16 -59 -37 -94q-32 -51 -72 -57q-3 -1 -10 -1q-41 0 -60 23q-34 40 -20 105q14 64 73 65q5 0 9 -1q21 -2 36 -14q17 -12 27 -34q17 -33 5 -67q-12 -35 -43 -45q-31 -9 -59 12q-8 5 -15 14q5 -19 16 -31q7 -9 15 -14 q6 -2 8 -3h1.5t1.5 -1h1q25 0 50 21q32 31 52 92q10 25 16 56zM27 210q-23 -34 -17 -83q9 -20 29 -32q26 -14 50 -3q27 13 35 46q7 29 -9 58q-8 17 -22 25q-12 9 -35 11l-3 -1q-2 0 -3 -1q-2 -1 -5.5 -2.5t-4.5 -1.5q-10 -8 -15 -16z" />
<glyph unicode="p" horiz-adv-x="186" d="M196 227q2 2 4.5 1.5t4 -3.5t0.5 -5q-20 -31 -30 -42q-13 -14 -33 -26l-3 -27q-13 -63 -69 -63q-1 0 -11 2t-14 6q-8 7 -8 17q2 16 24 36q21 18 49 27q0 22 -1 34q-4 24 -11 41q-4 8 -9 13q-3 3 -4 3q-10 -1 -22 -11q-19 -18 -32 -54q-1 -27 -5.5 -80.5t-6.5 -81.5 q-4 -58 -1 -89q3 -40 17 -50q2 -2 -3 -4q-17 -5 -27 1q-16 13 -19 59q-3 14 -1.5 49t2.5 48.5t4 48t4 47.5q4 42 6 86q0 37 -7 43q-2 2 4 4q18 5 26 -2q11 -9 8 -49q1 2 3.5 6.5t3.5 6.5q16 24 34 30q4 3 14 3q29 -2 41 -24q9 -18 13 -47q0 -3 0.5 -8.5t0.5 -7.5q12 8 25 21 q9 10 29 41zM95 93q11 17 14 46q-2 -1 -10 -4q-11 -6 -23 -14q-23 -19 -28 -34q-3 -6 1 -11q4 -4 18 -4h2q2 0 3 1q6 2 8 4q8 5 15 16z" />
<glyph unicode="q" horiz-adv-x="214" d="M224 226q1 6 7 1l3 -6q-5 -36 -18 -67q-17 -43 -49 -75q-11 -11 -23 -20v-5q1 -3 5 -9q14 -24 25 -52q22 -52 24 -77q3 -26 -6 -42q-2 -4 -5 -7t-6 -4h-2q-1 -1 -2 -1h-3h-1h-3q-28 2 -45 27t-22 54q-2 15 3 69q3 29 14 96q1 9 3.5 27t3.5 27q-5 -18 -11 -36 q-9 -26 -21 -41q-8 -10 -18 -14q-2 -3 -14 -3q-42 0 -62 24q-14 18 -16 46q-1 28 8 55q19 62 72 63q10 0 15 -2l9 -3q19 -8 37 -36q2 12 2 19q-2 10 -8 16q-3 2 4 4q17 5 25 -1q6 -5 9.5 -15t3.5 -17t-0.5 -19t-0.5 -13q-1 -27 -13 -108q-1 -2 -1 -5q64 55 77 150zM91 99 q19 29 31 92q0 1 1 4t1 5q-7 17 -18 28q-15 18 -37 18q-3 0 -3 -1q-6 -2 -9 -4q-8 -5 -15 -16q-30 -38 -25 -90q2 -25 14 -41q6 -7 14 -12q4 -2 10 -4q2 -1 4 -1q17 1 32 22zM159 6q-5 12 -17 34q-7 -36 -8 -68q-2 -28 6 -51q9 -21 16 -32q6 -7 13 -13l6 -3q1 0 3 2 q4 3 8 11q13 34 -27 120z" />
<glyph unicode="r" horiz-adv-x="176" d="M186 226q1 6 7 1l3 -6l-3 -18q-9 -50 -20 -83q-6 -21 -16 -36q-4 -7 -11 -12q-8 -5 -14 -5q-24 0 -36 12q-8 8 -9 16q-4 13 0 38q2 14 10 42q8 24 10 37q0 1 0.5 5.5t0.5 6.5q-21 -23 -66 -19q-20 0 -38 9q-16 10 -26 24q-9 13 -10.5 26.5t8.5 20.5q12 8 26 0 q10 -4 18 -21q9 -25 -1 -47q18 -5 34 -3q37 2 49 21q1 0 1 1q1 3 10 3q13 3 20 -3q9 -7 6 -24q-2 -14 -9.5 -38.5t-9.5 -34.5q-5 -22 -3 -37q2 -10 5 -15q2 -4 4 -6l3 -3l1 -1h1h1q10 1 20 21q13 25 25 79q1 8 4 24.5t5 24.5zM-6 231q4 -4 14 -10q5 10 5 21q2 12 -4 25 q-5 10 -14 11q-11 3 -16 -6q-8 -18 15 -41z" />
<glyph unicode="s" horiz-adv-x="125" d="M135 226q1 5 7 1q4 -2 3 -5q-13 -52 -42 -96q-6 -9 -20 -27l8 -8q24 -28 33 -55q16 -47 -12 -78t-76 -32q-6 0 -10 1q-18 2 -32 13q-19 12 -22 33q-8 32 29 64q7 6 14.5 12.5t16.5 14.5t14 12q2 2 6.5 7t6.5 7l-17 17t-20 22q-20 23 -26 50q-11 60 43 61q12 0 16 -3 q7 -3 11 -9q5 -9 1 -20q-4 -12 -12 -23l-7 -7q-7 -8 -11 -11q-1 -1 -2.5 -2t-2.5 -1q6 -16 18 -31q8 -9 25 -26q43 56 60 119zM42 230q-19 0 -16 -40l3 -15l2 2q19 16 26 35q0 1 0.5 2.5t0.5 2.5v2v1v3v1v1h-1v1q0 1 -1 1v1h-1v0q-1 0 -1 0.5t-1 0.5l-1 1h-1h-3h-6zM91 -25 q23 47 -25 107q-17 -17 -53 -49q-36 -30 -32 -58q2 -17 17 -28q15 -12 35 -12q17 1 33.5 13t24.5 27z" />
<glyph unicode="t" horiz-adv-x="93" d="M126 350q13 0 25 -9q22 -15 18 -36q-1 -18 -27 -22q-4 -1 -9 -1q-32 0 -90 15q-1 -13 -6 -50.5t-7 -58.5q-2 -54 2 -76q2 -14 9 -25l7 -7l2 -2q10 1 19 14q15 23 22 66q2 11 5.5 33.5t5.5 34.5q0 6 6 1l4 -6q-2 -12 -6 -38q-8 -54 -17 -77q-13 -28 -23 -34q0 -4 -14 -4 q-40 2 -49 35q-7 23 -5 74q2 33 10 92q1 12 5 36q-7 2 -19.5 5.5t-17.5 4.5q-23 -14 -39 -17q-27 -7 -43 15q-11 16 9 22q2 3 13 3q19 0 59 -10l12 9q22 17 30 40q0 2 2 6q-2 10 -6 14q-3 2 4 4q17 5 25 -1q11 -9 7 -47q-2 -30 -4 -45q56 -16 84 -17q17 0 25 7q0 1 1.5 2.5 t2.5 3.5v1q1 1 1 2v2v1v4v2v1q-1 1 -1 2t-1 2v2l-1 1q-5 8 -11 12q-1 0 -1 1h-1q-1 0 -2 1q-1 0 -2 1h-1l-8 2q-5 0 -7 5q-1 4 3 4zM-53 313q2 1 6.5 3t6.5 3q-1 1 -4 1q-12 4 -23 6q-8 2 -11 2h-4q-17 0 -17 -8q0 -7 10 -11q15 -6 36 4zM-11 324q4 -1 12.5 -3.5t12.5 -3.5 q0 6 2 18t2 18v1q-12 -17 -29 -30z" />
<glyph unicode="u" horiz-adv-x="186" d="M196 226q1 6 7 1q4 -2 3 -5q0 -4 -1.5 -10.5t-2.5 -9.5q-12 -56 -22 -82q-8 -23 -16 -36q-3 -7 -9 -11q0 -1 -10 -4h-1h-3q-26 2 -32 20q-4 9 -6 38v47v1q-11 -42 -24 -67q-9 -18 -19 -28q-2 -4 -9 -8l-11 -3v0h-3q-19 3 -24 7q-4 4 -6 12q-4 13 -4 38q0 8 0.5 24t0.5 23 q0 29 -1 44q-3 21 -8 25q-3 3 1 4t8 1q14 3 20 -3q10 -8 10 -27q1 -7 1 -85q0 -25 2 -38q3 -10 4 -13l1 -1q3 1 14 12q18 23 31 67q13 40 15 68q-1 1 -1 4q0 1 -2 5l-1 2q-4 3 5 5l4 1q16 0 20 -3q7 -5 7 -25q1 -16 1 -42.5v-41.5q0 -21 4 -38q2 -8 5 -13q0 -1 1 -1q2 1 5 4 q6 6 9 14q14 26 26 79q7 29 11 49z" />
<glyph unicode="v" horiz-adv-x="163" d="M173 226q1 6 7 1q4 -2 3 -5q0 -2 -1 -3q-6 -26 -18 -46q-22 -36 -49 -43q-15 -2 -23 0q0 -1 -1 -2q-15 -27 -28 -42q-9 -11 -15 -15q-2 -3 -11 -3h-1h-2q-17 0 -24 6q-4 4 -6 13q-4 13 -4 38q0 7 0.5 23t0.5 24q0 29 -1 44q-3 20 -8 24q-4 3 5 5l4 1q15 0 20 -3 q7 -5 10 -27q1 -10 1 -86q0 -25 2 -38q2 -8 4 -12v-1q9 4 23 22q12 16 20 32q-12 5 -20 17q-15 24 -7 57q9 31 30 32q23 0 29 -19q6 -18 -2 -42q-3 -14 -15 -40h4q13 1 29 11q19 14 34 48q8 17 10 29zM76 145q3 -3 9 -5q0 1 1 2q12 24 16 44q7 22 1 35q-1 6 -7 7q-7 4 -14 0 q-16 -7 -20 -38q-3 -33 14 -45z" />
<glyph unicode="w" horiz-adv-x="270" d="M280 226q1 6 7 1q4 -2 3 -5v-1q-1 -1 -1 -2q-7 -27 -19 -46q-20 -36 -49 -42q-11 -4 -22 -1q-1 -1 -1 -2q-15 -27 -28 -42q-15 -18 -27 -18h-5q-26 0 -32 19q-4 9 -6 38v47v2q-11 -42 -24 -68q-9 -18 -19 -28q-1 -2 -9 -7q-2 -3 -11 -3v0h-3q-17 0 -24 6q-4 6 -6 13 q-1 5 -4 38q0 7 0.5 23t0.5 24q0 29 -1 44q-3 20 -8 24q-4 3 5 5l4 1q16 0 20 -3q10 -8 10 -27q1 -8 1 -86q0 -25 2 -38q2 -8 4 -12v-1l1 -1q9 4 14 13q16 19 32 66q12 44 14 69q-1 1 -1 3q0 3 -2 5v1.5t-1 1.5q-4 2 3 4q4 1 6 1q13 3 20 -3q7 -5 7 -25q1 -16 1 -42v-42 q0 -21 4 -37q2 -9 5 -13l1 -2h2q6 2 24 23q12 16 20 32q-11 4 -21 17q-14 24 -6 57q9 31 30 32q22 0 29 -19q5 -15 -2 -42q-6 -20 -15 -40h4q14 1 28 11q21 15 35 48q8 17 10 29zM183 145q2 -3 8 -5q1 1 1 2q11 23 17 44q7 22 1 35q-1 6 -7 7q-7 4 -15 0q-17 -8 -19 -38 q-3 -33 14 -45z" />
<glyph unicode="x" horiz-adv-x="158" d="M168 228q1 5 7 1q4 -3 3 -6q0 -2 -1.5 -9t-2.5 -11q-12 -50 -26 -84q-12 -27 -20 -36q-6 -8 -10 -10v-1q1 -1 -0.5 -2t-4.5 -1.5t-5 -0.5h-4q-24 0 -39 20q-9 13 -21 41q0 2 -2 6q-15 -23 -21 -39q-6 -12 -6 -20v-5q5 0 7 -6q-1 -2 -3 -3q-11 0 -13.5 10.5t1.5 16.5 q4 18 24 50q2 3 7 8q-8 19 -12 34q-2 5 -5.5 15t-6.5 18t-6 15q-8 22 -15 27q-4 3 5 5q3 1 4 1q13 3 20 -3q8 -6 18 -29q3 -9 9.5 -27.5t10.5 -27.5q2 2 5.5 6t4.5 6q24 26 37 41q1 1 4.5 6.5t5.5 9.5q0 1 0.5 3t0.5 3t-1 2q-4 3 -2 6.5t6 -0.5q15 -11 0 -29q-7 -11 -31 -37 q-25 -28 -26 -29l9 -27q19 -40 19 -41q6 -10 10 -14q0 -1 2 -2l2 -1q8 3 18 18q17 27 32 82q11 43 12 50z" />
<glyph unicode="y" horiz-adv-x="183" d="M193 228q1 6 7 1q4 -2 3 -5q-2 -12 -4 -19q-18 -66 -72 -120q-9 -79 -33 -146q-50 -138 -156 -139h-6q-2 0 -7 1t-7 1q-36 7 -60 35q-22 26 -22 58q1 34 29 55q11 8 41 21q7 3 46.5 20.5t59.5 27.5q49 26 80 52q0 3 1 9.5t2 9.5q5 42 5 76q-9 -37 -24 -68q-9 -18 -19 -28 q-6 -6 -10 -8q-1 -3 -10 -3h-1h-3q-16 0 -23 7q-5 4 -7 13q-3 12 -3 37v48q2 24 -1 44q-3 21 -8 24q-4 3 5 5l4 1q13 3 21 -3q7 -6 10 -27q2 0 1 -43l-1 -43q0 -25 3 -38q3 -11 4 -13v-1q4 1 15 12q18 23 31 67q14 43 15 78q-2 7 -4 9t3 4q19 6 27 -2q5 -4 5 -18 q2 -14 2 -42q0 -42 -4 -74q51 54 65 124zM26 -133q46 68 64 188q-31 -23 -74 -46q-21 -11 -103 -46q-20 -9 -32.5 -16.5t-23.5 -22.5t-11 -34q2 -31 24 -55q25 -25 64 -25q51 0 92 57z" />
<glyph unicode="z" horiz-adv-x="184" d="M194 227q0 5 6 2q3 -3 4 -5q1 -15 -7 -43q-10 -37 -32 -68q-13 -19 -38 -42q43 -22 48 -67q8 -65 -47 -124q-58 -60 -151 -60h-10q-1 1 -3 1q-26 4 -50 23t-32 43q-21 58 60 100q42 22 71 34q9 4 26 11t25 11q21 11 38 24q-5 4 -11 5q-2 1 -29 3.5t-35 13.5q-9 11 1 35 q9 19 32 46q1 1 7.5 8.5t13.5 15.5t15 18t11 17q-23 -18 -62 -15q-24 2 -38 10q-13 7 -26 23q-23 34 -2 48q10 7 26 0q13 -7 18 -21q9 -25 -1 -47q12 -4 34 -4q38 4 50 21q1 2 3 2q19 6 28 -1q3 -3 4 -6.5t-1 -8t-4 -7.5t-5 -7t-4 -5q-7 -9 -21.5 -27t-21.5 -27 q-25 -29 -29 -49q-3 -11 2 -18q3 -4 9.5 -5t14.5 -1t11 -1q9 -1 23 -7q26 22 46 51q18 27 27 62q6 24 6 38zM-3 241q5 -6 14 -10q5 10 5 20q2 14 -4 25q-5 11 -14 12q-11 2 -16 -6q-4 -8 0.5 -20t14.5 -21zM135 34q-8 15 -23 26q-24 -17 -42 -25q-5 -2 -47 -21 q-36 -15 -69 -33q-47 -24 -59 -48q-14 -22 -3 -49q9 -23 33.5 -39t47.5 -16q49 1 88 25.5t61 63.5q38 65 13 116z" />
<glyph unicode="{" horiz-adv-x="468" d="M47 147q14 18 36.5 42.5t33.5 38.5t19.5 41t6.5 63q0 6 20 6q30 -3 51 23.5t29 60.5t9 71q2 54 18 68.5t60 -8.5q13 -8 28 -10t34.5 -1.5t22.5 0.5q9 0 12 -2.5t0 -5t-12 -3.5q-33 -6 -46 -6.5t-43 7.5q-2 1 -8 3l-9 3t-8 1t-7.5 -3t-5.5 -8.5t-4.5 -15.5t-1.5 -25 q0 -55 -31.5 -106t-74.5 -54q2 -14 -12 -43t-32.5 -58.5t-35 -61t-18.5 -50t18 -25.5q11 -2 31.5 -3.5t35.5 -4.5t27 -11q5 -4 -5 -6q-16 -4 -23 0q-26 17 -76 13q-40 -4 -50 18.5t11 51.5z" />
<glyph unicode="|" horiz-adv-x="134" d="M92 514q-3 -14 -4 -43.5t0 -87t1 -75.5v-52v-51v-46t-1 -44t-3 -37.5t-5 -34t-7 -25.5t-10 -20.5t-14 -11.5q-9 -4 -8.5 2t8.5 12q6 4 9 21.5t4.5 52t1.5 62t-0.5 81t-0.5 79.5q0 173 18 227q4 12 8 14q4 1 5 -4q1 -7 -2 -19z" />
<glyph unicode="}" horiz-adv-x="475" d="M421 483q-14 -18 -36.5 -42.5t-33.5 -38.5t-19.5 -41t-6.5 -63q0 -6 -20 -6q-30 3 -51 -23.5t-29 -60.5t-9 -71q-2 -54 -18 -68.5t-60 8.5q-13 8 -28 10t-34.5 1.5t-22.5 -0.5q-9 0 -12 2.5t0 5t12 3.5q33 6 46 6.5t43 -7.5q10 -2 19 -4t19 17.5t16 63.5q20 135 103 141 q1 21 10 44t20.5 42.5t24.5 39.5t23 35.5t14.5 28.5t0 22t-19.5 13q-8 2 -43.5 5.5t-50.5 13.5q-5 4 5 6q15 3 23 0q26 -17 76 -13q40 4 50 -18.5t-11 -51.5z" />
<glyph unicode="~" horiz-adv-x="297" d="M80 197q-5 -9 -29 -4q-10 2 -11 6q0 1 1 2q34 57 90 37q16 -5 39 -33q42 -45 46 -4q0 6 10.5 7.5t20.5 -0.5t10 -7q-3 -24 -28 -32.5t-51 -3.5q-20 5 -42 30q-18 20 -22 24q-4 3 -7 4t-6 0t-5 -2t-4.5 -5t-4 -6t-4 -7t-3.5 -6z" />
<glyph unicode="&#xa0;" />
<glyph unicode="&#xa1;" horiz-adv-x="344" d="M51 4q-12 -5 -11 1q0 8 12 13q7 3 14.5 11.5t12.5 16.5t10.5 22.5t8 22t7 22.5t5.5 17l51 144q16 39 27 62t33 52t49 45q13 9 14 2q1 -5 -9 -11q-29 -18 -53 -56.5t-35.5 -71.5t-27.5 -86t-23 -71q-1 -2 -8.5 -23.5t-10 -28t-11 -24t-15 -26t-17.5 -18.5t-23 -15z M282 479q-7 -19 4 -23q4 -1 9 4t7 12q7 18 -4 22q-10 4 -16 -15z" />
<glyph unicode="&#xa2;" horiz-adv-x="142" d="M-17 140q-3 26 4 55q15 60 67 64v48q17 0 18 -3v-6q0 -3 -1 -12.5t-1.5 -17t-1.5 -10.5q1 0 2.5 -1l3 -2t2.5 -1q15 -12 21 -31q2 -3 -3 -5q-4 0 -6 5q-13 26 -22 26q-19 0 -33 -21q-26 -39 -18 -92q4 -25 15 -41q14 -17 24 -17q3 0 6 1l9 3q21 11 42 39q27 40 41 105 q1 6 7 1q4 -2 3 -5q-8 -40 -22 -71q-20 -46 -47 -67q-18 -14 -32 -15v-48q-18 0 -18 3q-1 2 0 6q1 6 2 21t1 18q-31 4 -45 23q-14 18 -18 48z" />
<glyph unicode="&#xa3;" horiz-adv-x="355" d="M66 63q-14 2 -21 10t-4.5 15.5t13.5 10.5q11 4 39 -2q8 19 13 50q9 42 10 54q-27 9 -31 5q-1 -2 -5.5 -2.5t-8.5 1t-4 2.5q5 9 37 3l13 -3q7 48 16 87q1 6 9 35q-59 20 -76 65q-5 11 -3 25t12 15q3 -1 2 -3t-3 -4q-6 -10 -3.5 -22t7.5 -21q18 -33 67 -48q28 81 95 81 q45 -2 65 -25q17 -20 7 -41q-29 -52 -150 -27l-7 2q-8 -26 -21 -123l5 -1q24 -8 26 -4q2 1 6.5 1t8.5 -1t4 -2q-6 -8 -37 -2l-13 4q-1 -13 -5 -30q-11 -59 -20 -76q65 -25 94 -26q44 -2 68 36t35 91q2 1 6 1q-29 -134 -110 -134q-27 0 -75 16l-23 9q-11 -19 -33 -22h-5z M67 70q14 3 23 20l-15 3q-9 2 -14 -3t-3 -11.5t9 -8.5zM156 334q34 -11 85 -8t62 28q10 23 -13 39t-50 17q-59 -4 -84 -76z" />
<glyph unicode="&#xa4;" horiz-adv-x="385" d="M161 98q9 -1 10 -3.5t-5 -5t-13 -1.5q-36 4 -42 40t11 66q36 81 97 81q9 0 12 -2.5t0 -5.5t-12 -3q-25 0 -51 -41.5t-29 -78.5t22 -46zM214 265q-5 1 4 8q4 3 7 2q38 -17 33.5 -57.5t-39 -84t-66.5 -45.5q-2 0 -2 1q-1 4 8 8q1 1 2 1q16 1 33.5 16.5t30 38t18.5 45.5 t-1 42t-28 25zM92 286q-11 4 -5 8q7 4 21 2q10 -3 23 -32q4 -9 14 -27q1 -1 3 -5t3 -5q1 -2 4 -4q1 0 0.5 -0.5t-3.5 0.5h-2q3 0 8 -2t2 -5q-3 -4 -18 -4q-18 3 -32 33q-9 15 -14 29l-6 9q-1 1 -2 3l2 1q1 -1 2 -1zM108 148q5 4 19 4q2 0 8 -2t3 -5q-9 -7 -36 -23 q-2 -1 -8 -5.5t-10.5 -7.5t-9 -7.5t-4.5 -8.5q0 -6 -15 -6t-15 6q0 10 29 29q5 3 19 11.5t20 14.5zM269 217q-6 -10 -18 -13q-4 -2 -5.5 0t0.5 6q9 14 37 31q9 4 27 14q1 1 4.5 3t5.5 3l2 1q-2 -1 -2 -3q1 10 18 17q8 3 7 -1q-1 -15 -32 -33q-1 -1 -12 -6.5t-17 -9.5 q-7 -3 -13 -8q-4 -4 -2 -1zM182 103q-2 2 3 3q7 2 11 0q9 -5 24 -20q3 -2 8 -7t8 -7l9 -6q7 0 7 -3t-7 -3q-15 1 -36.5 20.5t-26.5 22.5z" />
<glyph unicode="&#xa5;" horiz-adv-x="426" d="M40 482q1 0 12.5 2t18.5 2h4q41 0 64 -22q25 -19 35 -62q9 -38 1 -105q-9 -73 -10 -92q-2 -15 2 -25q1 -3 3 -7q1 -2 4 -2q9 0 23 4q16 7 29 15q32 21 63 52l6 8q1 10 2.5 29t2.5 29q11 61 26 88q15 28 40 29q9 0 10 -1v-1q12 -7 9 -34q-4 -28 -31 -72q-8 -17 -39 -54 v-11q-1 -10 -3.5 -41.5t-5.5 -55.5l53 8l3 -10l-58 -10l-4 -23l44 7l1 -11l-47 -8l-1 -9q-9 -45 -37.5 -71.5t-63.5 -27.5q-5 0 -7 1q-12 0 -26 9q-14 10 -19 22h6l1 -1q15 -24 42 -24q34 0 60 44q15 22 21 41q1 3 3 11l-66 -10l-3 11l71 12l5 23l-57 -10l-2 12l60 10 q3 20 9 89q-4 -5 -6 -7q-31 -32 -63 -52q-31 -14 -44 -15l-6 -1q-19 3 -22 6q-5 3 -8 19q-2 22 7 76q1 9 4 37t3 37.5t-1 39.5q-4 36 -23.5 68.5t-57.5 32.5h-12q-15 -3 -17 -3zM316 274q20 25 35 50q22 34 29 69q0 16 -2 21q-2 4 -10 6l-2 -2q-2 0 -7 -3q-8 -11 -9 -13 q-13 -18 -16 -38q-10 -28 -18 -90z" />
<glyph unicode="&#xa6;" horiz-adv-x="164" d="M75 147q-2 1 -4.5 -2t-5 -10.5t-4.5 -15t-5 -18.5t-5 -17q-19 -52 -7 -58q2 -1 4.5 3t5 11.5t4.5 15t4.5 15l3.5 10.5q20 59 9 66zM121 312q-2 1 -4.5 -2t-5 -10.5t-4.5 -15t-5 -18.5t-5 -17q-19 -52 -7 -58q2 -1 4.5 3t5 11.5t4.5 15t4.5 15l3.5 10.5q20 59 9 66z" />
<glyph unicode="&#xa7;" horiz-adv-x="243" d="M40 95q2 29 26 29l1 -1q-1 -5 -5 -5q-9 -1 -13 -10t0 -19q8 -18 37 -22q24 2 29.5 16t-2.5 35t-19 42.5t-20 44t-6 35.5q8 35 64 39q-16 26 -19 39q-8 32 6 52t45 22h4h1q19 0 27 -10q7 -8 7 -21q-2 -27 -18 -28q-5 0 0 6q2 1 3 1q5 1 7 10.5t0 14.5q-3 18 -25 20 q-36 -3 -39 -35t18 -63q24 -40 25 -64q1 -26 -16.5 -37t-48.5 -13q14 -31 17 -38q30 -71 -35 -75l-4 1q-1 -1 -2 -1q-18 1 -31.5 10t-13.5 25zM89 221q3 -11 16 -41q31 2 43 19t1 47q-4 10 -13 25q-60 -6 -47 -50z" />
<glyph unicode="&#xa8;" horiz-adv-x="95" d="M30 658q5 8 5 16.5t-5 11.5q-12 5 -26 -14q-11 -22 1 -29q14 -7 25 15zM91 658q11 21 -1 28q-14 5 -25 -14q-12 -21 0 -29q13 -7 26 15z" />
<glyph unicode="&#xa9;" horiz-adv-x="296" d="M49 187q19 49 54.5 83.5t83.5 40.5q51 6 65 -43t-15 -102q-21 -41 -52.5 -71t-67.5 -33q-47 -4 -67 36t-1 89zM114 70q39 1 73 38.5t48 73.5q-37 -47 -70 -68q-17 -14 -36 -14q-31 0 -40 20q-5 17 0 40q6 23 20 47q15 25 39 39.5t45 14.5q8 0 13.5 -4t2.5 -13l-7 -14 t-7.5 -16.5t-1.5 -6.5q3 0 0 -3q-1 -1 -5 -1q-3 0 -5 3t-1.5 7.5t4.5 8.5q21 26 15 30q-5 5 -18 0t-25 -17q-35 -35 -42 -77q-3 -13 -2.5 -24.5t5 -19t10.5 -6.5q10 0 30 12t33 25q52 45 50 100q-1 25 -14 43t-37 14q-36 -6 -66.5 -36.5t-44.5 -67.5q-6 -16 -9.5 -36.5 t-2.5 -42t13 -35.5t33 -14z" />
<glyph unicode="&#xaa;" d="M211 227q1 4 6 1q4 -3 3 -6q-2 -12 -4 -20q-14 -58 -24 -86q-6 -18 -15 -37q-8 -13 -14 -15h-1q-2 -1 -3 -1h-12q-14 2 -18 8q-1 1 -4 13q-3 28 1 65q-5 -17 -10 -28q-22 -53 -61 -60q-4 -1 -11 -1q-40 0 -57 24q-12 15 -14 46q0 28 10 55q24 64 82 64q6 0 10 -1h1h1 q18 -3 31 -15q12 -9 20 -23v6v3q0 20 -6 24q-4 3 5 5l4 1q13 3 20 -3q9 -7 9 -28q1 -20 0.5 -30t-2 -30t-1.5 -30q-2 -26 -1 -40q0 -1 1 -5.5t2 -7.5v-1q2 2 3 4t9 14q14 30 27 83q6 20 13 52zM86 92q27 31 38 95q0 1 1 4t1 5q-9 19 -22 31q-16 13 -36 13h-2q-2 -1 -3 -1 q-2 -1 -11 -5q-7 -4 -17 -16q-32 -36 -30 -91q2 -27 12 -41q5 -8 13 -13q6 -3 7 -3l2 -1v0h1h-1h1q27 0 46 23zM39 69z" />
<glyph unicode="&#xab;" horiz-adv-x="352" d="M168 240q14 1 17 -6q1 -2 -3 -3q-2 -1 -6 -1q-8 -1 -15.5 -3.5t-15.5 -7.5t-13 -9t-14 -11.5t-12 -9.5q-29 -21 -32 -23q-2 -1 -5 0l6 -3q1 -1 8.5 -5t11 -6t10.5 -6.5t11 -8t8.5 -8.5t6.5 -10t3 -10q0 -3 -7 -4.5t-15 -0.5t-8 5q-1 7 -5.5 13.5t-13 13t-14.5 10.5 t-16.5 10t-12.5 7t-2 2.5t2 2.5q13 8 37 27.5t45 31.5t44 13zM295 240q14 1 17 -6q1 -2 -3 -3q-2 -1 -6 -1q-8 -1 -15.5 -3.5t-15.5 -7.5t-13 -9t-14 -11.5t-12 -9.5q-29 -21 -32 -23q-2 -1 -5 0l6 -3q1 -1 8.5 -5t11 -6t10.5 -6.5t11 -8t8.5 -8.5t6.5 -10t3 -10 q0 -3 -7 -4.5t-15 -0.5t-8 5q-1 7 -5.5 13.5t-13 13t-14.5 10.5t-16.5 10t-12.5 7t-2 2.5t2 2.5q13 8 37 27.5t45 31.5t44 13z" />
<glyph unicode="&#xac;" horiz-adv-x="329" d="M40 230q-1 4 5 6t14 1t9 -4q6 -13 102 -13q16 0 48.5 -1.5t48.5 -1.5q12 0 18 -2.5t-1 -13.5q-3 -3 -23 -20t-29.5 -30t-11.5 -28q0 -4 -7.5 -5t-14.5 0.5t-7 4.5q2 15 11.5 28t27 28t22.5 21q3 3 10 5l1 2h-15q-8 0 -23 1t-23 1q-83 0 -116 7q-1 0 -14 1.5t-21.5 4.5 t-10.5 8z" />
<glyph unicode="&#xad;" horiz-adv-x="243" d="M44 163q-12 -1 3 16q9 10 15 11q30 3 69 1t67 1q5 1 5 -3q0 -10 -15 -20q-4 -3 -7 -3q-30 -2 -68.5 -1t-68.5 -2z" />
<glyph unicode="&#xae;" horiz-adv-x="383" d="M164 1q-97 4 -119 84q-19 72 28 155t123 105q15 5 31 6h12q38 -3 63 -25t34 -53.5t6 -67t-17 -66.5q-59 -128 -160 -138h-1zM177 55q10 -9 35 -2q5 2 5 4q-6 6 4.5 38.5t7.5 42.5q-5 13 -21 27q65 5 84 59q11 32 -18.5 50t-64.5 22q-4 2 -14 0.5t-12 -6.5 q-40 -90 -91 -208q-2 -4 7 -7q20 -7 33 1q1 2 2 3l35 80q29 -24 14 -63q-13 -35 -6 -41zM171 16q67 7 116 84q48 76 37 148q-11 75 -85 86q-3 1 -6 1q-55 -6 -97.5 -56t-50.5 -108q-3 -31 -1.5 -65t22.5 -61.5t59 -28.5h6zM219 275q17 -7 28 -19q22 -27 -8.5 -53.5 t-58.5 -22.5h-2z" />
<glyph unicode="&#xb2;" horiz-adv-x="400" d="M45 58q33 5 68 -4q82 65 147 175q77 130 47 190q-18 37 -77 37q-35 0 -63.5 -19.5t-39.5 -52.5q-2 -7 -4 -16t-3 -20t3.5 -18.5t13.5 -7.5q6 0 -3 -8q-5 -5 -8 -4q-13 1 -18 10.5t-2.5 24t6 26t7.5 21.5q15 32 45 54.5t69 22.5q94 0 110 -76q18 -80 -53 -191 q-56 -87 -148 -155q80 -24 109 -23q45 2 71 36q5 7 12 5q3 0 -1 -5q-47 -58 -127 -44q-22 4 -80 19q-53 -35 -83 -35t-38.5 13t4 27.5t36.5 17.5zM38 14q37 12 60 29q-32 6 -49 4q-32 -5 -32 -21q0 -12 13 -13q4 0 8 1z" />
<glyph unicode="&#xb3;" horiz-adv-x="438" d="M2 87q6 33 28 54.5t55 22.5q8 0 -4 -11l-8 -4q-22 -1 -38.5 -20t-18.5 -42q-2 -29 20 -50t56 -21h1q87 0 135 67q41 56 23 113q-18 55 -85 70q-9 2 -9 6.5t9 6.5q129 27 169 104q9 16 12.5 32t1.5 31.5t-15 26t-37 11.5q-66 0 -80 -53q-12 -41 3 -43q5 0 -4 -9 q-6 -6 -10 -5q-10 1 -10.5 16.5t3.5 29.5t8 21q31 58 94 58q85 0 85 -54q1 -49 -57 -104q-64 -60 -134 -64q46 -12 74 -49t21 -87q-8 -64 -61.5 -102t-124.5 -38q-46 0 -77.5 23t-24.5 63z" />
<glyph unicode="&#xb4;" horiz-adv-x="51" d="M27 671q-23 -23 -27 -16q0 2 16 31q7 12 25 14q11 0 10 -6q0 -1 -3.5 -4t-9.5 -8.5t-11 -10.5z" />
<glyph unicode="&#xb6;" horiz-adv-x="364" d="M42 61q-3 2 -1 9.5t9 21.5t13.5 25.5t13 22.5t7.5 12l31 61q-30 19 -22 42q8 24 36 34q-53 2 -53 3q0 -2 -3.5 -3t-7.5 0t-4 3t4 3.5t11.5 2t16 0.5t18 -0.5t17 -1t13.5 -1t7 -0.5q3 0 21 -1q140 -5 140 4q0 1 3.5 2t7.5 0.5t4 -2.5q1 -6 -6 -9.5t-20.5 -4.5t-24.5 -1 t-23 1h-12l-22 1q2 -6 -0.5 -15.5t-7.5 -21t-10 -20t-11 -18t-6 -10.5q-2 -4 -20.5 -38t-36.5 -66l-17 -31q7 -2 -3 -4q-5 -1 -7 0q-4 1 0 14t14 31t16 28t11 18q7 12 36 70t29 64l-43 1q5 -4 0 -20t-11 -26.5t-14 -25t-9 -15.5q-5 -9 -38.5 -72t-34.5 -63q5 -2 -2 -3 q-6 -2 -9 -1z" />
<glyph unicode="&#xb7;" horiz-adv-x="115" d="M78 75q9 14 8.5 28t-8.5 19q-8 4 -20.5 -3t-22.5 -21q-18 -36 2 -48q10 -5 21.5 2.5t19.5 22.5z" />
<glyph unicode="&#xb8;" horiz-adv-x="29" d="M4 -44q8 0 12 13q4 11 -5 12q-4 1 -5 3l8 14q1 4 10 1q3 -1 2 -2l-6 -12q12 -3 8 -16q-5 -17 -21 -18q-6 0 -7 3z" />
<glyph unicode="&#xb9;" horiz-adv-x="359" d="M2 5q-9 5 16.5 59.5t75.5 140t85 144t72 118.5q-13 -7 -66 -49.5t-87 -49.5q-16 -3 -29 6q-6 4 4 7q1 1 3 1q37 7 99 58t102 58q32 0 32 -6q0 -1 -1 -3q-63 -103 -170.5 -288t-99.5 -189q7 -4 -6 -7q-20 -4 -30 0z" />
<glyph unicode="&#xba;" horiz-adv-x="165" d="M175 226q1 5 7 1q4 -3 3 -6t-2.5 -10t-2.5 -11q-16 -59 -37 -94q-32 -51 -72 -57q-3 -1 -10 -1q-41 0 -60 23q-34 40 -20 105q14 64 73 65q5 0 9 -1q21 -2 36 -14q17 -12 27 -34q17 -33 5 -67q-12 -35 -43 -45q-31 -9 -59 12q-8 5 -15 14q5 -19 16 -31q7 -9 15 -14 q6 -2 8 -3h1.5t1.5 -1h1q25 0 50 21q32 31 52 92q10 25 16 56zM27 210q-23 -34 -17 -83q9 -20 29 -32q26 -14 50 -3q27 13 35 46q7 29 -9 58q-8 17 -22 25q-12 9 -35 11l-3 -1q-2 0 -3 -1q-2 -1 -5.5 -2.5t-4.5 -1.5q-10 -8 -15 -16z" />
<glyph unicode="&#xbb;" horiz-adv-x="352" d="M184 103q-14 -1 -17 6q-1 2 3 3l6 1q8 1 15.5 3.5t15.5 7.5t13 9t14 11.5t12 9.5q29 21 32 23q2 1 5 0l-6 3q-1 1 -8.5 5t-11 6t-10.5 6.5t-11 8t-8.5 8.5t-6.5 10t-3 10q0 3 7 4.5t15 0.5t8 -5q1 -7 5.5 -13.5t13 -13t14.5 -10.5t16.5 -10t12.5 -7t2 -2.5t-2 -2.5 q-13 -8 -37 -27.5t-45 -31.5t-44 -13zM57 103q-14 -1 -17 6q-1 2 3 3l6 1q8 1 15.5 3.5t15.5 7.5t13 9t14 11.5t12 9.5q29 21 32 23q2 1 5 0l-6 3q-1 1 -8.5 5t-11 6t-10.5 6.5t-11 8t-8.5 8.5t-6.5 10t-3 10q0 3 7 4.5t15 0.5t8 -5q1 -7 5.5 -13.5t13 -13t14.5 -10.5 t16.5 -10t12.5 -7t2 -2.5t-2 -2.5q-13 -8 -37 -27.5t-45 -31.5t-44 -13z" />
<glyph unicode="&#xbf;" horiz-adv-x="350" d="M264 438q17 -12 37 17q8 11 9 23t-6 17t-18.5 0.5t-19.5 -16.5t-8.5 -24t6.5 -17zM147 18q14 -1 13 -5q-1 -8 -19 -9h-5q-61 4 -84 45.5t-3 101.5q9 28 32 54t49 47t51.5 42.5t44 49.5t22.5 59q0 5 10.5 7t20.5 -0.5t10 -6.5q-4 -29 -26 -60.5t-40.5 -49t-49.5 -43.5 q-88 -73 -93 -134q-3 -40 12.5 -67.5t54.5 -30.5zM224 109q-2 2 1.5 6t8 6.5t6.5 0.5q14 -18 12.5 -37.5t-15.5 -36.5q-35 -44 -102 -44q-2 0 -2 1q0 6 11 12q2 1 3 1q63 0 83 37q15 31 -6 54z" />
<glyph unicode="&#xc0;" horiz-adv-x="1023" d="M909 616q3 -3 0 -3l1 -1q-3 -11 -7.5 -33.5l-6.5 -32.5q-24 -117 -34 -212q16 4 40 4q69 0 83 -34q1 -2 -3 -3q-14 -6 -27 1q-2 1 -3 2q-14 37 -93 20q-6 -70 -6 -74q-6 -87 2 -133q8 -47 41 -90t80 -48q46 -2 69 34q2 2 4.5 1t4 -3.5t0.5 -4.5q-24 -39 -79 -36h-3 q-58 4 -96 43q-42 40 -52 99q-10 52 -2 138q1 33 6 65q-4 -1 -10 -3t-8 -2q-23 -8 -69 -25t-70 -24q-21 -54 -55 -100q-53 -74 -126.5 -122t-164.5 -49h-7q-5 1 -13 1q-37 4 -65 22q-24 14 -42 44q0 1 -2 4.5t-3 6.5h-18h-9q-60 4 -102 40q-73 65 -63 167q4 42 24.5 72.5 t61.5 30.5q6 0 6 -7q-2 -1 -3 -2q-38 0 -59 -36q-20 -30 -22 -71.5t16 -83.5q17 -44 51 -70q41 -29 96 -31h17q-19 46 -12 110q5 75 44 152q36 75 94 126q57 48 121 52h8q89 0 126 -51q33 -47 19 -112q-8 -53 -48 -113q45 4 98 21q9 23 33 100.5t44 115.5q43 85 110 121 q29 17 56 19q2 1 11 1q14 0 16 -3zM186 171q-5 -51 12 -94q101 4 193 57q66 38 111 97q-117 0 -144 73q-2 4 5 5q19 3 27 -5q7 -20 22 -36q23 -22 64 -26q22 -2 33 -2q38 53 50 119q8 63 -18 103q-31 46 -94 46q-11 0 -16 -1q-62 -6 -120 -62q-53 -50 -87 -126 q-35 -76 -38 -148zM624 228q4 7 10 21q-59 -15 -100 -17q-6 -9 -8 -11q-55 -69 -139.5 -110t-184.5 -43q5 -12 11 -18q34 -50 108 -50q78 0 163 62q86 62 140 166zM841 413q18 114 35 190q-29 -10 -49 -27q-71 -54 -111 -176q-2 -7 -15.5 -53.5t-22.5 -69.5q37 14 78 29 q36 14 73 23q5 42 12 84zM823 760q-1 6 10 6q18 -2 25 -14q16 -29 16 -31q-4 -7 -27 16q-4 4 -8.5 8t-7.5 7t-5.5 5t-2.5 3z" />
<glyph unicode="&#xc1;" horiz-adv-x="1023" d="M909 616q3 -3 0 -3l1 -1q-3 -11 -7.5 -33.5l-6.5 -32.5q-24 -117 -34 -212q16 4 40 4q69 0 83 -34q1 -2 -3 -3q-14 -6 -27 1q-2 1 -3 2q-14 37 -93 20q-6 -70 -6 -74q-6 -87 2 -133q8 -47 41 -90t80 -48q46 -2 69 34q2 2 4.5 1t4 -3.5t0.5 -4.5q-24 -39 -79 -36h-3 q-58 4 -96 43q-42 40 -52 99q-10 52 -2 138q1 33 6 65q-4 -1 -10 -3t-8 -2q-23 -8 -69 -25t-70 -24q-21 -54 -55 -100q-53 -74 -126.5 -122t-164.5 -49h-7q-5 1 -13 1q-37 4 -65 22q-24 14 -42 44q0 1 -2 4.5t-3 6.5h-18h-9q-60 4 -102 40q-73 65 -63 167q4 42 24.5 72.5 t61.5 30.5q6 0 6 -7q-2 -1 -3 -2q-38 0 -59 -36q-20 -30 -22 -71.5t16 -83.5q17 -44 51 -70q41 -29 96 -31h17q-19 46 -12 110q5 75 44 152q36 75 94 126q57 48 121 52h8q89 0 126 -51q33 -47 19 -112q-8 -53 -48 -113q45 4 98 21q9 23 33 100.5t44 115.5q43 85 110 121 q29 17 56 19q2 1 11 1q14 0 16 -3zM186 171q-5 -51 12 -94q101 4 193 57q66 38 111 97q-117 0 -144 73q-2 4 5 5q19 3 27 -5q7 -20 22 -36q23 -22 64 -26q22 -2 33 -2q38 53 50 119q8 63 -18 103q-31 46 -94 46q-11 0 -16 -1q-62 -6 -120 -62q-53 -50 -87 -126 q-35 -76 -38 -148zM624 228q4 7 10 21q-59 -15 -100 -17q-6 -9 -8 -11q-55 -69 -139.5 -110t-184.5 -43q5 -12 11 -18q34 -50 108 -50q78 0 163 62q86 62 140 166zM841 413q18 114 35 190q-29 -10 -49 -27q-71 -54 -111 -176q-2 -7 -15.5 -53.5t-22.5 -69.5q37 14 78 29 q36 14 73 23q5 42 12 84zM901 732q-23 -23 -27 -16q0 2 16 31q7 12 25 14q11 0 10 -6q0 -1 -3.5 -4t-9.5 -8.5t-11 -10.5z" />
<glyph unicode="&#xc2;" horiz-adv-x="1023" d="M909 616q3 -3 0 -3l1 -1q-3 -11 -7.5 -33.5l-6.5 -32.5q-24 -117 -34 -212q16 4 40 4q69 0 83 -34q1 -2 -3 -3q-14 -6 -27 1q-2 1 -3 2q-14 37 -93 20q-6 -70 -6 -74q-6 -87 2 -133q8 -47 41 -90t80 -48q46 -2 69 34q2 2 4.5 1t4 -3.5t0.5 -4.5q-24 -39 -79 -36h-3 q-58 4 -96 43q-42 40 -52 99q-10 52 -2 138q1 33 6 65q-4 -1 -10 -3t-8 -2q-23 -8 -69 -25t-70 -24q-21 -54 -55 -100q-53 -74 -126.5 -122t-164.5 -49h-7q-5 1 -13 1q-37 4 -65 22q-24 14 -42 44q0 1 -2 4.5t-3 6.5h-18h-9q-60 4 -102 40q-73 65 -63 167q4 42 24.5 72.5 t61.5 30.5q6 0 6 -7q-2 -1 -3 -2q-38 0 -59 -36q-20 -30 -22 -71.5t16 -83.5q17 -44 51 -70q41 -29 96 -31h17q-19 46 -12 110q5 75 44 152q36 75 94 126q57 48 121 52h8q89 0 126 -51q33 -47 19 -112q-8 -53 -48 -113q45 4 98 21q9 23 33 100.5t44 115.5q43 85 110 121 q29 17 56 19q2 1 11 1q14 0 16 -3zM186 171q-5 -51 12 -94q101 4 193 57q66 38 111 97q-117 0 -144 73q-2 4 5 5q19 3 27 -5q7 -20 22 -36q23 -22 64 -26q22 -2 33 -2q38 53 50 119q8 63 -18 103q-31 46 -94 46q-11 0 -16 -1q-62 -6 -120 -62q-53 -50 -87 -126 q-35 -76 -38 -148zM624 228q4 7 10 21q-59 -15 -100 -17q-6 -9 -8 -11q-55 -69 -139.5 -110t-184.5 -43q5 -12 11 -18q34 -50 108 -50q78 0 163 62q86 62 140 166zM841 413q18 114 35 190q-29 -10 -49 -27q-71 -54 -111 -176q-2 -7 -15.5 -53.5t-22.5 -69.5q37 14 78 29 q36 14 73 23q5 42 12 84zM873 759q3 3 9.5 3t7.5 -4t4 -10t3 -7q10 -20 14 -21q6 0 6 -2q0 -3 -7 -4h-3q-19 3 -29 31l-32 -26q-9 -5 -14 -1z" />
<glyph unicode="&#xc3;" horiz-adv-x="1023" d="M909 616q3 -3 0 -3l1 -1q-3 -11 -7.5 -33.5l-6.5 -32.5q-24 -117 -34 -212q16 4 40 4q69 0 83 -34q1 -2 -3 -3q-14 -6 -27 1q-2 1 -3 2q-14 37 -93 20q-6 -70 -6 -74q-6 -87 2 -133q8 -47 41 -90t80 -48q46 -2 69 34q2 2 4.5 1t4 -3.5t0.5 -4.5q-24 -39 -79 -36h-3 q-58 4 -96 43q-42 40 -52 99q-10 52 -2 138q1 33 6 65q-4 -1 -10 -3t-8 -2q-23 -8 -69 -25t-70 -24q-21 -54 -55 -100q-53 -74 -126.5 -122t-164.5 -49h-7q-5 1 -13 1q-37 4 -65 22q-24 14 -42 44q0 1 -2 4.5t-3 6.5h-18h-9q-60 4 -102 40q-73 65 -63 167q4 42 24.5 72.5 t61.5 30.5q6 0 6 -7q-2 -1 -3 -2q-38 0 -59 -36q-20 -30 -22 -71.5t16 -83.5q17 -44 51 -70q41 -29 96 -31h17q-19 46 -12 110q5 75 44 152q36 75 94 126q57 48 121 52h8q89 0 126 -51q33 -47 19 -112q-8 -53 -48 -113q45 4 98 21q9 23 33 100.5t44 115.5q43 85 110 121 q29 17 56 19q2 1 11 1q14 0 16 -3zM186 171q-5 -51 12 -94q101 4 193 57q66 38 111 97q-117 0 -144 73q-2 4 5 5q19 3 27 -5q7 -20 22 -36q23 -22 64 -26q22 -2 33 -2q38 53 50 119q8 63 -18 103q-31 46 -94 46q-11 0 -16 -1q-62 -6 -120 -62q-53 -50 -87 -126 q-35 -76 -38 -148zM624 228q4 7 10 21q-59 -15 -100 -17q-6 -9 -8 -11q-55 -69 -139.5 -110t-184.5 -43q5 -12 11 -18q34 -50 108 -50q78 0 163 62q86 62 140 166zM841 413q18 114 35 190q-29 -10 -49 -27q-71 -54 -111 -176q-2 -7 -15.5 -53.5t-22.5 -69.5q37 14 78 29 q36 14 73 23q5 42 12 84zM842 729q-2 -5 -6 -1q-1 1 0 2q10 15 22 15q2 0 10 -2q2 -1 13 -11q13 -13 25 -1q4 4 6 2q1 -1 0 -3q-8 -16 -28 -12q-10 2 -15 10t-7 9q-4 3 -11 0t-9 -8z" />
<glyph unicode="&#xc4;" horiz-adv-x="1023" d="M909 616q3 -3 0 -3l1 -1q-3 -11 -7.5 -33.5l-6.5 -32.5q-24 -117 -34 -212q16 4 40 4q69 0 83 -34q1 -2 -3 -3q-14 -6 -27 1q-2 1 -3 2q-14 37 -93 20q-6 -70 -6 -74q-6 -87 2 -133q8 -47 41 -90t80 -48q46 -2 69 34q2 2 4.5 1t4 -3.5t0.5 -4.5q-24 -39 -79 -36h-3 q-58 4 -96 43q-42 40 -52 99q-10 52 -2 138q1 33 6 65q-4 -1 -10 -3t-8 -2q-23 -8 -69 -25t-70 -24q-21 -54 -55 -100q-53 -74 -126.5 -122t-164.5 -49h-7q-5 1 -13 1q-37 4 -65 22q-24 14 -42 44q0 1 -2 4.5t-3 6.5h-18h-9q-60 4 -102 40q-73 65 -63 167q4 42 24.5 72.5 t61.5 30.5q6 0 6 -7q-2 -1 -3 -2q-38 0 -59 -36q-20 -30 -22 -71.5t16 -83.5q17 -44 51 -70q41 -29 96 -31h17q-19 46 -12 110q5 75 44 152q36 75 94 126q57 48 121 52h8q89 0 126 -51q33 -47 19 -112q-8 -53 -48 -113q45 4 98 21q9 23 33 100.5t44 115.5q43 85 110 121 q29 17 56 19q2 1 11 1q14 0 16 -3zM186 171q-5 -51 12 -94q101 4 193 57q66 38 111 97q-117 0 -144 73q-2 4 5 5q19 3 27 -5q7 -20 22 -36q23 -22 64 -26q22 -2 33 -2q38 53 50 119q8 63 -18 103q-31 46 -94 46q-11 0 -16 -1q-62 -6 -120 -62q-53 -50 -87 -126 q-35 -76 -38 -148zM624 228q4 7 10 21q-59 -15 -100 -17q-6 -9 -8 -11q-55 -69 -139.5 -110t-184.5 -43q5 -12 11 -18q34 -50 108 -50q78 0 163 62q86 62 140 166zM841 413q18 114 35 190q-29 -10 -49 -27q-71 -54 -111 -176q-2 -7 -15.5 -53.5t-22.5 -69.5q37 14 78 29 q36 14 73 23q5 42 12 84zM856 731q5 8 5 16.5t-5 11.5q-12 5 -26 -14q-11 -22 1 -29q14 -7 25 15zM917 731q11 21 -1 28q-14 5 -25 -14q-12 -21 0 -29q13 -7 26 15z" />
<glyph unicode="&#xc5;" horiz-adv-x="1023" d="M909 616q3 -3 0 -3l1 -1q-3 -11 -7.5 -33.5l-6.5 -32.5q-24 -117 -34 -212q16 4 40 4q69 0 83 -34q1 -2 -3 -3q-14 -6 -27 1q-2 1 -3 2q-14 37 -93 20q-6 -70 -6 -74q-6 -87 2 -133q8 -47 41 -90t80 -48q46 -2 69 34q2 2 4.5 1t4 -3.5t0.5 -4.5q-24 -39 -79 -36h-3 q-58 4 -96 43q-42 40 -52 99q-10 52 -2 138q1 33 6 65q-4 -1 -10 -3t-8 -2q-23 -8 -69 -25t-70 -24q-21 -54 -55 -100q-53 -74 -126.5 -122t-164.5 -49h-7q-5 1 -13 1q-37 4 -65 22q-24 14 -42 44q0 1 -2 4.5t-3 6.5h-18h-9q-60 4 -102 40q-73 65 -63 167q4 42 24.5 72.5 t61.5 30.5q6 0 6 -7q-2 -1 -3 -2q-38 0 -59 -36q-20 -30 -22 -71.5t16 -83.5q17 -44 51 -70q41 -29 96 -31h17q-19 46 -12 110q5 75 44 152q36 75 94 126q57 48 121 52h8q89 0 126 -51q33 -47 19 -112q-8 -53 -48 -113q45 4 98 21q9 23 33 100.5t44 115.5q43 85 110 121 q29 17 56 19q2 1 11 1q14 0 16 -3zM186 171q-5 -51 12 -94q101 4 193 57q66 38 111 97q-117 0 -144 73q-2 4 5 5q19 3 27 -5q7 -20 22 -36q23 -22 64 -26q22 -2 33 -2q38 53 50 119q8 63 -18 103q-31 46 -94 46q-11 0 -16 -1q-62 -6 -120 -62q-53 -50 -87 -126 q-35 -76 -38 -148zM624 228q4 7 10 21q-59 -15 -100 -17q-6 -9 -8 -11q-55 -69 -139.5 -110t-184.5 -43q5 -12 11 -18q34 -50 108 -50q78 0 163 62q86 62 140 166zM841 413q18 114 35 190q-29 -10 -49 -27q-71 -54 -111 -176q-2 -7 -15.5 -53.5t-22.5 -69.5q37 14 78 29 q36 14 73 23q5 42 12 84zM855 746q10 19 27 14q22 -8 10 -31q-9 -18 -28 -13q-9 4 -11.5 13t2.5 17zM867 724q8 -5 14 7q7 15 0 20q-9 4 -16 -7q-7 -16 2 -20z" />
<glyph unicode="&#xc6;" horiz-adv-x="1317" d="M1 275q4 42 24.5 72.5t61.5 30.5q6 0 6 -7q-2 -1 -3 -2q-38 0 -59 -36q-20 -30 -22 -71.5t16 -83.5q17 -44 51 -70q41 -29 96 -31h17q-19 46 -12 110q5 75 44 152q36 75 94 126q57 48 121 52h8q89 0 126 -51q33 -47 19 -112q-8 -53 -48 -113q45 4 98 21q9 23 33 100.5 t44 115.5q28 57 68 91q-6 11 -9 25q-5 20 0.5 37.5t23.5 17.5q5 0 7 -5q1 -4 -3 -4q-3 0 -5 -1q-10 -4 -14 -20q-3 -15 4 -37l3 -7q18 15 35 24q29 17 56 19q2 1 11 1q14 0 16 -3q3 -3 0 -3l1 -1q-3 -11 -7.5 -33.5l-6.5 -32.5l-10 -54q22 -8 33 -11q-18 62 30 101.5 t116 39.5h9q4 -1 10 -1q34 -5 65.5 -27.5t40.5 -53.5q11 -40 -20 -59t-77 -24q-66 -6 -136 7q29 -63 117 -128l1 -2q0 -4 -14 -4q-5 0 -8 1h-5h-1h-1q-24 0 -35 -1q-120 -8 -150 -77q-23 -52 9 -128q19 -47 64 -87t90 -43q12 0 32 2q-36 33 -54.5 73t-14.5 78q4 43 32 74 t72 35h8q23 0 41 -11q21 -11 38 -39q28 -49 23 -100q-4 -37 -33 -69q-30 -30 -76 -44q63 -51 128 -50q26 2 44 10q38 14 53 48q16 37 -1 87q-1 4 2 4q5 1 7 -4q11 -32 10 -57q-2 -40 -29.5 -65.5t-70.5 -30.5q-4 -1 -12 -1q-64 -2 -117 27q-22 11 -40 26q-11 -2 -34 -2 q-7 -2 -11 0q-55 2 -107.5 43t-75.5 96q-21 52 -17 93q0 22 1 32q1 33 6 65l-18 -5q-23 -8 -69 -25t-70 -24q-21 -54 -55 -100q-53 -74 -126.5 -122t-164.5 -49h-7q-5 1 -13 1q-37 4 -65 22q-24 14 -42 44q0 1 -2 4.5t-3 6.5h-18h-9q-60 4 -102 40q-73 65 -63 167zM186 171 q-5 -51 12 -94q101 4 193 57q66 38 111 97q-117 0 -144 73q-2 4 5 5q19 3 27 -5q7 -20 22 -36q23 -22 64 -26q22 -2 33 -2q38 53 50 119q8 63 -18 103q-31 46 -94 46q-11 0 -16 -1q-62 -6 -120 -62q-53 -50 -87 -126q-35 -76 -38 -148zM202 68q5 -12 11 -18q34 -50 108 -50 q78 0 163 62q86 62 140 166q4 7 10 21q-59 -15 -100 -17q-6 -9 -8 -11q-55 -69 -139.5 -110t-184.5 -43zM678 277q37 14 78 29q36 14 73 23q5 42 12 84q5 33 14 85q-34 19 -58 51q-49 -52 -81 -149q-2 -7 -15.5 -53.5t-22.5 -69.5zM802 555q21 -29 55 -48q5 32 19 96 q-29 -10 -49 -27q-9 -7 -25 -21zM857 292q21 19 54 31q56 20 124 18q-67 51 -96 97q-10 15 -17 34q-21 5 -37 12q-5 -29 -12.5 -81t-10.5 -69q-4 -22 -5 -42zM949 534q-7 -29 4 -61q10 -2 28 -4q74 -10 130 0q36 7 59 27t7 55q-14 28 -46.5 45t-62.5 17q-42 -1 -75.5 -22.5 t-43.5 -56.5zM1023 95q15 -52 60 -92q9 1 18 6q83 32 90 105q4 41 -20.5 88t-69.5 46q-40 -5 -66 -51t-12 -102z" />
<glyph unicode="&#xc7;" horiz-adv-x="766" d="M654 613q27 -17 35 -46q23 -86 -83 -137q-86 -40 -210 -42h-4q-62 2 -101 10q-23 -92 11 -192q20 -59 60.5 -112t93.5 -75q-17 63 2 111q15 46 53 73t93 28h7q35 -2 55 -30q17 -23 15 -60q-1 -29 -20 -67q-20 -34 -54 -55t-76 -23h-10q-16 0 -25 1q3 -4 7.5 -12.5 t6.5 -12.5q34 -48 93 -48q16 0 18 -6q1 -2 -0.5 -3t-5 -1.5t-5 -0.5h-3.5q-62 0 -99 30q-33 23 -46 60q-27 6 -63 27q-46 29 -80 79q-50 71 -64 152.5t6 143.5q-5 2 -21 7q-24 8 -49 22q-16 -11 -35 -14q-14 -4 -43.5 -5.5t-40.5 -3.5q-38 -11 -50 -29q-17 -27 -9 -47 q2 -6 -3 -6.5t-7 6.5q-10 34 11 58q34 32 102 32q24 0 35 4q22 7 29 12q-22 13 -42 31q-40 36 -58 100q-17 61 11 84q19 19 67 19h9q4 0 5 -1q25 -3 47 -22q20 -20 28 -45q20 -54 -4 -111q-13 -32 -36 -52q28 -17 58 -27q4 14 13 35q39 78 120 127.5t180 50.5h3q43 0 73 -17 zM178 466q3 -3 10 -8t9 -7q27 22 37 53q25 56 1 108q-7 22 -26 38q-20 16 -48 16q-38 0 -51 -27q-15 -32 11 -96q17 -43 57 -77zM481 78q0 -42 11 -71q14 -3 27 -3q50 0 87 27q64 45 65 117q0 32 -15 52q-18 22 -49 22q-56 -1 -90.5 -44t-35.5 -100zM668 494q24 35 11 75 q-6 25 -32 38q-29 13 -66 13q-82 0 -168 -56q-89 -57 -119 -155q45 -11 95 -11q61 0 116 12q54 9 98 31q48 23 65 53zM523 -115q8 0 12 13q4 11 -5 12q-4 1 -5 3l8 14q1 4 10 1q2 -1 2 -2l-6 -12q12 -3 8 -16q-5 -17 -21 -18q-6 0 -7 3z" />
<glyph unicode="&#xc8;" horiz-adv-x="538" d="M305 621q34 -5 65.5 -27.5t40.5 -53.5q11 -40 -20 -59t-77 -24q-66 -6 -136 7q29 -63 117 -128l1 -2q0 -4 -14 -4q-5 0 -8 1h-5h-1h-1q-24 0 -35 -1q-120 -8 -150 -77q-23 -52 9 -128q19 -47 64 -87t90 -43q12 0 32 2q-36 33 -54.5 73t-14.5 78q4 43 32 74t72 35h8 q23 0 41 -11q21 -11 38 -39q28 -49 23 -100q-4 -37 -33 -69q-30 -30 -76 -44q63 -51 128 -50q26 2 44 10q38 14 53 48q16 37 -1 87q-1 4 2 4q5 1 7 -4q11 -32 10 -57q-2 -40 -29.5 -65.5t-70.5 -30.5q-4 -1 -12 -1q-64 -2 -117 27q-22 11 -40 26q-11 -2 -34 -2q-7 -2 -11 0 q-55 2 -107.5 43t-75.5 96q-34 81 -6 135q20 42 79 63q56 20 124 18q-67 51 -96 97q-10 15 -17 34q-35 8 -65 25q-69 39 -82 97q-5 20 0.5 37.5t23.5 17.5q5 0 7 -5q1 -4 -3 -4q-3 0 -5 -1q-10 -4 -14 -20q-3 -15 4 -37q19 -54 91 -87q22 -8 40 -14q-18 62 30 101.5 t116 39.5h9q4 -1 10 -1zM244 95q15 -52 60 -92q9 1 18 6q83 32 90 105q4 41 -20.5 88t-69.5 46q-40 -5 -66 -51t-12 -102zM332 469q36 7 59 27t7 55q-14 28 -46.5 45t-62.5 17q-42 -1 -75.5 -22.5t-43.5 -56.5q-7 -29 4 -61q10 -2 28 -4q74 -10 130 0zM268 760q-1 6 10 6 q18 -2 25 -14q16 -29 16 -31q-4 -7 -27 16q-4 4 -8.5 8t-7.5 7t-5.5 5t-2.5 3z" />
<glyph unicode="&#xc9;" horiz-adv-x="538" d="M305 621q34 -5 65.5 -27.5t40.5 -53.5q11 -40 -20 -59t-77 -24q-66 -6 -136 7q29 -63 117 -128l1 -2q0 -4 -14 -4q-5 0 -8 1h-5h-1h-1q-24 0 -35 -1q-120 -8 -150 -77q-23 -52 9 -128q19 -47 64 -87t90 -43q12 0 32 2q-36 33 -54.5 73t-14.5 78q4 43 32 74t72 35h8 q23 0 41 -11q21 -11 38 -39q28 -49 23 -100q-4 -37 -33 -69q-30 -30 -76 -44q63 -51 128 -50q26 2 44 10q38 14 53 48q16 37 -1 87q-1 4 2 4q5 1 7 -4q11 -32 10 -57q-2 -40 -29.5 -65.5t-70.5 -30.5q-4 -1 -12 -1q-64 -2 -117 27q-22 11 -40 26q-11 -2 -34 -2q-7 -2 -11 0 q-55 2 -107.5 43t-75.5 96q-34 81 -6 135q20 42 79 63q56 20 124 18q-67 51 -96 97q-10 15 -17 34q-35 8 -65 25q-69 39 -82 97q-5 20 0.5 37.5t23.5 17.5q5 0 7 -5q1 -4 -3 -4q-3 0 -5 -1q-10 -4 -14 -20q-3 -15 4 -37q19 -54 91 -87q22 -8 40 -14q-18 62 30 101.5 t116 39.5h9q4 -1 10 -1zM244 95q15 -52 60 -92q9 1 18 6q83 32 90 105q4 41 -20.5 88t-69.5 46q-40 -5 -66 -51t-12 -102zM332 469q36 7 59 27t7 55q-14 28 -46.5 45t-62.5 17q-42 -1 -75.5 -22.5t-43.5 -56.5q-7 -29 4 -61q10 -2 28 -4q74 -10 130 0zM346 732 q-23 -23 -27 -16q0 2 16 31q7 12 25 14q11 0 10 -6q0 -1 -3.5 -4t-9.5 -8.5t-11 -10.5z" />
<glyph unicode="&#xca;" horiz-adv-x="538" d="M305 621q34 -5 65.5 -27.5t40.5 -53.5q11 -40 -20 -59t-77 -24q-66 -6 -136 7q29 -63 117 -128l1 -2q0 -4 -14 -4q-5 0 -8 1h-5h-1h-1q-24 0 -35 -1q-120 -8 -150 -77q-23 -52 9 -128q19 -47 64 -87t90 -43q12 0 32 2q-36 33 -54.5 73t-14.5 78q4 43 32 74t72 35h8 q23 0 41 -11q21 -11 38 -39q28 -49 23 -100q-4 -37 -33 -69q-30 -30 -76 -44q63 -51 128 -50q26 2 44 10q38 14 53 48q16 37 -1 87q-1 4 2 4q5 1 7 -4q11 -32 10 -57q-2 -40 -29.5 -65.5t-70.5 -30.5q-4 -1 -12 -1q-64 -2 -117 27q-22 11 -40 26q-11 -2 -34 -2q-7 -2 -11 0 q-55 2 -107.5 43t-75.5 96q-34 81 -6 135q20 42 79 63q56 20 124 18q-67 51 -96 97q-10 15 -17 34q-35 8 -65 25q-69 39 -82 97q-5 20 0.5 37.5t23.5 17.5q5 0 7 -5q1 -4 -3 -4q-3 0 -5 -1q-10 -4 -14 -20q-3 -15 4 -37q19 -54 91 -87q22 -8 40 -14q-18 62 30 101.5 t116 39.5h9q4 -1 10 -1zM244 95q15 -52 60 -92q9 1 18 6q83 32 90 105q4 41 -20.5 88t-69.5 46q-40 -5 -66 -51t-12 -102zM332 469q36 7 59 27t7 55q-14 28 -46.5 45t-62.5 17q-42 -1 -75.5 -22.5t-43.5 -56.5q-7 -29 4 -61q10 -2 28 -4q74 -10 130 0zM318 759q2 3 9 3t8 -4 t4 -10t3 -7q10 -20 14 -21q6 0 6 -2q0 -3 -7 -4h-3q-19 3 -29 31l-32 -26q-9 -5 -14 -1z" />
<glyph unicode="&#xcb;" horiz-adv-x="538" d="M305 621q34 -5 65.5 -27.5t40.5 -53.5q11 -40 -20 -59t-77 -24q-66 -6 -136 7q29 -63 117 -128l1 -2q0 -4 -14 -4q-5 0 -8 1h-5h-1h-1q-24 0 -35 -1q-120 -8 -150 -77q-23 -52 9 -128q19 -47 64 -87t90 -43q12 0 32 2q-36 33 -54.5 73t-14.5 78q4 43 32 74t72 35h8 q23 0 41 -11q21 -11 38 -39q28 -49 23 -100q-4 -37 -33 -69q-30 -30 -76 -44q63 -51 128 -50q26 2 44 10q38 14 53 48q16 37 -1 87q-1 4 2 4q5 1 7 -4q11 -32 10 -57q-2 -40 -29.5 -65.5t-70.5 -30.5q-4 -1 -12 -1q-64 -2 -117 27q-22 11 -40 26q-11 -2 -34 -2q-7 -2 -11 0 q-55 2 -107.5 43t-75.5 96q-34 81 -6 135q20 42 79 63q56 20 124 18q-67 51 -96 97q-10 15 -17 34q-35 8 -65 25q-69 39 -82 97q-5 20 0.5 37.5t23.5 17.5q5 0 7 -5q1 -4 -3 -4q-3 0 -5 -1q-10 -4 -14 -20q-3 -15 4 -37q19 -54 91 -87q22 -8 40 -14q-18 62 30 101.5 t116 39.5h9q4 -1 10 -1zM244 95q15 -52 60 -92q9 1 18 6q83 32 90 105q4 41 -20.5 88t-69.5 46q-40 -5 -66 -51t-12 -102zM332 469q36 7 59 27t7 55q-14 28 -46.5 45t-62.5 17q-42 -1 -75.5 -22.5t-43.5 -56.5q-7 -29 4 -61q10 -2 28 -4q74 -10 130 0zM301 731q5 8 5 16.5 t-5 11.5q-12 5 -26 -14q-11 -22 1 -29q14 -7 25 15zM362 731q11 21 -1 28q-14 5 -25 -14q-12 -21 0 -29q13 -7 26 15z" />
<glyph unicode="&#xcc;" horiz-adv-x="772" d="M770 621q15 -4 24 -13q15 -13 15 -29q0 -12 -10 -19q-10 -8 -29 -11q-18 -3 -38 -3h-5q-13 0 -39 2l-1 -1q-6 -19 -10 -76q-16 -220 -47 -320q-61 -190 -213 -191h-7h-11q-65 8 -116 60q-20 -2 -31 -2h-6h-12q-63 5 -105 49q-37 38 -48 100q-2 10 -2 16q-14 -4 -27 -10 q-33 -18 -42 -55q-1 -6 -7 -1q-4 2 -3 5q5 22 18 37q18 24 60 34q-3 47 9 88q16 58 54 95q40 36 92 39h7h6q6 8 9 11q42 48 111 51h7q89 0 126 -53q32 -44 26 -115q-5 -67 -43 -137q-72 -129 -189 -150l3 -4q52 -49 117 -49q87 1 141 87q40 62 58 141.5t27 186.5 q1 12 2.5 49.5t4.5 66t11 51.5q-40 6 -62 11q-41 9 -70 19q-61 22 -76 22q-18 0 -33 -6q31 -5 50.5 -20t16.5 -33q-7 -34 -58 -29q-21 2 -34 14.5t-12 30.5q0 15 10 30q-37 4 -87.5 -1t-75.5 -14q-42 -15 -33 -42q2 -5 -3 -5t-7 5q-6 18 6 30q22 24 77 32q61 9 133 4 q20 14 47 14q20 0 43.5 -6.5t52.5 -17t45 -14.5q34 -9 73 -15q26 65 94 64q11 0 16 -3zM404 588q-6 -3 -11.5 -14t-3.5 -24q4 -23 33 -26q37 -3 40 22q2 13 -10 23q-17 17 -48 19zM359 467q-62 -6 -99 -53q41 -3 77 -25q33 -21 51 -53.5t14 -62.5q-10 -73 -128 -73 q-10 0 -30 -0.5t-30 -0.5q5 -35 13 -61q19 -63 57 -106q49 10 96 52q105 95 114 231q4 63 -23 105q-32 48 -95 48q-12 0 -17 -1zM253 405q-34 -47 -41 -123q-3 -38 1 -73h57q53 0 79 25q20 18 21.5 46.5t-16.5 59.5q-16 27 -44 44.5t-57 20.5zM94 265q-8 -37 -7 -69q2 0 6 1 t6 1q46 8 104 10q-6 52 1 95q8 61 36 103q-7 0 -11 -1q-51 -4 -88 -46q-34 -37 -47 -94zM143 65q41 -38 105 -38q14 0 27 3q-44 52 -61 123q-4 15 -10 45q-6 0 -18 -0.5t-19 -0.5q-49 -4 -79 -11q2 -21 5 -31q13 -58 50 -90zM799 581q2 11 -12 23q-12 9 -30 11 q-45 0 -66 -58q22 -2 32 -2q24 0 43 4q33 5 33 22zM681 760q-1 6 10 6q18 -2 25 -14q16 -29 16 -31q-4 -7 -27 16q-4 4 -8.5 8t-7.5 7t-5.5 5t-2.5 3z" />
<glyph unicode="&#xcd;" horiz-adv-x="772" d="M770 621q15 -4 24 -13q15 -13 15 -29q0 -12 -10 -19q-10 -8 -29 -11q-18 -3 -38 -3h-5q-13 0 -39 2l-1 -1q-6 -19 -10 -76q-16 -220 -47 -320q-61 -190 -213 -191h-7h-11q-65 8 -116 60q-20 -2 -31 -2h-6h-12q-63 5 -105 49q-37 38 -48 100q-2 10 -2 16q-14 -4 -27 -10 q-33 -18 -42 -55q-1 -6 -7 -1q-4 2 -3 5q5 22 18 37q18 24 60 34q-3 47 9 88q16 58 54 95q40 36 92 39h7h6q6 8 9 11q42 48 111 51h7q89 0 126 -53q32 -44 26 -115q-5 -67 -43 -137q-72 -129 -189 -150l3 -4q52 -49 117 -49q87 1 141 87q40 62 58 141.5t27 186.5 q1 12 2.5 49.5t4.5 66t11 51.5q-40 6 -62 11q-41 9 -70 19q-61 22 -76 22q-18 0 -33 -6q31 -5 50.5 -20t16.5 -33q-7 -34 -58 -29q-21 2 -34 14.5t-12 30.5q0 15 10 30q-37 4 -87.5 -1t-75.5 -14q-42 -15 -33 -42q2 -5 -3 -5t-7 5q-6 18 6 30q22 24 77 32q61 9 133 4 q20 14 47 14q20 0 43.5 -6.5t52.5 -17t45 -14.5q34 -9 73 -15q26 65 94 64q11 0 16 -3zM404 588q-6 -3 -11.5 -14t-3.5 -24q4 -23 33 -26q37 -3 40 22q2 13 -10 23q-17 17 -48 19zM359 467q-62 -6 -99 -53q41 -3 77 -25q33 -21 51 -53.5t14 -62.5q-10 -73 -128 -73 q-10 0 -30 -0.5t-30 -0.5q5 -35 13 -61q19 -63 57 -106q49 10 96 52q105 95 114 231q4 63 -23 105q-32 48 -95 48q-12 0 -17 -1zM253 405q-34 -47 -41 -123q-3 -38 1 -73h57q53 0 79 25q20 18 21.5 46.5t-16.5 59.5q-16 27 -44 44.5t-57 20.5zM94 265q-8 -37 -7 -69q2 0 6 1 t6 1q46 8 104 10q-6 52 1 95q8 61 36 103q-7 0 -11 -1q-51 -4 -88 -46q-34 -37 -47 -94zM143 65q41 -38 105 -38q14 0 27 3q-44 52 -61 123q-4 15 -10 45q-6 0 -18 -0.5t-19 -0.5q-49 -4 -79 -11q2 -21 5 -31q13 -58 50 -90zM799 581q2 11 -12 23q-12 9 -30 11 q-45 0 -66 -58q22 -2 32 -2q24 0 43 4q33 5 33 22zM759 732q-23 -23 -27 -16q0 2 16 31q7 12 25 14q11 0 10 -6q0 -1 -3.5 -4t-9.5 -8.5t-11 -10.5z" />
<glyph unicode="&#xce;" horiz-adv-x="772" d="M770 621q15 -4 24 -13q15 -13 15 -29q0 -12 -10 -19q-10 -8 -29 -11q-18 -3 -38 -3h-5q-13 0 -39 2l-1 -1q-6 -19 -10 -76q-16 -220 -47 -320q-61 -190 -213 -191h-7h-11q-65 8 -116 60q-20 -2 -31 -2h-6h-12q-63 5 -105 49q-37 38 -48 100q-2 10 -2 16q-14 -4 -27 -10 q-33 -18 -42 -55q-1 -6 -7 -1q-4 2 -3 5q5 22 18 37q18 24 60 34q-3 47 9 88q16 58 54 95q40 36 92 39h7h6q6 8 9 11q42 48 111 51h7q89 0 126 -53q32 -44 26 -115q-5 -67 -43 -137q-72 -129 -189 -150l3 -4q52 -49 117 -49q87 1 141 87q40 62 58 141.5t27 186.5 q1 12 2.5 49.5t4.5 66t11 51.5q-40 6 -62 11q-41 9 -70 19q-61 22 -76 22q-18 0 -33 -6q31 -5 50.5 -20t16.5 -33q-7 -34 -58 -29q-21 2 -34 14.5t-12 30.5q0 15 10 30q-37 4 -87.5 -1t-75.5 -14q-42 -15 -33 -42q2 -5 -3 -5t-7 5q-6 18 6 30q22 24 77 32q61 9 133 4 q20 14 47 14q20 0 43.5 -6.5t52.5 -17t45 -14.5q34 -9 73 -15q26 65 94 64q11 0 16 -3zM404 588q-6 -3 -11.5 -14t-3.5 -24q4 -23 33 -26q37 -3 40 22q2 13 -10 23q-17 17 -48 19zM359 467q-62 -6 -99 -53q41 -3 77 -25q33 -21 51 -53.5t14 -62.5q-10 -73 -128 -73 q-10 0 -30 -0.5t-30 -0.5q5 -35 13 -61q19 -63 57 -106q49 10 96 52q105 95 114 231q4 63 -23 105q-32 48 -95 48q-12 0 -17 -1zM253 405q-34 -47 -41 -123q-3 -38 1 -73h57q53 0 79 25q20 18 21.5 46.5t-16.5 59.5q-16 27 -44 44.5t-57 20.5zM94 265q-8 -37 -7 -69q2 0 6 1 t6 1q46 8 104 10q-6 52 1 95q8 61 36 103q-7 0 -11 -1q-51 -4 -88 -46q-34 -37 -47 -94zM143 65q41 -38 105 -38q14 0 27 3q-44 52 -61 123q-4 15 -10 45q-6 0 -18 -0.5t-19 -0.5q-49 -4 -79 -11q2 -21 5 -31q13 -58 50 -90zM799 581q2 11 -12 23q-12 9 -30 11 q-45 0 -66 -58q22 -2 32 -2q24 0 43 4q33 5 33 22zM731 759q3 3 9.5 3t7.5 -4t4 -10t3 -7q10 -20 14 -21q6 0 6 -2q0 -3 -7 -4h-3q-19 3 -29 31l-32 -26q-9 -5 -14 -1z" />
<glyph unicode="&#xcf;" horiz-adv-x="772" d="M770 621q15 -4 24 -13q15 -13 15 -29q0 -12 -10 -19q-10 -8 -29 -11q-18 -3 -38 -3h-5q-13 0 -39 2l-1 -1q-6 -19 -10 -76q-16 -220 -47 -320q-61 -190 -213 -191h-7h-11q-65 8 -116 60q-20 -2 -31 -2h-6h-12q-63 5 -105 49q-37 38 -48 100q-2 10 -2 16q-14 -4 -27 -10 q-33 -18 -42 -55q-1 -6 -7 -1q-4 2 -3 5q5 22 18 37q18 24 60 34q-3 47 9 88q16 58 54 95q40 36 92 39h7h6q6 8 9 11q42 48 111 51h7q89 0 126 -53q32 -44 26 -115q-5 -67 -43 -137q-72 -129 -189 -150l3 -4q52 -49 117 -49q87 1 141 87q40 62 58 141.5t27 186.5 q1 12 2.5 49.5t4.5 66t11 51.5q-40 6 -62 11q-41 9 -70 19q-61 22 -76 22q-18 0 -33 -6q31 -5 50.5 -20t16.5 -33q-7 -34 -58 -29q-21 2 -34 14.5t-12 30.5q0 15 10 30q-37 4 -87.5 -1t-75.5 -14q-42 -15 -33 -42q2 -5 -3 -5t-7 5q-6 18 6 30q22 24 77 32q61 9 133 4 q20 14 47 14q20 0 43.5 -6.5t52.5 -17t45 -14.5q34 -9 73 -15q26 65 94 64q11 0 16 -3zM404 588q-6 -3 -11.5 -14t-3.5 -24q4 -23 33 -26q37 -3 40 22q2 13 -10 23q-17 17 -48 19zM359 467q-62 -6 -99 -53q41 -3 77 -25q33 -21 51 -53.5t14 -62.5q-10 -73 -128 -73 q-10 0 -30 -0.5t-30 -0.5q5 -35 13 -61q19 -63 57 -106q49 10 96 52q105 95 114 231q4 63 -23 105q-32 48 -95 48q-12 0 -17 -1zM253 405q-34 -47 -41 -123q-3 -38 1 -73h57q53 0 79 25q20 18 21.5 46.5t-16.5 59.5q-16 27 -44 44.5t-57 20.5zM94 265q-8 -37 -7 -69q2 0 6 1 t6 1q46 8 104 10q-6 52 1 95q8 61 36 103q-7 0 -11 -1q-51 -4 -88 -46q-34 -37 -47 -94zM143 65q41 -38 105 -38q14 0 27 3q-44 52 -61 123q-4 15 -10 45q-6 0 -18 -0.5t-19 -0.5q-49 -4 -79 -11q2 -21 5 -31q13 -58 50 -90zM799 581q2 11 -12 23q-12 9 -30 11 q-45 0 -66 -58q22 -2 32 -2q24 0 43 4q33 5 33 22zM714 731q5 8 5 16.5t-5 11.5q-12 5 -26 -14q-11 -22 1 -29q14 -7 25 15zM775 731q11 21 -1 28q-14 5 -25 -14q-12 -21 0 -29q13 -7 26 15z" />
<glyph unicode="&#xd0;" horiz-adv-x="745" d="M1 467q-6 65 24 110q42 60 119 63h7q67 0 123 -35q20 5 38 5q3 1 8 1q70 0 132 -18q26 29 71 29q16 0 17 -5q1 -1 -0.5 -2t-4.5 -1.5t-5 -0.5h-4q-31 -1 -51 -29q43 -15 81 -43q77 -57 110.5 -143.5t26.5 -167.5q-11 -114 -84.5 -187t-194.5 -76h-3q-56 0 -126 13 q-1 0 -3.5 1t-3.5 1q-53 -38 -116 -38h-4q-32 0 -52 15t-16 37q4 25 37.5 25.5t59.5 -9.5q48 -12 73 -17q14 12 20 18q66 66 93 188q-48 -5 -61 1t-12 28q5 -17 76 -10q9 43 22 167q13 125 33 172q5 13 12 23q-54 19 -119 19q-22 0 -38 -4q65 -48 82 -126q6 -42 4 -86 t-26.5 -79t-66.5 -37h-14q-19 4 -32 13q-21 14 -37 43q-26 46 -30 110q-3 50 15 91q22 49 71 71q-48 32 -97 34q-90 -2 -128 -73q-23 -47 -15 -105t41 -118q35 -59 73 -91q42 -37 81 -37q6 0 7 -6q-1 -3 -3 -4q-47 0 -98 49q-44 40 -75 100q-32 62 -37 121zM100 -6 q-4 -17 10 -28q18 -13 49 -13q48 1 92 35q-11 2 -30.5 6.5t-27.5 6.5q-44 12 -65 11q-24 0 -28 -18zM176 427q1 -15 9 -51q9 -31 22 -53q25 -44 63 -45q35 4 55 54q26 58 12 134q-12 69 -66 116l-9 8q-15 -6 -27 -15q-67 -49 -59 -148zM288 -11q63 -12 123 -12 q130 3 201 109q44 65 50.5 147t-31.5 175q-39 84 -107 132q-22 16 -56 32q-14 -27 -23 -76q-10 -46 -19.5 -138.5t-16.5 -133.5h1q37 5 60.5 2t34.5 -8.5t12 -13.5q1 -16 0 -17q-3 -1 -13 7q-30 21 -96 12h-3q-13 -66 -36 -112q-32 -66 -81 -105z" />
<glyph unicode="&#xd1;" horiz-adv-x="988" d="M1214 582q14 -8 18 -19q1 -2 -3 -4q-4 -1 -11 -1q-8 0 -12 1q-4 6 -9 11q-11 11 -23 11q-52 0 -114 -53q-66 -59 -120 -177q-47 -102 -59 -197q-9 -67 2 -124q4 -25 11 -42q1 -3 -1 -5q-6 -5 -16.5 -4t-14.5 6q-15 22 -29 62q-27 70 -41 164q-17 122 -7 226 q10 108 41 153q-35 -12 -63 -60q-26 -44 -53 -135q-7 -23 -24 -78.5t-26 -85.5q-33 -99 -64 -154q-23 -38 -44 -61q-31 -34 -95 -36q-9 0 -10 1q-74 2 -130 49h-4q-3 -1 -7 -1q-71 2 -116 44q-59 52 -68 141q-36 -2 -67 -9q-25 -5 -38 -17q-11 -13 -4 -31q2 -4 -3 -4t-7 4 q-2 8 -2 11q-3 20 12 30.5t39 16.5q21 5 69 9q-2 38 4 65q11 56 50 92.5t99 37.5q52 77 138 78q4 0 8 -1q25 -2 49 -15q26 -14 46 -43q39 -54 33 -132q-3 -68 -38 -135q-33 -61 -86 -101q-41 -28 -79 -36q48 -41 105 -44q19 0 29 2q32 5 51 20q14 9 29 30q23 29 40 66 q29 56 61 159q6 20 22.5 76t26.5 86q26 83 56 124q32 45 73 50q6 2 13 0q11 -2 13 -6q-13 -15 -24 -47q-52 -142 -11 -372q16 -84 41 -146q1 -2 2.5 -6t2.5 -6q-2 8 -4 24q-9 64 4 136q16 103 71 209q53 108 123 160q46 37 95 41q32 2 50 -8zM415 487q-56 -1 -103 -62l-7 -9 q51 -13 78 -61q22 -37 17 -67q-7 -42 -74 -56q-28 -8 -68 -11q4 -30 8 -47q18 -83 70 -132q48 10 91 44q48 41 78 101q33 64 34 132q2 74 -37 123q-36 45 -87 45zM300 408q-48 -76 -42 -177q36 3 62 10q65 15 70 54q5 33 -23 69q-25 36 -67 44zM182 351q-34 -50 -29 -126 q5 0 14.5 0.5t14.5 1.5q16 0 44 2q-3 58 13 114q11 38 29 66q-50 -6 -86 -58zM154 216q7 -63 46.5 -119.5t102.5 -57.5h4q-57 55 -76 149q-2 9 -4 31q-7 -1 -20.5 -1.5t-20.5 -0.5q-5 0 -15.5 -0.5t-16.5 -0.5zM982 729q-2 -5 -6 -1q-1 1 0 2q10 15 22 15q2 0 10 -2 q2 -1 13 -11q13 -13 25 -1q4 4 6 2q1 -1 0 -3q-8 -16 -28 -12q-10 2 -15 10t-7 9q-4 3 -11 0t-9 -8z" />
<glyph unicode="&#xd2;" horiz-adv-x="689" d="M482 562q48 -25 81.5 -69.5t46 -91t18 -95.5t-2.5 -84q-14 -100 -76.5 -164t-165.5 -65h-6q-68 0 -122 49q-9 7 -23 24q-30 -9 -67 -9h-4q-21 0 -38 4q-2 -12 -11 -26q-19 -25 -62 -25q-16 0 -17 5q-1 1 0.5 2t4.5 1.5t5 0.5h4q36 1 46 49q-27 10 -49 27q-22 20 -35 48 q-13 27 -8 55t29 34q41 10 69 -31q9 -14 20 -48q7 -27 8 -47q1 -17 -2 -37q13 -2 37 -2q30 0 62 10q-20 27 -34 63q-22 52 -27 113q-5 54 5 90q11 39 46 59q-20 26 -25 56q-45 -6 -70 -2q-21 3 -35 15q-17 14 -24 37q-1 4 2 4q5 1 7 -4q10 -26 26 -35q11 -7 35 -9q8 -1 43 2 l15 3q-1 20 5 41q14 41 56.5 60.5t98.5 20.5h4q75 0 130 -29zM58 95q18 -12 37 -18q1 9 1 26q-3 41 -17 76q-6 14 -10.5 21.5t-12 14.5t-15.5 7q-25 0 -31 -31q-4 -23 9.5 -50.5t38.5 -45.5zM205 434q6 -15 16 -28q24 10 48 10q55 0 88 -33q10 21 -9 48q-13 16 -31 26 q-11 5 -20 8q-3 0 -4 1h-1q-1 0 -3 0.5t-3 0.5h-3h-2h-2q-29 0 -64 -5q-3 0 -8 -0.5t-8 -1.5q2 -13 6 -26zM339 365q-25 41 -67 41q-24 0 -44 -9q5 -6 17 -16q31 -22 66 -22q20 0 28 6zM204 130q12 -28 28 -50q28 12 50 30q38 32 59.5 79.5t19.5 100.5q-2 33 -16 63 q-14 -3 -36 -3q-42 2 -75 29l-14 14q-35 -22 -45 -65q-7 -42 -1 -91q8 -58 30 -107zM543 92q47 65 54.5 154t-31.5 185q-41 93 -116 130q-44 20 -95 20q-73 0 -113 -27q-45 -30 -44 -84q46 6 71 6q3 1 6 1q39 0 70 -16q21 -12 34.5 -30.5t12.5 -37.5t-19 -30q18 -31 20 -80 q0 -52 -25 -104q-41 -83 -127 -110q15 -18 28 -28q46 -38 110 -38q103 0 164 89zM351 760q-1 6 10 6q18 -2 25 -14q16 -29 16 -31q-4 -7 -27 16q-4 4 -8.5 8t-7.5 7t-5.5 5t-2.5 3z" />
<glyph unicode="&#xd3;" horiz-adv-x="689" d="M482 562q48 -25 81.5 -69.5t46 -91t18 -95.5t-2.5 -84q-14 -100 -76.5 -164t-165.5 -65h-6q-68 0 -122 49q-9 7 -23 24q-30 -9 -67 -9h-4q-21 0 -38 4q-2 -12 -11 -26q-19 -25 -62 -25q-16 0 -17 5q-1 1 0.5 2t4.5 1.5t5 0.5h4q36 1 46 49q-27 10 -49 27q-22 20 -35 48 q-13 27 -8 55t29 34q41 10 69 -31q9 -14 20 -48q7 -27 8 -47q1 -17 -2 -37q13 -2 37 -2q30 0 62 10q-20 27 -34 63q-22 52 -27 113q-5 54 5 90q11 39 46 59q-20 26 -25 56q-45 -6 -70 -2q-21 3 -35 15q-17 14 -24 37q-1 4 2 4q5 1 7 -4q10 -26 26 -35q11 -7 35 -9q8 -1 43 2 l15 3q-1 20 5 41q14 41 56.5 60.5t98.5 20.5h4q75 0 130 -29zM58 95q18 -12 37 -18q1 9 1 26q-3 41 -17 76q-6 14 -10.5 21.5t-12 14.5t-15.5 7q-25 0 -31 -31q-4 -23 9.5 -50.5t38.5 -45.5zM205 434q6 -15 16 -28q24 10 48 10q55 0 88 -33q10 21 -9 48q-13 16 -31 26 q-11 5 -20 8q-3 0 -4 1h-1q-1 0 -3 0.5t-3 0.5h-3h-2h-2q-29 0 -64 -5q-3 0 -8 -0.5t-8 -1.5q2 -13 6 -26zM339 365q-25 41 -67 41q-24 0 -44 -9q5 -6 17 -16q31 -22 66 -22q20 0 28 6zM204 130q12 -28 28 -50q28 12 50 30q38 32 59.5 79.5t19.5 100.5q-2 33 -16 63 q-14 -3 -36 -3q-42 2 -75 29l-14 14q-35 -22 -45 -65q-7 -42 -1 -91q8 -58 30 -107zM543 92q47 65 54.5 154t-31.5 185q-41 93 -116 130q-44 20 -95 20q-73 0 -113 -27q-45 -30 -44 -84q46 6 71 6q3 1 6 1q39 0 70 -16q21 -12 34.5 -30.5t12.5 -37.5t-19 -30q18 -31 20 -80 q0 -52 -25 -104q-41 -83 -127 -110q15 -18 28 -28q46 -38 110 -38q103 0 164 89zM429 732q-23 -23 -27 -16q0 2 16 31q7 12 25 14q11 0 10 -6q0 -1 -3.5 -4t-9.5 -8.5t-11 -10.5z" />
<glyph unicode="&#xd4;" horiz-adv-x="689" d="M482 562q48 -25 81.5 -69.5t46 -91t18 -95.5t-2.5 -84q-14 -100 -76.5 -164t-165.5 -65h-6q-68 0 -122 49q-9 7 -23 24q-30 -9 -67 -9h-4q-21 0 -38 4q-2 -12 -11 -26q-19 -25 -62 -25q-16 0 -17 5q-1 1 0.5 2t4.5 1.5t5 0.5h4q36 1 46 49q-27 10 -49 27q-22 20 -35 48 q-13 27 -8 55t29 34q41 10 69 -31q9 -14 20 -48q7 -27 8 -47q1 -17 -2 -37q13 -2 37 -2q30 0 62 10q-20 27 -34 63q-22 52 -27 113q-5 54 5 90q11 39 46 59q-20 26 -25 56q-45 -6 -70 -2q-21 3 -35 15q-17 14 -24 37q-1 4 2 4q5 1 7 -4q10 -26 26 -35q11 -7 35 -9q8 -1 43 2 l15 3q-1 20 5 41q14 41 56.5 60.5t98.5 20.5h4q75 0 130 -29zM58 95q18 -12 37 -18q1 9 1 26q-3 41 -17 76q-6 14 -10.5 21.5t-12 14.5t-15.5 7q-25 0 -31 -31q-4 -23 9.5 -50.5t38.5 -45.5zM205 434q6 -15 16 -28q24 10 48 10q55 0 88 -33q10 21 -9 48q-13 16 -31 26 q-11 5 -20 8q-3 0 -4 1h-1q-1 0 -3 0.5t-3 0.5h-3h-2h-2q-29 0 -64 -5q-3 0 -8 -0.5t-8 -1.5q2 -13 6 -26zM339 365q-25 41 -67 41q-24 0 -44 -9q5 -6 17 -16q31 -22 66 -22q20 0 28 6zM204 130q12 -28 28 -50q28 12 50 30q38 32 59.5 79.5t19.5 100.5q-2 33 -16 63 q-14 -3 -36 -3q-42 2 -75 29l-14 14q-35 -22 -45 -65q-7 -42 -1 -91q8 -58 30 -107zM543 92q47 65 54.5 154t-31.5 185q-41 93 -116 130q-44 20 -95 20q-73 0 -113 -27q-45 -30 -44 -84q46 6 71 6q3 1 6 1q39 0 70 -16q21 -12 34.5 -30.5t12.5 -37.5t-19 -30q18 -31 20 -80 q0 -52 -25 -104q-41 -83 -127 -110q15 -18 28 -28q46 -38 110 -38q103 0 164 89zM401 759q3 3 9.5 3t7.5 -4t4 -10t3 -7q10 -20 14 -21q6 0 6 -2q0 -3 -7 -4h-3q-19 3 -29 31l-32 -26q-9 -5 -14 -1z" />
<glyph unicode="&#xd5;" horiz-adv-x="689" d="M482 562q48 -25 81.5 -69.5t46 -91t18 -95.5t-2.5 -84q-14 -100 -76.5 -164t-165.5 -65h-6q-68 0 -122 49q-9 7 -23 24q-30 -9 -67 -9h-4q-21 0 -38 4q-2 -12 -11 -26q-19 -25 -62 -25q-16 0 -17 5q-1 1 0.5 2t4.5 1.5t5 0.5h4q36 1 46 49q-27 10 -49 27q-22 20 -35 48 q-13 27 -8 55t29 34q41 10 69 -31q9 -14 20 -48q7 -27 8 -47q1 -17 -2 -37q13 -2 37 -2q30 0 62 10q-20 27 -34 63q-22 52 -27 113q-5 54 5 90q11 39 46 59q-20 26 -25 56q-45 -6 -70 -2q-21 3 -35 15q-17 14 -24 37q-1 4 2 4q5 1 7 -4q10 -26 26 -35q11 -7 35 -9q8 -1 43 2 l15 3q-1 20 5 41q14 41 56.5 60.5t98.5 20.5h4q75 0 130 -29zM58 95q18 -12 37 -18q1 9 1 26q-3 41 -17 76q-6 14 -10.5 21.5t-12 14.5t-15.5 7q-25 0 -31 -31q-4 -23 9.5 -50.5t38.5 -45.5zM205 434q6 -15 16 -28q24 10 48 10q55 0 88 -33q10 21 -9 48q-13 16 -31 26 q-11 5 -20 8q-3 0 -4 1h-1q-1 0 -3 0.5t-3 0.5h-3h-2h-2q-29 0 -64 -5q-3 0 -8 -0.5t-8 -1.5q2 -13 6 -26zM339 365q-25 41 -67 41q-24 0 -44 -9q5 -6 17 -16q31 -22 66 -22q20 0 28 6zM204 130q12 -28 28 -50q28 12 50 30q38 32 59.5 79.5t19.5 100.5q-2 33 -16 63 q-14 -3 -36 -3q-42 2 -75 29l-14 14q-35 -22 -45 -65q-7 -42 -1 -91q8 -58 30 -107zM543 92q47 65 54.5 154t-31.5 185q-41 93 -116 130q-44 20 -95 20q-73 0 -113 -27q-45 -30 -44 -84q46 6 71 6q3 1 6 1q39 0 70 -16q21 -12 34.5 -30.5t12.5 -37.5t-19 -30q18 -31 20 -80 q0 -52 -25 -104q-41 -83 -127 -110q15 -18 28 -28q46 -38 110 -38q103 0 164 89zM370 729q-2 -5 -6 -1q-1 1 0 2q10 15 22 15q2 0 10 -2q2 -1 13 -11q13 -13 25 -1q4 4 6 2q1 -1 0 -3q-8 -16 -28 -12q-10 2 -15 10t-7 9q-4 3 -11 0t-9 -8z" />
<glyph unicode="&#xd6;" horiz-adv-x="689" d="M482 562q48 -25 81.5 -69.5t46 -91t18 -95.5t-2.5 -84q-14 -100 -76.5 -164t-165.5 -65h-6q-68 0 -122 49q-9 7 -23 24q-30 -9 -67 -9h-4q-21 0 -38 4q-2 -12 -11 -26q-19 -25 -62 -25q-16 0 -17 5q-1 1 0.5 2t4.5 1.5t5 0.5h4q36 1 46 49q-27 10 -49 27q-22 20 -35 48 q-13 27 -8 55t29 34q41 10 69 -31q9 -14 20 -48q7 -27 8 -47q1 -17 -2 -37q13 -2 37 -2q30 0 62 10q-20 27 -34 63q-22 52 -27 113q-5 54 5 90q11 39 46 59q-20 26 -25 56q-45 -6 -70 -2q-21 3 -35 15q-17 14 -24 37q-1 4 2 4q5 1 7 -4q10 -26 26 -35q11 -7 35 -9q8 -1 43 2 l15 3q-1 20 5 41q14 41 56.5 60.5t98.5 20.5h4q75 0 130 -29zM58 95q18 -12 37 -18q1 9 1 26q-3 41 -17 76q-6 14 -10.5 21.5t-12 14.5t-15.5 7q-25 0 -31 -31q-4 -23 9.5 -50.5t38.5 -45.5zM205 434q6 -15 16 -28q24 10 48 10q55 0 88 -33q10 21 -9 48q-13 16 -31 26 q-11 5 -20 8q-3 0 -4 1h-1q-1 0 -3 0.5t-3 0.5h-3h-2h-2q-29 0 -64 -5q-3 0 -8 -0.5t-8 -1.5q2 -13 6 -26zM339 365q-25 41 -67 41q-24 0 -44 -9q5 -6 17 -16q31 -22 66 -22q20 0 28 6zM204 130q12 -28 28 -50q28 12 50 30q38 32 59.5 79.5t19.5 100.5q-2 33 -16 63 q-14 -3 -36 -3q-42 2 -75 29l-14 14q-35 -22 -45 -65q-7 -42 -1 -91q8 -58 30 -107zM543 92q47 65 54.5 154t-31.5 185q-41 93 -116 130q-44 20 -95 20q-73 0 -113 -27q-45 -30 -44 -84q46 6 71 6q3 1 6 1q39 0 70 -16q21 -12 34.5 -30.5t12.5 -37.5t-19 -30q18 -31 20 -80 q0 -52 -25 -104q-41 -83 -127 -110q15 -18 28 -28q46 -38 110 -38q103 0 164 89zM384 731q5 8 5 16.5t-5 11.5q-12 5 -26 -14q-11 -22 1 -29q14 -7 25 15zM445 731q11 21 -1 28q-14 5 -25 -14q-12 -21 0 -29q13 -7 26 15z" />
<glyph unicode="&#xd7;" horiz-adv-x="289" d="M69 255q5 16 14 -3q3 -5 58 -65l18 16q5 5 18.5 23t22.5 23.5t22 0.5q8 -3 -4.5 -16t-37 -34t-29.5 -26l19 -20q4 -3 14.5 -13t14.5 -14t10 -11.5t7.5 -13.5t0.5 -11q-3 -7 -16 5.5t-33 36t-26 29.5l-1 2q-70 -67 -82 -63q-8 3 -9.5 4t0.5 3t11 7l67 60q-64 67 -59 80z " />
<glyph unicode="&#xd8;" horiz-adv-x="689" d="M9 143q-13 27 -8 55t29 34q41 10 69 -31q9 -14 20 -48q7 -27 8 -47q1 -17 -2 -37q13 -2 37 -2q30 0 62 10q-20 27 -34 63q-22 52 -27 113q-5 54 5 90q11 39 46 59q-20 26 -25 56q-45 -6 -70 -2q-21 3 -35 15q-17 14 -24 37q-1 4 2 4q5 1 7 -4q10 -26 26 -35q11 -7 35 -9 q8 -1 43 2l15 3q-1 20 5 41q14 41 56.5 60.5t98.5 20.5h4q75 0 130 -29l16 -9q15 39 27.5 55.5t34.5 33.5q15 7 16 2q1 -4 -12 -12q-27 -18 -50 -90q73 -54 98 -146.5t13 -173.5q-14 -100 -76.5 -164t-165.5 -65h-6q-30 0 -60 12q-31 -56 -43 -68q-15 -15 -21 -12t16 26 q11 11 35 59q-28 12 -49 32q-9 7 -23 24q-30 -9 -67 -9h-4q-21 0 -38 4q-2 -12 -11 -26q-19 -25 -62 -25q-16 0 -17 5q-1 1 0.5 2t4.5 1.5t5 0.5h4q36 1 46 49q-27 10 -49 27q-22 20 -35 48zM10 191q-4 -23 9.5 -50.5t38.5 -45.5q18 -12 37 -18q1 9 1 26q-3 41 -17 76 q-6 14 -10.5 21.5t-12 14.5t-15.5 7q-25 0 -31 -31zM174 237q8 -58 30 -107q12 -28 28 -50q28 12 50 30q38 32 59.5 79.5t19.5 100.5q-2 33 -16 63q-14 -3 -36 -3q-42 2 -75 29l-14 14q-35 -22 -45 -65q-7 -42 -1 -91zM198 470q46 6 71 6q3 1 6 1q39 0 70 -16 q21 -12 34.5 -30.5t12.5 -37.5t-19 -30q18 -31 20 -80q0 -52 -25 -104q-41 -83 -127 -110q15 -18 28 -28q18 -15 39 -24q81 163 127 329q41 143 56 188q-21 18 -41 27q-44 20 -95 20q-73 0 -113 -27q-45 -30 -44 -84zM199 460q2 -13 6 -26q6 -15 16 -28q24 10 48 10 q55 0 88 -33q10 21 -9 48q-13 16 -31 26q-11 5 -20 8q-3 0 -4 1h-1q-1 0 -3 0.5t-3 0.5h-3h-2h-2q-29 0 -64 -5q-3 0 -8 -0.5t-8 -1.5zM228 397q5 -6 17 -16q31 -22 66 -22q20 0 28 6q-25 41 -67 41q-24 0 -44 -9zM321 12q29 -9 58 -9q103 0 164 89q47 65 54.5 154 t-31.5 185q-22 51 -59 89q-8 -25 -51 -181q-44 -159 -135 -327z" />
<glyph unicode="&#xd9;" horiz-adv-x="892" d="M789 573q3 -3 5 -13q1 -9 -1 -40q-6 -56 -32 -160q-26 -96 -42 -142h1q6 -117 38 -184q13 -26 33 -51.5t42 -30.5q9 -1 11 4.5t-4 16.5q-2 5 3 5q4 0 6 -5q3 -6 3 -12q0 -21 -29 -17q-30 3 -55.5 30t-40.5 60q-24 48 -33 117q-1 -1 -6 -14q-45 -93 -96 -148 q-25 -27 -44 -38q-13 -9 -22 -11q-1 -2 -18 -2q-77 4 -44 179q3 15 13 66t14 75t8.5 64.5t5.5 74.5q1 27 -0.5 53t-9 61.5t-21 61.5t-40.5 45t-63 19q-11 0 -17 -1q-65 -6 -106 -53q-37 -43 -50 -110q-7 -38 -4 -85q5 1 16 1q36 4 66 1q2 30 8 50q11 41 36 67t57 29h5l2 1 q38 -1 56 -41q15 -34 19 -87q3 -52 -8 -102q-25 -117 -118 -118q-61 0 -102 57q-33 43 -44 114q-2 12 -2 18l-36 -3q-34 -2 -52 -2q-24 0 -42 5q-21 7 -33 18q-12 12 -22 36q-2 4 3.5 4t6.5 -4q2 -8 9 -20q20 -29 73 -29q30 -1 92 5q-4 52 7 104q18 70 59 109q44 42 111 45 h7q98 0 139 -74q30 -57 30 -159q0 -72 -16 -172q-8 -44 -25 -119q-7 -42 -9 -86q0 -85 25 -89q2 0 4 1q13 3 35 18q20 15 44 43q53 65 92 153q1 2 2 5.5t2 5.5q-2 22 -4 66q-3 87 13 176q14 73 35 124q0 1 3 7l4 8t3.5 7.5t5 8t6 5.5t7 4.5t8.5 1.5q11 0 17 -8zM285 379 q0 -19 4 -35q6 -34 29 -47q26 -14 38 5t-6 44q-18 27 -65 33zM210 380q-2 0 -7.5 -0.5t-8.5 -0.5q1 -9 5 -32q11 -63 45 -105q17 -20 38 -32q22 -11 48 -11q36 0 64 43q41 67 33 173q-4 45 -17 76q-5 16 -14 26q-1 1 -4 3.5t-5 4.5l-2 2q-6 0 -14 -2q-31 -6 -54 -40 q-20 -28 -28 -69q-3 -14 -3 -27q25 -5 42 -14q36 -19 41 -52q6 -30 -16 -39q-11 -5 -26.5 0t-25.5 16q-21 22 -25 62q0 3 -0.5 9t-0.5 9q-22 2 -65 0zM783 528q4 31 0 39q-5 -6 -8 -13q-11 -22 -18 -43q-42 -120 -39 -263q19 61 37 133q23 100 28 147zM612 760q-1 6 10 6 q18 -2 25 -14q16 -29 16 -31q-4 -7 -27 16q-4 4 -8.5 8t-7.5 7t-5.5 5t-2.5 3z" />
<glyph unicode="&#xda;" horiz-adv-x="892" d="M789 573q3 -3 5 -13q1 -9 -1 -40q-6 -56 -32 -160q-26 -96 -42 -142h1q6 -117 38 -184q13 -26 33 -51.5t42 -30.5q9 -1 11 4.5t-4 16.5q-2 5 3 5q4 0 6 -5q3 -6 3 -12q0 -21 -29 -17q-30 3 -55.5 30t-40.5 60q-24 48 -33 117q-1 -1 -6 -14q-45 -93 -96 -148 q-25 -27 -44 -38q-13 -9 -22 -11q-1 -2 -18 -2q-77 4 -44 179q3 15 13 66t14 75t8.5 64.5t5.5 74.5q1 27 -0.5 53t-9 61.5t-21 61.5t-40.5 45t-63 19q-11 0 -17 -1q-65 -6 -106 -53q-37 -43 -50 -110q-7 -38 -4 -85q5 1 16 1q36 4 66 1q2 30 8 50q11 41 36 67t57 29h5l2 1 q38 -1 56 -41q15 -34 19 -87q3 -52 -8 -102q-25 -117 -118 -118q-61 0 -102 57q-33 43 -44 114q-2 12 -2 18l-36 -3q-34 -2 -52 -2q-24 0 -42 5q-21 7 -33 18q-12 12 -22 36q-2 4 3.5 4t6.5 -4q2 -8 9 -20q20 -29 73 -29q30 -1 92 5q-4 52 7 104q18 70 59 109q44 42 111 45 h7q98 0 139 -74q30 -57 30 -159q0 -72 -16 -172q-8 -44 -25 -119q-7 -42 -9 -86q0 -85 25 -89q2 0 4 1q13 3 35 18q20 15 44 43q53 65 92 153q1 2 2 5.5t2 5.5q-2 22 -4 66q-3 87 13 176q14 73 35 124q0 1 3 7l4 8t3.5 7.5t5 8t6 5.5t7 4.5t8.5 1.5q11 0 17 -8zM285 379 q0 -19 4 -35q6 -34 29 -47q26 -14 38 5t-6 44q-18 27 -65 33zM210 380q-2 0 -7.5 -0.5t-8.5 -0.5q1 -9 5 -32q11 -63 45 -105q17 -20 38 -32q22 -11 48 -11q36 0 64 43q41 67 33 173q-4 45 -17 76q-5 16 -14 26q-1 1 -4 3.5t-5 4.5l-2 2q-6 0 -14 -2q-31 -6 -54 -40 q-20 -28 -28 -69q-3 -14 -3 -27q25 -5 42 -14q36 -19 41 -52q6 -30 -16 -39q-11 -5 -26.5 0t-25.5 16q-21 22 -25 62q0 3 -0.5 9t-0.5 9q-22 2 -65 0zM783 528q4 31 0 39q-5 -6 -8 -13q-11 -22 -18 -43q-42 -120 -39 -263q19 61 37 133q23 100 28 147zM690 732 q-23 -23 -27 -16q0 2 16 31q7 12 25 14q11 0 10 -6q0 -1 -3.5 -4t-9.5 -8.5t-11 -10.5z" />
<glyph unicode="&#xdb;" horiz-adv-x="892" d="M789 573q3 -3 5 -13q1 -9 -1 -40q-6 -56 -32 -160q-26 -96 -42 -142h1q6 -117 38 -184q13 -26 33 -51.5t42 -30.5q9 -1 11 4.5t-4 16.5q-2 5 3 5q4 0 6 -5q3 -6 3 -12q0 -21 -29 -17q-30 3 -55.5 30t-40.5 60q-24 48 -33 117q-1 -1 -6 -14q-45 -93 -96 -148 q-25 -27 -44 -38q-13 -9 -22 -11q-1 -2 -18 -2q-77 4 -44 179q3 15 13 66t14 75t8.5 64.5t5.5 74.5q1 27 -0.5 53t-9 61.5t-21 61.5t-40.5 45t-63 19q-11 0 -17 -1q-65 -6 -106 -53q-37 -43 -50 -110q-7 -38 -4 -85q5 1 16 1q36 4 66 1q2 30 8 50q11 41 36 67t57 29h5l2 1 q38 -1 56 -41q15 -34 19 -87q3 -52 -8 -102q-25 -117 -118 -118q-61 0 -102 57q-33 43 -44 114q-2 12 -2 18l-36 -3q-34 -2 -52 -2q-24 0 -42 5q-21 7 -33 18q-12 12 -22 36q-2 4 3.5 4t6.5 -4q2 -8 9 -20q20 -29 73 -29q30 -1 92 5q-4 52 7 104q18 70 59 109q44 42 111 45 h7q98 0 139 -74q30 -57 30 -159q0 -72 -16 -172q-8 -44 -25 -119q-7 -42 -9 -86q0 -85 25 -89q2 0 4 1q13 3 35 18q20 15 44 43q53 65 92 153q1 2 2 5.5t2 5.5q-2 22 -4 66q-3 87 13 176q14 73 35 124q0 1 3 7l4 8t3.5 7.5t5 8t6 5.5t7 4.5t8.5 1.5q11 0 17 -8zM285 379 q0 -19 4 -35q6 -34 29 -47q26 -14 38 5t-6 44q-18 27 -65 33zM210 380q-2 0 -7.5 -0.5t-8.5 -0.5q1 -9 5 -32q11 -63 45 -105q17 -20 38 -32q22 -11 48 -11q36 0 64 43q41 67 33 173q-4 45 -17 76q-5 16 -14 26q-1 1 -4 3.5t-5 4.5l-2 2q-6 0 -14 -2q-31 -6 -54 -40 q-20 -28 -28 -69q-3 -14 -3 -27q25 -5 42 -14q36 -19 41 -52q6 -30 -16 -39q-11 -5 -26.5 0t-25.5 16q-21 22 -25 62q0 3 -0.5 9t-0.5 9q-22 2 -65 0zM783 528q4 31 0 39q-5 -6 -8 -13q-11 -22 -18 -43q-42 -120 -39 -263q19 61 37 133q23 100 28 147zM662 759q2 3 9 3t8 -4 t4 -10t3 -7q10 -20 14 -21q6 0 6 -2q0 -3 -7 -4h-3q-19 3 -29 31l-32 -26q-9 -5 -14 -1z" />
<glyph unicode="&#xdc;" horiz-adv-x="892" d="M789 573q3 -3 5 -13q1 -9 -1 -40q-6 -56 -32 -160q-26 -96 -42 -142h1q6 -117 38 -184q13 -26 33 -51.5t42 -30.5q9 -1 11 4.5t-4 16.5q-2 5 3 5q4 0 6 -5q3 -6 3 -12q0 -21 -29 -17q-30 3 -55.5 30t-40.5 60q-24 48 -33 117q-1 -1 -6 -14q-45 -93 -96 -148 q-25 -27 -44 -38q-13 -9 -22 -11q-1 -2 -18 -2q-77 4 -44 179q3 15 13 66t14 75t8.5 64.5t5.5 74.5q1 27 -0.5 53t-9 61.5t-21 61.5t-40.5 45t-63 19q-11 0 -17 -1q-65 -6 -106 -53q-37 -43 -50 -110q-7 -38 -4 -85q5 1 16 1q36 4 66 1q2 30 8 50q11 41 36 67t57 29h5l2 1 q38 -1 56 -41q15 -34 19 -87q3 -52 -8 -102q-25 -117 -118 -118q-61 0 -102 57q-33 43 -44 114q-2 12 -2 18l-36 -3q-34 -2 -52 -2q-24 0 -42 5q-21 7 -33 18q-12 12 -22 36q-2 4 3.5 4t6.5 -4q2 -8 9 -20q20 -29 73 -29q30 -1 92 5q-4 52 7 104q18 70 59 109q44 42 111 45 h7q98 0 139 -74q30 -57 30 -159q0 -72 -16 -172q-8 -44 -25 -119q-7 -42 -9 -86q0 -85 25 -89q2 0 4 1q13 3 35 18q20 15 44 43q53 65 92 153q1 2 2 5.5t2 5.5q-2 22 -4 66q-3 87 13 176q14 73 35 124q0 1 3 7l4 8t3.5 7.5t5 8t6 5.5t7 4.5t8.5 1.5q11 0 17 -8zM285 379 q0 -19 4 -35q6 -34 29 -47q26 -14 38 5t-6 44q-18 27 -65 33zM210 380q-2 0 -7.5 -0.5t-8.5 -0.5q1 -9 5 -32q11 -63 45 -105q17 -20 38 -32q22 -11 48 -11q36 0 64 43q41 67 33 173q-4 45 -17 76q-5 16 -14 26q-1 1 -4 3.5t-5 4.5l-2 2q-6 0 -14 -2q-31 -6 -54 -40 q-20 -28 -28 -69q-3 -14 -3 -27q25 -5 42 -14q36 -19 41 -52q6 -30 -16 -39q-11 -5 -26.5 0t-25.5 16q-21 22 -25 62q0 3 -0.5 9t-0.5 9q-22 2 -65 0zM783 528q4 31 0 39q-5 -6 -8 -13q-11 -22 -18 -43q-42 -120 -39 -263q19 61 37 133q23 100 28 147zM645 731q5 8 5 16.5 t-5 11.5q-12 5 -26 -14q-11 -22 1 -29q14 -7 25 15zM706 731q11 21 -1 28q-14 5 -25 -14q-12 -21 0 -29q13 -7 26 15z" />
<glyph unicode="&#xdd;" horiz-adv-x="847" d="M851 568v-1q19 -13 15 -59q-8 -58 -49 -132q-24 -46 -63 -99q0 -3 -1 -9t-1 -9q-8 -137 -28 -199q38 4 58 8q15 3 26 6.5t25 11t16 18.5t-1 28q-1 4 4 4t6 -4q10 -34 -13 -52q-20 -15 -60 -22q-28 -5 -65 -7q-51 -148 -159 -149q-6 0 -10 1q-22 2 -41 15q-43 31 -43 74 q1 25 17.5 39.5t42.5 18.5q32 6 85 6q13 0 39.5 1t39.5 2q13 40 20 79q5 32 9 98q-6 -8 -10 -12q-54 -61 -102 -93q-39 -26 -71 -29q-3 -1 -8 -1q-28 3 -37 12q-10 10 -12 36q-2 24 11 135q1 11 4.5 39t4.5 43t3 38.5t1.5 44.5t-2.5 42q-4 37 -15.5 74.5t-42.5 72.5t-73 35 q-3 0 -9 -0.5t-8 -0.5q-64 -6 -106 -54q-37 -41 -50 -109q-8 -42 -5 -85q6 1 17 1q49 2 66 1q0 24 8 50q11 41 36 67t56 29h8q38 0 56 -40q16 -36 18 -87q4 -51 -7 -102q-25 -117 -118 -118q-5 0 -8 1h-6q-51 6 -88 56q-35 47 -44 114q-2 12 -2 18l-36 -3q-34 -2 -52 -2 q-24 0 -42 5q-21 7 -33 18q-15 14 -22 36q-1 4 2 4q5 1 7 -4q4 -10 10 -20q20 -29 73 -29q30 -1 92 5q-5 56 7 104q16 68 59 109q44 42 111 45h7q64 0 103 -39q42 -40 56 -113q14 -67 2 -190q-17 -151 -17 -165q-2 -30 3 -46q1 -6 6 -14q4 -4 6 -4q16 0 36 9q25 10 47 26 q49 35 101 96q2 2 5.5 6.5t5.5 6.5q4 70 8 105q15 102 41 160q23 51 63 52q16 0 17 -4zM285 415q0 -19 4 -36q7 -34 28 -46q27 -14 39 5q11 21 -6 44q-19 27 -65 33zM210 416q-5 -1 -16 -1q2 -22 4 -32q13 -65 46 -105q18 -21 38 -32q22 -11 47 -11q38 0 65 43q41 66 32 173 q-4 48 -16 76q-5 16 -14 26l-4 4t-5 4l-1 1q-2 0 -2 1q-4 0 -14 -2q-32 -8 -53 -40q-20 -29 -28 -70q-3 -12 -3 -27q22 -3 42 -13q37 -21 41 -52q6 -30 -16 -39q-11 -5 -26.5 0t-25.5 16q-21 21 -25 61q-1 7 -1 19q-22 2 -65 0zM654 -18q19 29 33 67q-13 -1 -38.5 -1.5 t-38.5 -0.5q-52 -2 -77 -6q-32 -5 -46 -23q-22 -27 2 -67q26 -40 69 -40q49 1 96 71zM856 513q2 24 -2 38q-4 11 -15 12q0 -2 -5 -2l-4 -4t-5 -4q-6 -6 -16 -22q-16 -27 -26 -69q-20 -68 -28 -164q31 44 57 90q37 75 44 125zM738 732q-23 -23 -27 -16q0 2 16 31q7 12 25 14 q11 0 10 -6q0 -1 -3.5 -4t-9.5 -8.5t-11 -10.5z" />
<glyph unicode="&#xde;" horiz-adv-x="386" d="M7 12q12 2 19 39.5t8 94t0.5 108t-2.5 100.5t-2 53q0 7 -2.5 43.5t-3.5 73t0.5 76.5t9.5 67t23 31q11 2 21 -3q7 -4 -5 -7q-19 -5 -15 -209q43 80 131 80q110 0 144.5 -104.5t-18 -209t-154.5 -104.5q-64 0 -94 36q0 -167 -43 -175q-11 -2 -22 4q-6 4 5 6zM58 456 q1 -32 2 -70.5t2 -62t1 -30.5q0 -6 1 -35.5t2 -49.5q28 -56 88 -56q81 0 122 92q37 86 18 182q-19 95 -80 116q-15 5 -31 5q-27 0 -65 -23.5t-60 -67.5z" />
<glyph unicode="&#xdf;" horiz-adv-x="600" d="M45 3q-5 6 -4.5 19.5t7 36.5t13.5 42t13.5 36.5t7.5 20.5q30 84 45 124q1 2 9 21.5t12.5 32.5t8.5 32.5t-3 22.5q-16 0 -27 4q-10 5 -1 7q4 2 13 2h7h6q8 0 14 -2q36 -4 54 -7q69 -12 101 -37q44 -38 35 -77.5t-44 -70t-72 -36.5q-26 -4 -40 -4l3 -1q19 -7 32 -15 q27 -15 36 -46.5t-11 -49.5q-21 -19 -55 -26.5t-68 -1.5q-53 11 -42 37q4 7 21 2q5 -3 5 -5q-6 -15 19 -20q39 -7 80 14q52 27 15 70l-4 4q-9 9 -19.5 15.5t-26.5 13t-22 9.5q-2 1 -2 3v1q0 1 0.5 1.5t2.5 1.5l2 1q4 1 45.5 5t60.5 17q20 14 36.5 37t21 52.5t-20.5 53.5 q-41 39 -127 47q10 -9 4.5 -33t-12.5 -40.5t-18.5 -39.5t-14.5 -30q-1 -3 -11.5 -30.5t-22 -59.5t-22.5 -65.5t-16.5 -57t-1.5 -26.5q6 -4 -5.5 -5.5t-16.5 0.5z" />
<glyph unicode="&#xe0;" d="M211 227q1 4 6 1q4 -3 3 -6q-2 -12 -4 -20q-14 -58 -24 -86q-6 -18 -15 -37q-8 -13 -14 -15h-1q-2 -1 -3 -1h-12q-14 2 -18 8q-1 1 -4 13q-3 28 1 65q-5 -17 -10 -28q-22 -53 -61 -60q-4 -1 -11 -1q-40 0 -57 24q-12 15 -14 46q0 28 10 55q24 64 82 64q6 0 10 -1h1h1 q18 -3 31 -15q12 -9 20 -23v6v3q0 20 -6 24q-4 3 5 5l4 1q13 3 20 -3q9 -7 9 -28q1 -20 0.5 -30t-2 -30t-1.5 -30q-2 -26 -1 -40q0 -1 1 -5.5t2 -7.5v-1q2 2 3 4t9 14q14 30 27 83q6 20 13 52zM86 92q27 31 38 95q0 1 1 4t1 5q-9 19 -22 31q-16 13 -36 13h-2q-2 -1 -3 -1 q-2 -1 -11 -5q-7 -4 -17 -16q-32 -36 -30 -91q2 -27 12 -41q5 -8 13 -13q6 -3 7 -3l2 -1v0h1h-1h1q27 0 46 23zM39 69zM42 346q-1 6 10 6q18 -2 25 -14q16 -29 16 -31q-4 -7 -27 16q-4 4 -8.5 8t-7.5 7t-5.5 5t-2.5 3z" />
<glyph unicode="&#xe1;" d="M211 227q1 4 6 1q4 -3 3 -6q-2 -12 -4 -20q-14 -58 -24 -86q-6 -18 -15 -37q-8 -13 -14 -15h-1q-2 -1 -3 -1h-12q-14 2 -18 8q-1 1 -4 13q-3 28 1 65q-5 -17 -10 -28q-22 -53 -61 -60q-4 -1 -11 -1q-40 0 -57 24q-12 15 -14 46q0 28 10 55q24 64 82 64q6 0 10 -1h1h1 q18 -3 31 -15q12 -9 20 -23v6v3q0 20 -6 24q-4 3 5 5l4 1q13 3 20 -3q9 -7 9 -28q1 -20 0.5 -30t-2 -30t-1.5 -30q-2 -26 -1 -40q0 -1 1 -5.5t2 -7.5v-1q2 2 3 4t9 14q14 30 27 83q6 20 13 52zM86 92q27 31 38 95q0 1 1 4t1 5q-9 19 -22 31q-16 13 -36 13h-2q-2 -1 -3 -1 q-2 -1 -11 -5q-7 -4 -17 -16q-32 -36 -30 -91q2 -27 12 -41q5 -8 13 -13q6 -3 7 -3l2 -1v0h1h-1h1q27 0 46 23zM39 69zM120 318q-23 -23 -27 -16q0 2 16 31q7 12 25 14q11 0 10 -6q0 -1 -3.5 -4t-9.5 -8.5t-11 -10.5z" />
<glyph unicode="&#xe2;" d="M211 227q1 4 6 1q4 -3 3 -6q-2 -12 -4 -20q-14 -58 -24 -86q-6 -18 -15 -37q-8 -13 -14 -15h-1q-2 -1 -3 -1h-12q-14 2 -18 8q-1 1 -4 13q-3 28 1 65q-5 -17 -10 -28q-22 -53 -61 -60q-4 -1 -11 -1q-40 0 -57 24q-12 15 -14 46q0 28 10 55q24 64 82 64q6 0 10 -1h1h1 q18 -3 31 -15q12 -9 20 -23v6v3q0 20 -6 24q-4 3 5 5l4 1q13 3 20 -3q9 -7 9 -28q1 -20 0.5 -30t-2 -30t-1.5 -30q-2 -26 -1 -40q0 -1 1 -5.5t2 -7.5v-1q2 2 3 4t9 14q14 30 27 83q6 20 13 52zM86 92q27 31 38 95q0 1 1 4t1 5q-9 19 -22 31q-16 13 -36 13h-2q-2 -1 -3 -1 q-2 -1 -11 -5q-7 -4 -17 -16q-32 -36 -30 -91q2 -27 12 -41q5 -8 13 -13q6 -3 7 -3l2 -1v0h1h-1h1q27 0 46 23zM39 69zM92 345q2 3 9 3t8 -4t4 -10t3 -7q10 -20 14 -21q6 0 6 -2q0 -3 -7 -4h-3q-19 3 -29 31l-32 -26q-9 -5 -14 -1z" />
<glyph unicode="&#xe3;" d="M211 227q1 4 6 1q4 -3 3 -6q-2 -12 -4 -20q-14 -58 -24 -86q-6 -18 -15 -37q-8 -13 -14 -15h-1q-2 -1 -3 -1h-12q-14 2 -18 8q-1 1 -4 13q-3 28 1 65q-5 -17 -10 -28q-22 -53 -61 -60q-4 -1 -11 -1q-40 0 -57 24q-12 15 -14 46q0 28 10 55q24 64 82 64q6 0 10 -1h1h1 q18 -3 31 -15q12 -9 20 -23v6v3q0 20 -6 24q-4 3 5 5l4 1q13 3 20 -3q9 -7 9 -28q1 -20 0.5 -30t-2 -30t-1.5 -30q-2 -26 -1 -40q0 -1 1 -5.5t2 -7.5v-1q2 2 3 4t9 14q14 30 27 83q6 20 13 52zM86 92q27 31 38 95q0 1 1 4t1 5q-9 19 -22 31q-16 13 -36 13h-2q-2 -1 -3 -1 q-2 -1 -11 -5q-7 -4 -17 -16q-32 -36 -30 -91q2 -27 12 -41q5 -8 13 -13q6 -3 7 -3l2 -1v0h1h-1h1q27 0 46 23zM39 69zM61 315q-2 -5 -6 -1q-1 1 0 2q10 15 22 15q2 0 10 -2q3 -1 13 -11q13 -13 25 -1q4 4 6 2q1 -1 0 -3q-8 -16 -28 -12q-10 2 -15 10t-7 9q-4 3 -11 0t-9 -8 z" />
<glyph unicode="&#xe4;" d="M211 227q1 4 6 1q4 -3 3 -6q-2 -12 -4 -20q-14 -58 -24 -86q-6 -18 -15 -37q-8 -13 -14 -15h-1q-2 -1 -3 -1h-12q-14 2 -18 8q-1 1 -4 13q-3 28 1 65q-5 -17 -10 -28q-22 -53 -61 -60q-4 -1 -11 -1q-40 0 -57 24q-12 15 -14 46q0 28 10 55q24 64 82 64q6 0 10 -1h1h1 q18 -3 31 -15q12 -9 20 -23v6v3q0 20 -6 24q-4 3 5 5l4 1q13 3 20 -3q9 -7 9 -28q1 -20 0.5 -30t-2 -30t-1.5 -30q-2 -26 -1 -40q0 -1 1 -5.5t2 -7.5v-1q2 2 3 4t9 14q14 30 27 83q6 20 13 52zM86 92q27 31 38 95q0 1 1 4t1 5q-9 19 -22 31q-16 13 -36 13h-2q-2 -1 -3 -1 q-2 -1 -11 -5q-7 -4 -17 -16q-32 -36 -30 -91q2 -27 12 -41q5 -8 13 -13q6 -3 7 -3l2 -1v0h1h-1h1q27 0 46 23zM39 69zM75 317q5 8 5 16.5t-5 11.5q-12 5 -26 -14q-11 -22 1 -29q14 -7 25 15zM136 317q11 21 -1 28q-14 5 -25 -14q-12 -21 0 -29q13 -7 26 15z" />
<glyph unicode="&#xe5;" d="M211 227q1 4 6 1q4 -3 3 -6q-2 -12 -4 -20q-14 -58 -24 -86q-6 -18 -15 -37q-8 -13 -14 -15h-1q-2 -1 -3 -1h-12q-14 2 -18 8q-1 1 -4 13q-3 28 1 65q-5 -17 -10 -28q-22 -53 -61 -60q-4 -1 -11 -1q-40 0 -57 24q-12 15 -14 46q0 28 10 55q24 64 82 64q6 0 10 -1h1h1 q18 -3 31 -15q12 -9 20 -23v6v3q0 20 -6 24q-4 3 5 5l4 1q13 3 20 -3q9 -7 9 -28q1 -20 0.5 -30t-2 -30t-1.5 -30q-2 -26 -1 -40q0 -1 1 -5.5t2 -7.5v-1q2 2 3 4t9 14q14 30 27 83q6 20 13 52zM86 92q27 31 38 95q0 1 1 4t1 5q-9 19 -22 31q-16 13 -36 13h-2q-2 -1 -3 -1 q-2 -1 -11 -5q-7 -4 -17 -16q-32 -36 -30 -91q2 -27 12 -41q5 -8 13 -13q6 -3 7 -3l2 -1v0h1h-1h1q27 0 46 23zM39 69zM74 332q10 19 27 14q22 -8 10 -31q-9 -18 -28 -13q-9 4 -11.5 13t2.5 17zM86 310q8 -5 14 7q7 15 0 20q-9 4 -16 -7q-7 -16 2 -20z" />
<glyph unicode="&#xe6;" horiz-adv-x="304" d="M-27 130q0 28 10 55q24 64 82 64q6 0 10 -1h1h1q18 -3 31 -15q12 -9 20 -23v6v3q0 20 -6 24q-4 3 5 5l4 1q13 3 20 -3q6 -5 8 -14q27 27 63 27q9 0 14 -2q19 -8 23 -24q8 -31 -39 -46q-27 -10 -59 -12q-4 -18 -4 -27v-3q2 -20 5 -30q4 -16 11 -26q17 -17 45 4 q28 20 56 64q18 27 41 67q2 5 7 0q3 -2 1 -5q-6 -12 -20 -36q-28 -48 -54 -76q-38 -36 -64 -36q-39 2 -50 31q-7 18 -9 36v6v4q-4 -14 -10 -27q-22 -53 -61 -60q-4 -1 -11 -1q-40 0 -57 24q-12 15 -14 46zM5 127q2 -27 12 -41q9 -17 23 -17q27 0 46 23q27 31 38 95q0 1 1 4 t1 5q-9 19 -22 31q-16 13 -36 13h-2q-2 -1 -3 -1q-2 -1 -11 -5q-7 -4 -17 -16q-32 -36 -30 -91zM179 187q39 6 61 21q12 10 10 21q-3 20 -27 20q-1 -1 -4 -1q-2 0 -11 -5q-7 -3 -19 -15q-18 -19 -25 -44z" />
<glyph unicode="&#xe7;" horiz-adv-x="142" d="M152 226q1 6 7 1q4 -2 3 -5q-8 -40 -22 -71q-20 -46 -47 -67q-19 -15 -36 -15q-38 0 -56 23q-14 18 -18 48q-3 26 4 55q15 63 71 64q11 0 18 -5q15 -12 21 -31q2 -3 -3 -5q-4 0 -6 5q-13 26 -22 26q-19 0 -33 -21q-26 -39 -18 -92q4 -25 15 -41q14 -17 24 -17q3 0 6 1 l9 3q21 11 42 39q27 40 41 105zM38 29q8 0 12 13q2 10 -5 12q-4 1 -5 3l8 14q1 4 10 1q2 -1 2 -2l-6 -12q12 -3 8 -16q-5 -17 -21 -18q-6 0 -7 3z" />
<glyph unicode="&#xe8;" horiz-adv-x="159" d="M170 224q2 5 7 0q3 -2 1 -5q-6 -12 -20 -36q-28 -48 -54 -76q-33 -31 -51 -34q-3 -2 -13 -2q-39 2 -50 31q-16 34 -5 78q10 34 34 56.5t58 22.5q9 0 14 -2q19 -8 23 -24q8 -31 -39 -46q-27 -10 -59 -12q-8 -30 1 -60q4 -16 11 -26q6 -6 9 -7l2 -1q1 0 1 -1q18 1 33 13 q28 20 56 64q18 27 41 67zM63 243q-7 -3 -19 -15q-18 -19 -25 -44l15 3q39 6 61 21q12 10 10 21q-3 20 -27 20q-2 -1 -4 -1t-11 -5zM28 349q-1 6 10 6q18 -2 25 -14q16 -29 16 -31q-4 -7 -27 16q-4 4 -8.5 8t-7.5 7t-5.5 5t-2.5 3z" />
<glyph unicode="&#xe9;" horiz-adv-x="159" d="M170 224q2 5 7 0q3 -2 1 -5q-6 -12 -20 -36q-28 -48 -54 -76q-33 -31 -51 -34q-3 -2 -13 -2q-39 2 -50 31q-16 34 -5 78q10 34 34 56.5t58 22.5q9 0 14 -2q19 -8 23 -24q8 -31 -39 -46q-27 -10 -59 -12q-8 -30 1 -60q4 -16 11 -26q6 -6 9 -7l2 -1q1 0 1 -1q18 1 33 13 q28 20 56 64q18 27 41 67zM63 243q-7 -3 -19 -15q-18 -19 -25 -44l15 3q39 6 61 21q12 10 10 21q-3 20 -27 20q-2 -1 -4 -1t-11 -5zM106 321q-23 -23 -27 -16q0 2 16 31q7 12 25 14q11 0 10 -6q0 -1 -3.5 -4t-9.5 -8.5t-11 -10.5z" />
<glyph unicode="&#xea;" horiz-adv-x="159" d="M170 224q2 5 7 0q3 -2 1 -5q-6 -12 -20 -36q-28 -48 -54 -76q-33 -31 -51 -34q-3 -2 -13 -2q-39 2 -50 31q-16 34 -5 78q10 34 34 56.5t58 22.5q9 0 14 -2q19 -8 23 -24q8 -31 -39 -46q-27 -10 -59 -12q-8 -30 1 -60q4 -16 11 -26q6 -6 9 -7l2 -1q1 0 1 -1q18 1 33 13 q28 20 56 64q18 27 41 67zM63 243q-7 -3 -19 -15q-18 -19 -25 -44l15 3q39 6 61 21q12 10 10 21q-3 20 -27 20q-2 -1 -4 -1t-11 -5zM78 348q2 2 9 2t8 -3q1 -4 4 -10t3 -7q10 -20 14 -21q6 0 6 -2q0 -3 -7 -4h-3q-19 3 -29 31l-32 -26q-9 -5 -14 -1z" />
<glyph unicode="&#xeb;" horiz-adv-x="159" d="M170 224q2 5 7 0q3 -2 1 -5q-6 -12 -20 -36q-28 -48 -54 -76q-33 -31 -51 -34q-3 -2 -13 -2q-39 2 -50 31q-16 34 -5 78q10 34 34 56.5t58 22.5q9 0 14 -2q19 -8 23 -24q8 -31 -39 -46q-27 -10 -59 -12q-8 -30 1 -60q4 -16 11 -26q6 -6 9 -7l2 -1q1 0 1 -1q18 1 33 13 q28 20 56 64q18 27 41 67zM63 243q-7 -3 -19 -15q-18 -19 -25 -44l15 3q39 6 61 21q12 10 10 21q-3 20 -27 20q-2 -1 -4 -1t-11 -5zM61 320q5 8 5 16.5t-5 11.5q-12 5 -26 -14q-11 -22 1 -29q14 -7 25 15zM122 320q11 21 -1 28q-14 5 -25 -14q-12 -21 0 -29q13 -7 26 15z " />
<glyph unicode="&#xec;" horiz-adv-x="77" d="M87 226q1 6 7 1q4 -3 3 -6q-1 -6 -3 -20q-8 -46 -21 -85q-8 -26 -15 -37q-10 -17 -25 -17q-29 2 -35 20q-4 13 -2 37q1 23 6 46q4 28 5 42l1 7q0 8 -1 8q-2 6 -3 7q-4 3 5 5l4 1q16 0 20 -3q6 -5 6 -26q-1 -15 -5.5 -42.5t-5.5 -39.5q-2 -25 0 -38q3 -13 7 -13t8 4 q5 5 9 15q11 21 26 83q1 6 3 16t3.5 18.5t2.5 16.5zM-18 320q-1 4 2.5 5t7.5 1q17 0 25 -14q16 -29 16 -31q-4 -7 -27 16q-4 4 -8.5 8t-7.5 7t-5.5 5t-2.5 3z" />
<glyph unicode="&#xed;" horiz-adv-x="77" d="M87 226q1 6 7 1q4 -3 3 -6q-1 -6 -3 -20q-8 -46 -21 -85q-8 -26 -15 -37q-10 -17 -25 -17q-29 2 -35 20q-4 13 -2 37q1 23 6 46q4 28 5 42l1 7q0 8 -1 8q-2 6 -3 7q-4 3 5 5l4 1q16 0 20 -3q6 -5 6 -26q-1 -15 -5.5 -42.5t-5.5 -39.5q-2 -25 0 -38q3 -13 7 -13t8 4 q5 5 9 15q11 21 26 83q1 6 3 16t3.5 18.5t2.5 16.5zM45 296q-23 -23 -27 -16q0 2 16 31q7 12 25 14q11 0 10 -6q0 -1 -3.5 -4t-9.5 -8.5t-11 -10.5z" />
<glyph unicode="&#xee;" horiz-adv-x="77" d="M87 226q1 6 7 1q4 -3 3 -6q-1 -6 -3 -20q-8 -46 -21 -85q-8 -26 -15 -37q-10 -17 -25 -17q-29 2 -35 20q-4 13 -2 37q1 23 6 46q4 28 5 42l1 7q0 8 -1 8q-2 6 -3 7q-4 3 5 5l4 1q16 0 20 -3q6 -5 6 -26q-1 -15 -5.5 -42.5t-5.5 -39.5q-2 -25 0 -38q3 -13 7 -13t8 4 q5 5 9 15q11 21 26 83q1 6 3 16t3.5 18.5t2.5 16.5zM22 324q2 2 9 2t8 -3q1 -4 4 -10t3 -7q10 -21 14 -21q6 0 6 -2t-6 -4h-4q-19 3 -29 31l-32 -26q-9 -5 -14 -1z" />
<glyph unicode="&#xef;" horiz-adv-x="77" d="M87 226q1 6 7 1q4 -3 3 -6q-1 -6 -3 -20q-8 -46 -21 -85q-8 -26 -15 -37q-10 -17 -25 -17q-29 2 -35 20q-4 13 -2 37q1 23 6 46q4 28 5 42l1 7q0 8 -1 8q-2 6 -3 7q-4 3 5 5l4 1q16 0 20 -3q6 -5 6 -26q-1 -15 -5.5 -42.5t-5.5 -39.5q-2 -25 0 -38q3 -13 7 -13t8 4 q5 5 9 15q11 21 26 83q1 6 3 16t3.5 18.5t2.5 16.5zM10 296q5 8 5 16.5t-5 11.5q-12 5 -26 -14q-11 -22 1 -29q14 -7 25 15zM71 296q11 21 -1 28q-14 5 -25 -14q-12 -21 0 -29q13 -7 26 15z" />
<glyph unicode="&#xf0;" horiz-adv-x="412" d="M296 130q-13 -70 -58.5 -109.5t-92.5 -4.5q-68 51 -65 151q2 82 46 129q48 53 106 10l6 -4q25 -20 41 -56q5 73 -8 144.5t-51 106.5q-27 25 -53 -1q-22 -22 -14 -67q1 -6 -1 -8q-3 -2 -5 5l-1 2q-10 56 8 80q30 40 78 -4q114 -103 64 -374zM191 28q32 4 52 39t24 79 q4 49 -14.5 91.5t-47.5 52.5q-43 14 -66 -25.5t-26 -104.5q-3 -59 17.5 -98t60.5 -34zM299 508q6 6 7 -0.5t-6 -15.5q-48 -58 -82 -90q-15 -15 -16 -5q-1 8 7 16q1 1 79 85z" />
<glyph unicode="&#xf1;" horiz-adv-x="210" d="M220 226q1 6 7 1q4 -3 3 -6q-2 -14 -4 -21q-10 -55 -23 -93q-7 -24 -16 -41q-8 -11 -12 -14q-3 -3 -9 -3q-16 0 -21 4q-15 11 -15 35q-1 19 5.5 52.5t7.5 37.5q4 25 1 38q-2 8 -7 12q-1 1 -3 2l-1 1q-21 0 -40 -23q-25 -29 -46 -98q-11 -43 -12 -50l2 -4q6 -2 7 -4t-4 -4 q-6 -1 -10 0q-18 0 -24 7q-3 4 -5 14q-3 15 -1 43q1 20 5 53l3 48q0 11 -1 16q0 8 -2 8q-4 3 5 5l4 1q13 3 20 -3q6 -4 6 -27q-1 -18 -4 -50t-4 -45q0 -4 -0.5 -13t-0.5 -13q15 55 30 87q14 28 29 43q13 13 28 17q3 2 12 2q36 -3 44 -20q4 -11 2 -37q0 -3 -9 -49 q-6 -30 -5 -47q0 -17 7 -26q1 0 3 2q3 3 9 16q14 26 28 90q7 34 11 56zM96 300q-2 -5 -6 -1q-1 1 0 2q10 15 22 15q2 0 10 -2q3 0 13 -11q13 -13 25 -1q4 4 6 2q1 -1 0 -3q-8 -16 -28 -12q-10 2 -15 10t-7 9q-4 3 -11 0t-9 -8z" />
<glyph unicode="&#xf2;" horiz-adv-x="165" d="M175 226q1 5 7 1q4 -3 3 -6t-2.5 -10t-2.5 -11q-16 -59 -37 -94q-32 -51 -72 -57q-3 -1 -10 -1q-41 0 -60 23q-34 40 -20 105q14 64 73 65q5 0 9 -1q21 -2 36 -14q17 -12 27 -34q17 -33 5 -67q-12 -35 -43 -45q-31 -9 -59 12q-8 5 -15 14q5 -19 16 -31q7 -9 15 -14 q6 -2 8 -3h1.5t1.5 -1h1q25 0 50 21q32 31 52 92q10 25 16 56zM27 210q-23 -34 -17 -83q9 -20 29 -32q26 -14 50 -3q27 13 35 46q7 29 -9 58q-8 17 -22 25q-12 9 -35 11l-3 -1q-2 0 -3 -1q-2 -1 -5.5 -2.5t-4.5 -1.5q-10 -8 -15 -16zM8 331q-1 6 10 6q18 -2 25 -14 q16 -29 16 -31q-4 -7 -27 16q-4 4 -8.5 8t-7.5 7t-5.5 5t-2.5 3z" />
<glyph unicode="&#xf3;" horiz-adv-x="165" d="M175 226q1 5 7 1q4 -3 3 -6t-2.5 -10t-2.5 -11q-16 -59 -37 -94q-32 -51 -72 -57q-3 -1 -10 -1q-41 0 -60 23q-34 40 -20 105q14 64 73 65q5 0 9 -1q21 -2 36 -14q17 -12 27 -34q17 -33 5 -67q-12 -35 -43 -45q-31 -9 -59 12q-8 5 -15 14q5 -19 16 -31q7 -9 15 -14 q6 -2 8 -3h1.5t1.5 -1h1q25 0 50 21q32 31 52 92q10 25 16 56zM27 210q-23 -34 -17 -83q9 -20 29 -32q26 -14 50 -3q27 13 35 46q7 29 -9 58q-8 17 -22 25q-12 9 -35 11l-3 -1q-2 0 -3 -1q-2 -1 -5.5 -2.5t-4.5 -1.5q-10 -8 -15 -16zM86 303q-23 -23 -27 -16q0 2 16 31 q7 12 25 14q11 0 10 -6q0 -1 -3.5 -4t-9.5 -8.5t-11 -10.5z" />
<glyph unicode="&#xf4;" horiz-adv-x="165" d="M175 226q1 5 7 1q4 -3 3 -6t-2.5 -10t-2.5 -11q-16 -59 -37 -94q-32 -51 -72 -57q-3 -1 -10 -1q-41 0 -60 23q-34 40 -20 105q14 64 73 65q5 0 9 -1q21 -2 36 -14q17 -12 27 -34q17 -33 5 -67q-12 -35 -43 -45q-31 -9 -59 12q-8 5 -15 14q5 -19 16 -31q7 -9 15 -14 q6 -2 8 -3h1.5t1.5 -1h1q25 0 50 21q32 31 52 92q10 25 16 56zM27 210q-23 -34 -17 -83q9 -20 29 -32q26 -14 50 -3q27 13 35 46q7 29 -9 58q-8 17 -22 25q-12 9 -35 11l-3 -1q-2 0 -3 -1q-2 -1 -5.5 -2.5t-4.5 -1.5q-10 -8 -15 -16zM58 330q2 2 9 2t8 -3q1 -4 4 -10t3 -7 q10 -20 14 -21q6 0 6 -2q0 -3 -7 -4h-3q-19 3 -29 31l-32 -26q-9 -5 -14 -1z" />
<glyph unicode="&#xf5;" horiz-adv-x="165" d="M175 226q1 5 7 1q4 -3 3 -6t-2.5 -10t-2.5 -11q-16 -59 -37 -94q-32 -51 -72 -57q-3 -1 -10 -1q-41 0 -60 23q-34 40 -20 105q14 64 73 65q5 0 9 -1q21 -2 36 -14q17 -12 27 -34q17 -33 5 -67q-12 -35 -43 -45q-31 -9 -59 12q-8 5 -15 14q5 -19 16 -31q7 -9 15 -14 q6 -2 8 -3h1.5t1.5 -1h1q25 0 50 21q32 31 52 92q10 25 16 56zM27 210q-23 -34 -17 -83q9 -20 29 -32q26 -14 50 -3q27 13 35 46q7 29 -9 58q-8 17 -22 25q-12 9 -35 11l-3 -1q-2 0 -3 -1q-2 -1 -5.5 -2.5t-4.5 -1.5q-10 -8 -15 -16zM27 300q-2 -5 -6 -1q-1 1 0 2 q10 15 22 15q2 0 10 -2q2 0 13 -11q13 -13 25 -1q4 4 6 2q1 -1 0 -3q-8 -16 -28 -12q-10 2 -15 10t-7 9q-4 3 -11 0t-9 -8z" />
<glyph unicode="&#xf6;" horiz-adv-x="165" d="M175 226q1 5 7 1q4 -3 3 -6t-2.5 -10t-2.5 -11q-16 -59 -37 -94q-32 -51 -72 -57q-3 -1 -10 -1q-41 0 -60 23q-34 40 -20 105q14 64 73 65q5 0 9 -1q21 -2 36 -14q17 -12 27 -34q17 -33 5 -67q-12 -35 -43 -45q-31 -9 -59 12q-8 5 -15 14q5 -19 16 -31q7 -9 15 -14 q6 -2 8 -3h1.5t1.5 -1h1q25 0 50 21q32 31 52 92q10 25 16 56zM27 210q-23 -34 -17 -83q9 -20 29 -32q26 -14 50 -3q27 13 35 46q7 29 -9 58q-8 17 -22 25q-12 9 -35 11l-3 -1q-2 0 -3 -1q-2 -1 -5.5 -2.5t-4.5 -1.5q-10 -8 -15 -16zM41 302q5 8 5 16.5t-5 11.5 q-12 5 -26 -14q-11 -22 1 -29q14 -7 25 15zM102 302q11 21 -1 28q-14 5 -25 -14q-12 -21 0 -29q13 -7 26 15z" />
<glyph unicode="&#xf7;" horiz-adv-x="273" d="M44 163q-12 -1 3 16q9 10 15 11q30 3 84 1t82 1q5 1 5 -3q0 -10 -15 -20q-4 -3 -7 -3q-30 -2 -83.5 -1t-83.5 -2zM149 79q5 8 5 16.5t-5 11.5q-12 5 -26 -14q-11 -22 1 -29q14 -7 25 15zM149 260q5 8 5 16.5t-5 11.5q-12 5 -26 -14q-11 -22 1 -29q14 -7 25 15z" />
<glyph unicode="&#xf8;" horiz-adv-x="165" d="M175 226q1 5 7 1q4 -3 3 -6t-2.5 -10t-2.5 -11q-16 -59 -37 -94q-32 -51 -72 -57q-3 -1 -10 -1q-41 0 -60 23q-34 40 -20 105q14 64 73 65q27 0 45 -15q17 -12 27 -34q17 -33 5 -67q-12 -35 -43 -45q-31 -9 -59 12q-8 5 -15 14q5 -18 17 -33.5t26 -15.5q25 0 50 21 q32 31 52 92q10 25 16 56zM27 210q-23 -34 -17 -83q9 -20 29 -32q26 -14 50 -3q27 13 35 46q7 29 -9 58q-8 17 -22 25q-12 9 -35 11l-3 -1q-2 0 -3 -1q-2 -1 -5.5 -2.5t-4.5 -1.5q-10 -8 -15 -16zM128 255q-6 -14 -56.5 -119t-53.5 -108q-10 -13 -13 -5l2 6q4 6 27 54 t50 105t36 74q6 12 9 7t-1 -14z" />
<glyph unicode="&#xf9;" horiz-adv-x="186" d="M196 226q1 6 7 1q4 -2 3 -5q0 -4 -1.5 -10.5t-2.5 -9.5q-12 -56 -22 -82q-8 -23 -16 -36q-3 -7 -9 -11q0 -1 -10 -4h-1h-3q-26 2 -32 20q-4 9 -6 38v47v1q-11 -42 -24 -67q-9 -18 -19 -28q-2 -4 -9 -8l-11 -3v0h-3q-19 3 -24 7q-4 4 -6 12q-4 13 -4 38q0 8 0.5 24t0.5 23 q0 29 -1 44q-3 21 -8 25q-3 3 1 4t8 1q14 3 20 -3q10 -8 10 -27q1 -7 1 -85q0 -25 2 -38q3 -10 4 -13l1 -1q3 1 14 12q18 23 31 67q13 40 15 68q-1 1 -1 4q0 1 -2 5l-1 2q-4 3 5 5l4 1q16 0 20 -3q7 -5 7 -25q1 -16 1 -42.5v-41.5q0 -21 4 -38q2 -8 5 -13q0 -1 1 -1q2 1 5 4 q6 6 9 14q14 26 26 79q7 29 11 49zM63 346q-1 6 10 6q18 -2 25 -14q16 -29 16 -31q-4 -7 -27 16q-4 4 -8.5 8t-7.5 7t-5.5 5t-2.5 3z" />
<glyph unicode="&#xfa;" horiz-adv-x="186" d="M196 226q1 6 7 1q4 -2 3 -5q0 -4 -1.5 -10.5t-2.5 -9.5q-12 -56 -22 -82q-8 -23 -16 -36q-3 -7 -9 -11q0 -1 -10 -4h-1h-3q-26 2 -32 20q-4 9 -6 38v47v1q-11 -42 -24 -67q-9 -18 -19 -28q-2 -4 -9 -8l-11 -3v0h-3q-19 3 -24 7q-4 4 -6 12q-4 13 -4 38q0 8 0.5 24t0.5 23 q0 29 -1 44q-3 21 -8 25q-3 3 1 4t8 1q14 3 20 -3q10 -8 10 -27q1 -7 1 -85q0 -25 2 -38q3 -10 4 -13l1 -1q3 1 14 12q18 23 31 67q13 40 15 68q-1 1 -1 4q0 1 -2 5l-1 2q-4 3 5 5l4 1q16 0 20 -3q7 -5 7 -25q1 -16 1 -42.5v-41.5q0 -21 4 -38q2 -8 5 -13q0 -1 1 -1q2 1 5 4 q6 6 9 14q14 26 26 79q7 29 11 49zM141 318q-23 -23 -27 -16q0 2 16 31q7 12 25 14q11 0 10 -6q0 -1 -3.5 -4t-9.5 -8.5t-11 -10.5z" />
<glyph unicode="&#xfb;" horiz-adv-x="186" d="M196 226q1 6 7 1q4 -2 3 -5q0 -4 -1.5 -10.5t-2.5 -9.5q-12 -56 -22 -82q-8 -23 -16 -36q-3 -7 -9 -11q0 -1 -10 -4h-1h-3q-26 2 -32 20q-4 9 -6 38v47v1q-11 -42 -24 -67q-9 -18 -19 -28q-2 -4 -9 -8l-11 -3v0h-3q-19 3 -24 7q-4 4 -6 12q-4 13 -4 38q0 8 0.5 24t0.5 23 q0 29 -1 44q-3 21 -8 25q-3 3 1 4t8 1q14 3 20 -3q10 -8 10 -27q1 -7 1 -85q0 -25 2 -38q3 -10 4 -13l1 -1q3 1 14 12q18 23 31 67q13 40 15 68q-1 1 -1 4q0 1 -2 5l-1 2q-4 3 5 5l4 1q16 0 20 -3q7 -5 7 -25q1 -16 1 -42.5v-41.5q0 -21 4 -38q2 -8 5 -13q0 -1 1 -1q2 1 5 4 q6 6 9 14q14 26 26 79q7 29 11 49zM113 345q3 3 9.5 3t7.5 -4t4 -10t3 -7q10 -20 14 -21q6 0 6 -2q0 -3 -7 -4h-3q-19 3 -29 31l-32 -26q-9 -5 -14 -1z" />
<glyph unicode="&#xfc;" horiz-adv-x="186" d="M196 226q1 6 7 1q4 -2 3 -5q0 -4 -1.5 -10.5t-2.5 -9.5q-12 -56 -22 -82q-8 -23 -16 -36q-3 -7 -9 -11q0 -1 -10 -4h-1h-3q-26 2 -32 20q-4 9 -6 38v47v1q-11 -42 -24 -67q-9 -18 -19 -28q-2 -4 -9 -8l-11 -3v0h-3q-19 3 -24 7q-4 4 -6 12q-4 13 -4 38q0 8 0.5 24t0.5 23 q0 29 -1 44q-3 21 -8 25q-3 3 1 4t8 1q14 3 20 -3q10 -8 10 -27q1 -7 1 -85q0 -25 2 -38q3 -10 4 -13l1 -1q3 1 14 12q18 23 31 67q13 40 15 68q-1 1 -1 4q0 1 -2 5l-1 2q-4 3 5 5l4 1q16 0 20 -3q7 -5 7 -25q1 -16 1 -42.5v-41.5q0 -21 4 -38q2 -8 5 -13q0 -1 1 -1q2 1 5 4 q6 6 9 14q14 26 26 79q7 29 11 49zM96 317q5 8 5 16.5t-5 11.5q-12 5 -26 -14q-11 -22 1 -29q14 -7 25 15zM157 317q11 21 -1 28q-14 5 -25 -14q-12 -21 0 -29q13 -7 26 15z" />
<glyph unicode="&#xfd;" horiz-adv-x="183" d="M193 228q1 6 7 1q4 -2 3 -5q-2 -12 -4 -19q-18 -66 -72 -120q-9 -79 -33 -146q-50 -138 -156 -139h-6q-2 0 -7 1t-7 1q-36 7 -60 35q-22 26 -22 58q1 34 29 55q11 8 41 21q7 3 46.5 20.5t59.5 27.5q49 26 80 52q0 3 1 9.5t2 9.5q5 42 5 76q-9 -37 -24 -68q-9 -18 -19 -28 q-6 -6 -10 -8q-1 -3 -10 -3h-1h-3q-16 0 -23 7q-5 4 -7 13q-3 12 -3 37v48q2 24 -1 44q-3 21 -8 24q-4 3 5 5l4 1q13 3 21 -3q7 -6 10 -27q2 0 1 -43l-1 -43q0 -25 3 -38q3 -11 4 -13v-1q4 1 15 12q18 23 31 67q14 43 15 78q-2 7 -4 9t3 4q19 6 27 -2q5 -4 5 -18 q2 -14 2 -42q0 -42 -4 -74q51 54 65 124zM26 -133q46 68 64 188q-31 -23 -74 -46q-21 -11 -103 -46q-20 -9 -32.5 -16.5t-23.5 -22.5t-11 -34q2 -31 24 -55q25 -25 64 -25q51 0 92 57zM107 313q-23 -23 -27 -16q0 2 16 31q7 12 25 14q11 0 10 -6q0 -1 -3.5 -4t-9.5 -8.5 t-11 -10.5z" />
<glyph unicode="&#xfe;" horiz-adv-x="290" d="M5 9q9 1 14 27.5t5.5 67t0.5 77t-1.5 71.5t-1.5 38q0 5 -1.5 31t-2.5 52t0 54.5t6.5 47.5t16.5 22q10 3 16 -3q2 -1 -2 -3q-1 -1 -3 -1q-14 -4 -10 -149q30 57 93 57q78 0 103 -74.5t-12.5 -149t-110.5 -74.5q-46 0 -67 26q0 -119 -31 -125q-8 -1 -15 3q-5 3 3 5zM42 325 q0 -23 1 -50t1.5 -44t0.5 -22q0 -2 1 -23.5t1 -37.5q21 -40 63 -40q61 0 89 70.5t8 141t-76 70.5q-20 0 -47 -17t-42 -48z" />
<glyph unicode="&#xff;" horiz-adv-x="183" d="M193 228q1 6 7 1q4 -2 3 -5q-2 -12 -4 -19q-18 -66 -72 -120q-9 -79 -33 -146q-50 -138 -156 -139h-6q-2 0 -7 1t-7 1q-36 7 -60 35q-22 26 -22 58q1 34 29 55q11 8 41 21q7 3 46.5 20.5t59.5 27.5q49 26 80 52q0 3 1 9.5t2 9.5q5 42 5 76q-9 -37 -24 -68q-9 -18 -19 -28 q-6 -6 -10 -8q-1 -3 -10 -3h-1h-3q-16 0 -23 7q-5 4 -7 13q-3 12 -3 37v48q2 24 -1 44q-3 21 -8 24q-4 3 5 5l4 1q13 3 21 -3q7 -6 10 -27q2 0 1 -43l-1 -43q0 -25 3 -38q3 -11 4 -13v-1q4 1 15 12q18 23 31 67q14 43 15 78q-2 7 -4 9t3 4q19 6 27 -2q5 -4 5 -18 q2 -14 2 -42q0 -42 -4 -74q51 54 65 124zM26 -133q46 68 64 188q-31 -23 -74 -46q-21 -11 -103 -46q-20 -9 -32.5 -16.5t-23.5 -22.5t-11 -34q2 -31 24 -55q25 -25 64 -25q51 0 92 57zM62 312q5 8 5 16.5t-5 11.5q-12 5 -26 -14q-11 -22 1 -29q14 -7 25 15zM123 312 q11 21 -1 28q-14 5 -25 -14q-12 -21 0 -29q13 -7 26 15z" />
<glyph unicode="&#x152;" horiz-adv-x="941" d="M9 143q-13 27 -8 55t29 34q41 10 69 -31q9 -14 20 -48q7 -27 8 -47q1 -17 -2 -37q13 -2 37 -2q30 0 62 10q-20 27 -34 63q-22 52 -27 113q-5 54 5 90q11 39 46 59q-20 26 -25 56q-45 -6 -70 -2q-21 3 -35 15q-17 14 -24 37q-1 4 2 4q5 1 7 -4q10 -26 26 -35q11 -7 35 -9 q8 -1 43 2l15 3q-1 20 5 41q14 41 56.5 60.5t98.5 20.5h4q23 0 49 -3l-2 6q-5 20 0.5 37.5t23.5 17.5q5 0 7 -5q1 -4 -3 -4q-3 0 -5 -1q-10 -4 -14 -20q-2 -12 3 -33q35 -6 71 -24q32 -17 57 -44q4 47 48.5 75.5t101.5 28.5h9q4 -1 10 -1q34 -5 65.5 -27.5t40.5 -53.5 q11 -40 -20 -59t-77 -24q-66 -6 -136 7q29 -63 117 -128l1 -2q0 -4 -14 -4q-5 0 -8 1h-5h-1h-1q-24 0 -35 -1q-120 -8 -150 -77q-23 -52 9 -128q19 -47 64 -87t90 -43q12 0 32 2q-36 33 -54.5 73t-14.5 78q4 43 32 74t72 35h8q23 0 41 -11q21 -11 38 -39q28 -49 23 -100 q-4 -37 -33 -69q-30 -30 -76 -44q63 -51 128 -50q26 2 44 10q38 14 53 48q16 37 -1 87q-1 4 2 4q5 1 7 -4q11 -32 10 -57q-2 -40 -29.5 -65.5t-70.5 -30.5q-4 -1 -12 -1q-64 -2 -117 27q-22 11 -40 26q-11 -2 -34 -2q-7 -2 -11 0q-64 3 -120 53q-59 -45 -142 -46h-6 q-68 0 -122 49q-9 7 -23 24q-30 -9 -67 -9h-4q-21 0 -38 4q-2 -12 -11 -26q-19 -25 -62 -25q-16 0 -17 5q-1 1 0.5 2t4.5 1.5t5 0.5h4q36 1 46 49q-27 10 -49 27q-22 20 -35 48zM10 191q-4 -23 9.5 -50.5t38.5 -45.5q18 -12 37 -18q1 9 1 26q-3 41 -17 76q-6 14 -10.5 21.5 t-12 14.5t-15.5 7q-25 0 -31 -31zM174 237q8 -58 30 -107q12 -28 28 -50q28 12 50 30q38 32 59.5 79.5t19.5 100.5q-2 33 -16 63q-14 -3 -36 -3q-42 2 -75 29l-14 14q-35 -22 -45 -65q-7 -42 -1 -91zM198 470q46 6 71 6q3 1 6 1q39 0 70 -16q21 -12 34.5 -30.5t12.5 -37.5 t-19 -30q18 -31 20 -80q0 -52 -25 -104q-41 -83 -127 -110q15 -18 28 -28q46 -38 110 -38q76 0 131 50q-33 36 -48 72q-34 81 -6 135q20 42 79 63q56 20 124 18q-67 51 -96 97q-10 15 -16 31l-2 3q-35 8 -64 25q-55 32 -76 79q-21 5 -50 5q-73 0 -113 -27q-45 -30 -44 -84z M199 460q2 -13 6 -26q6 -15 16 -28q24 10 48 10q55 0 88 -33q10 21 -9 48q-13 16 -31 26q-11 5 -20 8q-3 0 -4 1h-1q-1 0 -3 0.5t-3 0.5h-3h-2h-2q-29 0 -64 -5q-3 0 -8 -0.5t-8 -1.5zM228 397q5 -6 17 -16q31 -22 66 -22q20 0 28 6q-25 41 -67 41q-24 0 -44 -9zM416 573 q22 -47 87 -78q6 -2 18 -6.5t18 -6.5q-35 53 -89 79q-19 8 -34 12zM573 534q-7 -29 4 -61q10 -2 28 -4q74 -10 130 0q36 7 59 27t7 55q-14 28 -46.5 45t-62.5 17q-42 -1 -75.5 -22.5t-43.5 -56.5zM647 95q15 -52 60 -92q9 1 18 6q83 32 90 105q4 41 -20.5 88t-69.5 46 q-40 -5 -66 -51t-12 -102z" />
<glyph unicode="&#x153;" horiz-adv-x="324" d="M316 224q2 5 7 0q3 -2 1 -5q-6 -12 -20 -36q-28 -48 -54 -76q-38 -36 -64 -36q-39 2 -50 31q-16 34 -5 78q10 34 34 56.5t58 22.5q31 0 37 -26q7 -25 -24.5 -40.5t-73.5 -17.5q-8 -30 1 -60q4 -16 11 -26l12 -9q18 1 33 13q28 20 56 64q18 27 41 67zM209 243 q-7 -3 -19 -15q-18 -19 -25 -44q49 4 76 24q12 10 10 21q-4 26 -31 19q-2 0 -11 -5zM143 106q-32 -51 -72 -57q-3 -1 -10 -1q-41 0 -60 23q-34 40 -20 105q14 64 73 65q49 0 72 -49q17 -33 5 -67q-12 -35 -43 -45q-31 -9 -59 12q-8 5 -15 14q5 -19 16 -31q7 -9 15 -14l8 -3 h1.5t1.5 -1h1q25 0 50 21q16 15 32 43l7 -9zM27 210q-23 -34 -17 -83q9 -20 29 -32q26 -14 50 -3q27 13 35 46q7 29 -9 58q-9 18 -26 28t-31 8q-19 -4 -31 -22z" />
<glyph unicode="&#x178;" horiz-adv-x="847" d="M851 568v-1q19 -13 15 -59q-8 -58 -49 -132q-24 -46 -63 -99q0 -3 -1 -9t-1 -9q-8 -137 -28 -199q38 4 58 8q15 3 26 6.5t25 11t16 18.5t-1 28q-1 4 4 4t6 -4q10 -34 -13 -52q-20 -15 -60 -22q-28 -5 -65 -7q-51 -148 -159 -149q-6 0 -10 1q-22 2 -41 15q-43 31 -43 74 q1 25 17.5 39.5t42.5 18.5q32 6 85 6q13 0 39.5 1t39.5 2q13 40 20 79q5 32 9 98q-6 -8 -10 -12q-54 -61 -102 -93q-39 -26 -71 -29q-3 -1 -8 -1q-28 3 -37 12q-10 10 -12 36q-2 24 11 135q1 11 4.5 39t4.5 43t3 38.5t1.5 44.5t-2.5 42q-4 37 -15.5 74.5t-42.5 72.5t-73 35 q-3 0 -9 -0.5t-8 -0.5q-64 -6 -106 -54q-37 -41 -50 -109q-8 -42 -5 -85q6 1 17 1q49 2 66 1q0 24 8 50q11 41 36 67t56 29h8q38 0 56 -40q16 -36 18 -87q4 -51 -7 -102q-25 -117 -118 -118q-5 0 -8 1h-6q-51 6 -88 56q-35 47 -44 114q-2 12 -2 18l-36 -3q-34 -2 -52 -2 q-24 0 -42 5q-21 7 -33 18q-15 14 -22 36q-1 4 2 4q5 1 7 -4q4 -10 10 -20q20 -29 73 -29q30 -1 92 5q-5 56 7 104q16 68 59 109q44 42 111 45h7q64 0 103 -39q42 -40 56 -113q14 -67 2 -190q-17 -151 -17 -165q-2 -30 3 -46q1 -6 6 -14q4 -4 6 -4q16 0 36 9q25 10 47 26 q49 35 101 96q2 2 5.5 6.5t5.5 6.5q4 70 8 105q15 102 41 160q23 51 63 52q16 0 17 -4zM285 415q0 -19 4 -36q7 -34 28 -46q27 -14 39 5q11 21 -6 44q-19 27 -65 33zM210 416q-5 -1 -16 -1q2 -22 4 -32q13 -65 46 -105q18 -21 38 -32q22 -11 47 -11q38 0 65 43q41 66 32 173 q-4 48 -16 76q-5 16 -14 26l-4 4t-5 4l-1 1q-2 0 -2 1q-4 0 -14 -2q-32 -8 -53 -40q-20 -29 -28 -70q-3 -12 -3 -27q22 -3 42 -13q37 -21 41 -52q6 -30 -16 -39q-11 -5 -26.5 0t-25.5 16q-21 21 -25 61q-1 7 -1 19q-22 2 -65 0zM654 -18q19 29 33 67q-13 -1 -38.5 -1.5 t-38.5 -0.5q-52 -2 -77 -6q-32 -5 -46 -23q-22 -27 2 -67q26 -40 69 -40q49 1 96 71zM856 513q2 24 -2 38q-4 11 -15 12q0 -2 -5 -2l-4 -4t-5 -4q-6 -6 -16 -22q-16 -27 -26 -69q-20 -68 -28 -164q31 44 57 90q37 75 44 125zM693 731q5 8 5 16.5t-5 11.5q-12 5 -26 -14 q-11 -22 1 -29q14 -7 25 15zM754 731q11 21 -1 28q-14 5 -25 -14q-12 -21 0 -29q13 -7 26 15z" />
<glyph unicode="&#x2c6;" horiz-adv-x="85" d="M41 696q3 2 9.5 2t7.5 -3q1 -4 4 -10t3 -7q10 -20 14 -21q6 0 6 -2q0 -3 -7 -4h-3q-19 3 -29 31l-32 -26q-9 -5 -14 -1z" />
<glyph unicode="&#x2dc;" horiz-adv-x="76" d="M6 679q-2 -5 -6 -1q-1 1 0 2q10 15 22 15q2 0 10 -2q3 -1 13 -11q13 -13 25 -1q4 4 6 2q1 -1 0 -3q-8 -16 -28 -12q-10 2 -15 10t-7 9q-4 3 -11 0t-9 -8z" />
<glyph unicode="&#x2000;" horiz-adv-x="383" />
<glyph unicode="&#x2001;" horiz-adv-x="766" />
<glyph unicode="&#x2002;" horiz-adv-x="383" />
<glyph unicode="&#x2003;" horiz-adv-x="766" />
<glyph unicode="&#x2004;" horiz-adv-x="255" />
<glyph unicode="&#x2005;" horiz-adv-x="191" />
<glyph unicode="&#x2006;" horiz-adv-x="127" />
<glyph unicode="&#x2007;" horiz-adv-x="127" />
<glyph unicode="&#x2008;" horiz-adv-x="95" />
<glyph unicode="&#x2009;" horiz-adv-x="153" />
<glyph unicode="&#x200a;" horiz-adv-x="42" />
<glyph unicode="&#x2010;" horiz-adv-x="243" d="M44 163q-12 -1 3 16q9 10 15 11q30 3 69 1t67 1q5 1 5 -3q0 -10 -15 -20q-4 -3 -7 -3q-30 -2 -68.5 -1t-68.5 -2z" />
<glyph unicode="&#x2011;" horiz-adv-x="243" d="M44 163q-12 -1 3 16q9 10 15 11q30 3 69 1t67 1q5 1 5 -3q0 -10 -15 -20q-4 -3 -7 -3q-30 -2 -68.5 -1t-68.5 -2z" />
<glyph unicode="&#x2012;" horiz-adv-x="243" d="M44 163q-12 -1 3 16q9 10 15 11q30 3 69 1t67 1q5 1 5 -3q0 -10 -15 -20q-4 -3 -7 -3q-30 -2 -68.5 -1t-68.5 -2z" />
<glyph unicode="&#x2013;" horiz-adv-x="391" d="M44 163q-12 -1 3 16q9 10 15 11q30 3 143 1t141 1q5 1 5 -3q0 -10 -15 -20q-4 -3 -7 -3q-30 -2 -142.5 -1t-142.5 -2z" />
<glyph unicode="&#x2014;" horiz-adv-x="520" d="M44 163q-12 -1 3 16q9 10 15 11q30 3 207.5 1t205.5 1q5 1 5 -3q0 -10 -15 -20q-4 -3 -7 -3q-30 -2 -207 -1t-207 -2z" />
<glyph unicode="&#x2018;" horiz-adv-x="123" d="M61 322q-14 -2 -19 10t5 28t23 16t13 -6q0 -3 -10 -3q-7 0 -9 -8.5t1 -10.5q10 -13 6.5 -19t-10.5 -7z" />
<glyph unicode="&#x2019;" horiz-adv-x="123" d="M62 376q14 2 19 -10t-5 -28t-23 -16t-13 6q0 3 10 3q7 0 9 8.5t-1 10.5q-10 13 -6.5 19t10.5 7z" />
<glyph unicode="&#x201a;" horiz-adv-x="123" d="M62 104q14 2 19 -10t-5 -28t-23 -16t-13 6q0 3 10 3q7 0 9 8.5t-1 10.5q-10 13 -6.5 19t10.5 7z" />
<glyph unicode="&#x201c;" horiz-adv-x="198" d="M61 322q-14 -2 -19 10t5 28t23 16t13 -6q0 -3 -10 -3q-7 0 -9 -8.5t1 -10.5q10 -13 6.5 -19t-10.5 -7zM136 322q-14 -2 -19 10t5 28t23 16t13 -6q0 -3 -10 -3q-7 0 -9 -8.5t1 -10.5q10 -13 6.5 -19t-10.5 -7z" />
<glyph unicode="&#x201d;" horiz-adv-x="198" d="M137 376q14 2 19 -10t-5 -28t-23 -16t-13 6q0 3 10 3q7 0 9 8.5t-1 10.5q-10 13 -6.5 19t10.5 7zM62 376q14 2 19 -10t-5 -28t-23 -16t-13 6q0 3 10 3q7 0 9 8.5t-1 10.5q-10 13 -6.5 19t10.5 7z" />
<glyph unicode="&#x201e;" horiz-adv-x="123" d="M62 104q14 2 19 -10t-5 -28t-23 -16t-13 6q0 3 10 3q7 0 9 8.5t-1 10.5q-10 13 -6.5 19t10.5 7zM62 104q14 2 19 -10t-5 -28t-23 -16t-13 6q0 3 10 3q7 0 9 8.5t-1 10.5q-10 13 -6.5 19t10.5 7z" />
<glyph unicode="&#x2022;" horiz-adv-x="156" d="M115 204q4 17 -6 29t-24 11q-14 -3 -27 -18.5t-18 -34.5q0 -19 9.5 -30t24.5 -9q17 3 28.5 18.5t12.5 33.5z" />
<glyph unicode="&#x2026;" horiz-adv-x="115" d="M70 79q5 8 5 16.5t-5 11.5q-12 5 -26 -14q-11 -22 1 -29q14 -7 25 15zM70 79q5 8 5 16.5t-5 11.5q-12 5 -26 -14q-11 -22 1 -29q14 -7 25 15zM70 79q5 8 5 16.5t-5 11.5q-12 5 -26 -14q-11 -22 1 -29q14 -7 25 15z" />
<glyph unicode="&#x202f;" horiz-adv-x="153" />
<glyph unicode="&#x2039;" horiz-adv-x="225" d="M168 240q14 1 17 -6q1 -2 -3 -3q-2 -1 -6 -1q-8 -1 -15.5 -3.5t-15.5 -7.5t-13 -9t-14 -11.5t-12 -9.5q-29 -21 -32 -23q-2 -1 -5 0l6 -3q1 -1 8.5 -5t11 -6t10.5 -6.5t11 -8t8.5 -8.5t6.5 -10t3 -10q0 -3 -7 -4.5t-15 -0.5t-8 5q-1 7 -5.5 13.5t-13 13t-14.5 10.5 t-16.5 10t-12.5 7t-2 2.5t2 2.5q13 8 37 27.5t45 31.5t44 13z" />
<glyph unicode="&#x203a;" horiz-adv-x="225" d="M57 103q-14 -1 -17 6q-1 2 3 3l6 1q8 1 15.5 3.5t15.5 7.5t13 9t14 11.5t12 9.5q29 21 32 23q2 1 5 0l-6 3q-1 1 -8.5 5t-11 6t-10.5 6.5t-11 8t-8.5 8.5t-6.5 10t-3 10q0 3 7 4.5t15 0.5t8 -5q1 -7 5.5 -13.5t13 -13t14.5 -10.5t16.5 -10t12.5 -7t2 -2.5t-2 -2.5 q-13 -8 -37 -27.5t-45 -31.5t-44 -13z" />
<glyph unicode="&#x205f;" horiz-adv-x="191" />
<glyph unicode="&#x20ac;" horiz-adv-x="310" d="M61 188h24q-1 13 1 41q-20 0 -25 1q-21 5 -21 9q1 2 4 2h17h27q2 14 4 21q10 43 37 70t72 28q16 0 28 -7q25 -25 32 -48q2 -5 -5 -8q-4 0 -9 8q0 1 -4.5 9.5t-6.5 11.5t-6 8.5t-8 8t-9 2.5q-28 0 -50 -32q-20 -28 -28 -72q13 1 28 2t13 1q8 1 10.5 1t2.5 -2q0 -5 -1 -7.5 t-8 -4.5t-22 -2h-24q-3 -17 -1 -41q21 1 43 3q13 2 13 -1q0 -5 -1 -7.5t-8 -4.5t-22 -2h-24q1 -1 1 -4q6 -38 23 -63q8 -10 20 -18t17 -8q21 0 42 19t20 41q5 2 9.5 -6.5t2.5 -21.5t-14 -23q-27 -23 -55 -23q-58 0 -86 35q-23 28 -28 72q-20 0 -25 1q-21 5 -21 9q1 2 4 2h17 z" />
<glyph unicode="&#x2122;" horiz-adv-x="651" d="M252 396q10 0 14 1q16 3 26 10q9 7 13 14q15 20 20 32q13 24 29 78l24 78q18 48 27 61q19 23 36 24h1h3h2q7 0 6 -3q-2 -4 -4.5 -11.5l-3.5 -10.5q-19 -57 -19 -115q0 -38 10 -77q3 -15 9 -29q1 -2 2.5 -4.5t2.5 -3.5q0 -2 1 -2q3 3 4 6q4 7 5 15q2 8 7 46q1 27 10 58 q13 36 24 60q17 32 31 46q16 18 32 19h2l2 1l2 -1l7 -2q-7 -15 -13 -32q-29 -86 -27 -143q2 -49 21 -92q5 -14 18 -30l9 -9q1 -1 5 -3l2 -1q5 0 11 4q3 2 3 9q0 9 -6 29q-2 3 0.5 3t3.5 -3q8 -20 7 -32q-1 -11 -13 -14h-5q-27 0 -46 37q-21 40 -25 98q-2 32 7 80 q14 59 31 95q-4 -1 -10 -5q-7 -5 -19 -17q-17 -21 -30 -51q-16 -33 -22 -61q0 -2 -2.5 -12.5t-3.5 -16.5q-1 -7 -2 -20.5t-1 -14.5q-4 -24 -8 -37q-2 -8 -6 -11q1 -1 2 -1q0 -2 -8 -2q-4 0 -7.5 1.5t-5.5 3.5t-4.5 6t-3.5 6t-3 7.5t-2 6.5q-22 76 -7 156q9 42 20 68 q-19 -5 -32 -30q-11 -17 -26 -65q-22 -70 -25 -80q-13 -41 -31 -75q-12 -20 -21 -30q-17 -17 -46 -17h-5q-2 0 -5 0.5t-4 0.5q-7 4 10 4zM126 372q16 -9 41 -9q39 0 66 36q19 24 27 57.5t12.5 78.5t9.5 68q10 43 25 60q5 7 16 12q-79 9 -129 9q-28 0 -51 -4q-20 -4 -32 -11 q8 0 11 -2q17 -7 19 -10q8 -9 6 -17q-3 -17 -30 -17q-1 0 -4 1q-13 0 -18 6q-5 7 -7 15q-3 12 10 21h-1h-1h-1h-2q-27 0 -37 -7q-14 -8 -10 -26q1 -2 -1 -2q-3 1 -4 2q-5 20 10.5 29.5t37.5 9.5h3q3 0 11 -2q6 4 7 5q27 13 81 13h1q23 0 70 -5t71 -5h5h3q2 0 23 -2t32 -4 q36 -6 54 -6q19 0 29 5q9 4 13 10v4q0 3 -1 5t-5 5q-1 0 -3.5 1.5t-3.5 2.5q-9 3 -26 3q-2 2 -2 5q17 0 31 -5q12 -8 14 -12q3 -7 -1 -13q-3 -5 -15 -11q-9 -4 -26 -4h-3q-18 0 -56 5.5t-57 5.5q-3 0 -3 -1l-5 -2.5t-4 -2.5q-7 -7 -14 -21q-16 -31 -23 -102.5t-17 -99.5 q-30 -90 -103 -85l-12 1q-19 0 -36 11q-3 3 -2 4zM111 664q-1 0 -3 0.5t-3 1.5q-2 -1 -3.5 -2.5t-2.5 -3t-2 -2.5q-5 -5 -5 -14q0 -6 4 -10q7 -7 20 -7v0h1h2q1 1 2 1l2 2q2 1 3 2q13 13 -1 25q-8 6 -14 7z" />
<glyph unicode="&#x25fc;" horiz-adv-x="265" d="M0 265h265v-265h-265v265z" />
<glyph unicode="&#xfb01;" d="M154 565q17 3 33 -3t24 -22q10 -19 6 -47q-7 -35 -34 -85q-19 -36 -59 -91q-16 -23 -47.5 -61.5t-41.5 -52.5q-2 -7 -4 -25q0 -2 -6 -56q38 11 56 23q48 32 58 95q1 6 6 3q4 -2 3 -6q-9 -75 -78 -110q-22 -9 -40 -13l1 -1q26 -38 45 -80q20 -48 20 -73q2 -20 -9 -31v-1 q0 -6 -18 -6q-19 -2 -33.5 6t-22 24.5t-11 30t-5.5 31.5q-7 41 -5 92q-3 -1 -8 -1q-15 -2 -23 7q-10 10 -8 20q2 11 12 17.5t22 2.5q6 -2 8 -3q7 76 40 202q25 89 39 127q13 35 29 56t47 30h3zM-33 119q5 -9 26 -4q0 10 2 24q-8 5 -16 5q-9 0 -14 -9t2 -16zM57 50 q-17 34 -33 56q0 -60 3 -80q11 -94 45 -95q17 5 14 43q-7 33 -29 76zM206 495q4 20 0 36q-5 15 -18.5 21.5t-28.5 3.5q-9 -3 -17.5 -10t-13 -12.5t-10.5 -18.5t-8 -17.5t-7 -21t-5 -17.5q-42 -122 -60 -236q4 4 10.5 12.5t9.5 12.5q75 93 116 165q24 43 32 82zM210 226 q1 6 7 1q4 -3 3 -6q-1 -6 -3 -20q-8 -46 -21 -85q-8 -26 -15 -37q-10 -17 -25 -17q-29 2 -35 20q-4 13 -2 37q1 23 6 46q4 28 5 42v7q1 8 0 8q-2 6 -3 7q-4 3 5 5l4 1q16 0 20 -3q6 -5 6 -26q-1 -15 -5.5 -42.5t-5.5 -39.5q-2 -25 0 -38q3 -13 7 -13t8 4q5 5 9 15 q11 21 26 83zM177 268q-2 -10 -9.5 -14t-16.5 0q-21 11 -16 34q2 10 9.5 13.5t16.5 -0.5t13.5 -13.5t2.5 -19.5z" />
<glyph unicode="&#xfb02;" horiz-adv-x="342" d="M361 493q8 -9 10 -30q0 -4 -9 -33q-3 -7 -10.5 -19.5t-9.5 -17.5q-19 -28 -63 -78q-47 -49 -95 -93q-11 -40 -8.5 -91.5t26.5 -51.5q5 0 14 3t23 12.5t27 24.5t24.5 43t17.5 64q0 7 8 1l3 -6q-9 -46 -25.5 -78.5t-34.5 -47.5t-32 -21t-25 -6q-49 0 -57 54q-10 80 11 176 t67 161t98 56q22 -4 40 -22zM324 505q-39 7 -69 -44q-51 -76 -68 -217q30 24 88 85q33 35 60 75q5 7 19 35q10 29 0 45t-30 21zM154 565q17 3 33 -3t24 -22q10 -19 6 -47q-7 -35 -34 -85q-19 -36 -59 -91q-16 -23 -47.5 -61.5t-41.5 -52.5q-2 -7 -4 -25q0 -2 -6 -56 q38 11 56 23q60 40 69 95q1 6 6 3q4 -2 3 -6q-9 -69 -89 -110q-22 -9 -40 -13l1 -1q26 -38 45 -80q20 -48 20 -73q2 -20 -9 -31v-1q0 -6 -18 -6q-19 -2 -33.5 6t-22 24.5t-11 30t-5.5 31.5q-7 41 -5 92q-3 -1 -8 -1q-15 -2 -23 7q-10 10 -8 20q2 11 12 17.5t22 2.5 q6 -2 8 -3q7 76 40 202q25 89 39 127q13 35 29 56t47 30h3zM-33 119q5 -9 26 -4q0 10 2 24q-8 5 -16 5q-9 0 -14 -9t2 -16zM57 50q-17 34 -33 56q0 -60 3 -80q11 -94 45 -95q17 5 14 43q-7 33 -29 76zM206 495q4 20 0 36q-5 15 -18.5 21.5t-28.5 3.5q-9 -3 -17.5 -10 t-13 -12.5t-10.5 -18.5t-8 -17.5t-7 -21t-5 -17.5q-42 -122 -60 -236q4 4 10.5 12.5t9.5 12.5q75 93 116 165q24 43 32 82z" />
</font>
</defs>
</svg>
